<?xml version="1.0" encoding="utf-8"?>
<!-- Generator: Adobe Illustrator 23.0.3, SVG Export Plug-In . SVG Version: 6.00 Build 0)  -->
<svg version="1.1" id="レイヤー_1" xmlns="http://www.w3.org/2000/svg" xmlns:xlink="http://www.w3.org/1999/xlink" x="0px"
	 y="0px" viewBox="0 0 1280 300" style="enable-background:new 0 0 1280 300;" xml:space="preserve">
<style type="text/css">
	.st0{fill:#002B62;}
</style>
<g>
	<g>
		<path class="st0" d="M1094.24,88.46c-15.26,0-31.07,9.03-39.4,20.59V88.46h-32.85v143.42h32.85v-46.58
			c0-38.3,10.32-64.09,39.4-64.09V88.46z"/>
		<path class="st0" d="M810.89,199.13c-0.32-0.38-0.8-1.22-0.8-2.84v-0.11v-53.76v-6.8c0-25.09-19.7-45.61-44.47-47.16h-42.39v32.75
			l42.39,0.16c6.63,1.38,11.62,7.24,11.62,14.25l-0.63,1.79h-32.61c-15.61,0-32.45,13.61-32.45,35.59v23.28
			c0,21.99,16.85,35.59,32.45,35.59h33.63c5.45,0,11.04-1.69,16.03-4.79c4.98,3.1,10.57,4.79,16.03,4.79h13.05v-32.75H810.89z
			 M777.24,196.18v0.11c0,1.62-0.48,2.46-0.8,2.84H745.2c-0.32-0.38-0.8-1.22-0.8-2.84v-23.28c0-1.62,0.48-2.46,0.8-2.84h32.04
			V196.18z"/>
		<path class="st0" d="M978.63,68.11h-32.85v20.35H930.3v32.75h15.48v75.07c0,21.99,16.85,35.59,32.45,35.59h28.2v-32.75h-27
			c-0.32-0.38-0.8-1.22-0.8-2.84v-75.07h27.8V88.46h-27.8V68.11z"/>
		<path class="st0" d="M883.05,137.41l-17.54,0.16c-4.52,0-8.2-3.67-8.2-8.18s3.68-8.18,8.2-8.18h49.24V88.47h-49.24
			c-22.64,0-41.05,18.36-41.05,40.93s18.41,40.93,41.05,40.93l17.54,0c6.63,1.38,11.62,7.24,11.62,14.25
			c0,8.03-6.55,14.56-14.6,14.56h-41.79v32.75h41.79c26.17,0,47.45-21.23,47.45-47.31C927.53,159.48,907.83,138.96,883.05,137.41z"
			/>
		<polygon class="st0" points="709.18,88.47 668.86,88.47 648.19,124.76 627.53,88.47 587.2,88.47 628.03,160.18 587.2,231.89 
			627.53,231.89 648.19,195.59 668.86,231.89 709.18,231.89 668.36,160.18 		"/>
		<polygon class="st0" points="572.93,100.87 572.93,68.11 465.65,68.11 465.65,231.89 572.93,231.89 572.93,199.13 504.09,199.13 
			504.09,166.38 562.43,166.38 562.43,133.62 504.09,133.62 504.09,100.87 		"/>
		<path class="st0" d="M1168.08,88.46c-39.72,0-71.92,32.11-71.92,71.71c0,39.6,32.2,71.71,71.92,71.71
			c39.72,0,71.92-32.11,71.92-71.71C1240,120.57,1207.8,88.46,1168.08,88.46z M1188.45,169.46l12.59,38.63l-32.96-23.87
			l-32.96,23.87l12.59-38.63l-32.96-23.87h40.74l12.59-38.63l12.59,38.63h40.74L1188.45,169.46z"/>
	</g>
	<g>
		<polygon class="st0" points="239.1,138.57 230.21,111.19 221.31,138.57 192.52,138.57 215.81,155.49 206.92,182.87 230.21,165.95 
			253.5,182.87 244.6,155.49 267.9,138.57 		"/>
		<path class="st0" d="M405.82,109.04c-0.85,3.58-1.31,7.49-1.33,11.44c-3.25-0.77-6.89-3.15-9.91-6.17
			c-3.03-3.03-5.4-6.66-6.17-9.91c3.94-0.02,7.86-0.48,11.43-1.33l14.69-14.69l-51.87,7.41l-93.32,93.32
			c-2.04,2.04-4.23,3.82-6.49,5.47c-21.61,15.82-52.18,14.04-71.69-5.47c-13.96-13.96-18.82-33.57-14.7-51.52l-30.94,30.94
			c3.51,16.23,11.51,30.91,23.41,42.81c16.38,16.38,38.16,25.4,61.32,25.4c23.17,0,44.94-9.02,61.32-25.4l78.83-78.83
			c0.85-3.58,1.31-7.49,1.33-11.44c3.25,0.77,6.89,3.15,9.91,6.17c3.03,3.03,5.4,6.66,6.17,9.91c-3.95,0.02-7.86,0.48-11.44,1.33
			l-78.83,78.83c-17.98,17.98-41.88,27.88-67.3,27.88c-25.42,0-49.33-9.9-67.3-27.88c-11.79-11.79-19.99-26.12-24.31-41.91
			L114,200.04c6.15,14.35,15.03,27.79,26.73,39.49c25.21,25.21,58.51,37.54,91.62,37c31.72-0.52,63.29-12.85,87.44-37l93.32-93.32
			l7.41-51.87L405.82,109.04z M371.74,120.48c-0.03-6.14-1.09-12.23-3.14-17c-1.04-2.42-2.31-4.53-3.87-6.09
			c2.32,2.32,5.8,4.06,9.85,5.23c4.03,1.16,8.63,1.75,13.24,1.77C386.29,110.89,378.24,118.94,371.74,120.48z M388.4,137.14
			c1.54-6.5,9.59-14.55,16.09-16.09c0.05,9.25,2.38,18.46,7,23.09C406.87,139.51,397.66,137.19,388.4,137.14z"/>
		<path class="st0" d="M191.16,110.91c0,0,4.24-3.83,6.49-5.48c21.61-15.82,52.18-14.04,71.7,5.47
			c13.96,13.96,18.82,33.57,14.7,51.52l30.94-30.94c-3.51-16.23-11.51-30.91-23.41-42.81c-16.38-16.38-38.16-25.4-61.32-25.4
			c-23.17,0-44.94,9.02-61.32,25.4L90.1,167.51c-0.85,3.58-1.31,7.49-1.33,11.44c-3.25-0.77-6.89-3.15-9.91-6.17
			c-3.03-3.03-5.4-6.66-6.17-9.91c3.95-0.02,7.86-0.48,11.44-1.33l78.83-78.83c17.98-17.98,41.88-27.88,67.3-27.88
			c25.42,0,49.33,9.9,67.3,27.88c11.79,11.79,19.99,26.12,24.31,41.91l24.65-24.65c-6.15-14.35-15.03-27.79-26.73-39.49
			c-25.21-25.21-58.51-37.54-91.62-37c-31.72,0.52-63.29,12.85-87.44,37l-93.32,93.32L40,205.65l14.69-14.69
			c0.85-3.58,1.31-7.49,1.33-11.44c3.25,0.77,6.89,3.15,9.91,6.17c3.03,3.03,5.4,6.66,6.17,9.91c-3.94,0.02-7.86,0.48-11.43,1.33
			l-14.69,14.69l51.87-7.41C97.85,204.22,191.16,110.91,191.16,110.91z M56.03,178.95c-0.05-9.25-2.38-18.46-7-23.09
			c4.63,4.63,13.84,6.96,23.09,7C70.57,169.36,62.52,177.41,56.03,178.95z M85.92,197.38c-4.03-1.16-8.63-1.75-13.24-1.77
			c1.54-6.5,9.59-14.55,16.09-16.09c0.03,6.14,1.09,12.23,3.14,17c1.04,2.42,2.31,4.53,3.87,6.09
			C93.45,200.29,89.98,198.55,85.92,197.38z"/>
	</g>
</g>
</svg>
