<?xml version="1.0" encoding="utf-8"?>
<!-- Generator: Adobe Illustrator 23.0.3, SVG Export Plug-In . SVG Version: 6.00 Build 0)  -->
<svg version="1.1" id="レイヤー_1" xmlns="http://www.w3.org/2000/svg" xmlns:xlink="http://www.w3.org/1999/xlink" x="0px"
	 y="0px" viewBox="0 0 440 300" style="enable-background:new 0 0 440 300;" xml:space="preserve">
<style type="text/css">
	.st0{fill:#FFFFFF;}
	.st1{fill:#002B62;}
	.st2{fill:url(#SVGID_1_);}
	.st3{fill:url(#SVGID_2_);}
	.st4{fill:#8095B0;}
	.st5{fill:url(#SVGID_3_);}
	.st6{fill:url(#SVGID_4_);}
</style>
<g>
	<path class="st0" d="M378.04,104.39c-1.54,6.5-9.62,14.55-16.13,16.09c-0.05-9.25-2.38-18.46-7.02-23.09
		C359.52,102.02,368.76,104.34,378.04,104.39z"/>
	<polygon class="st0" points="243.31,182.87 219.95,165.95 196.59,182.87 205.51,155.49 182.15,138.57 211.03,138.57 219.95,111.19 
		228.87,138.57 257.75,138.57 234.39,155.49 	"/>
	<path class="st0" d="M61.39,162.86c-1.54,6.5-9.62,14.55-16.13,16.09c-0.05-9.25-2.38-18.46-7.02-23.09
		C42.87,160.49,52.1,162.81,61.39,162.86z"/>
	<path class="st0" d="M38.23,202.61c4.64-4.63,6.98-13.84,7.02-23.09c3.26,0.77,6.91,3.15,9.94,6.17c3.03,3.03,5.42,6.66,6.19,9.91
		C52.11,195.66,42.87,197.98,38.23,202.61z"/>
	<path class="st0" d="M61.96,195.61c1.54-6.5,9.62-14.55,16.13-16.09c0.05,9.25,2.38,18.46,7.02,23.09
		C80.48,197.98,71.24,195.66,61.96,195.61z"/>
	<path class="st0" d="M78.1,178.95c-3.26-0.77-6.91-3.15-9.94-6.17c-3.03-3.03-5.42-6.66-6.19-9.91c9.28-0.05,18.52-2.38,23.16-7
		C80.48,160.49,78.14,169.69,78.1,178.95z"/>
	<path class="st0" d="M354.88,144.14c4.64-4.63,6.98-13.84,7.02-23.09c3.26,0.77,6.91,3.15,9.94,6.17c3.03,3.03,5.42,6.66,6.19,9.91
		C368.76,137.19,359.52,139.51,354.88,144.14z"/>
	<path class="st0" d="M378.61,137.14c1.54-6.5,9.62-14.55,16.13-16.09c0.05,9.25,2.38,18.46,7.02,23.09
		C397.13,139.51,387.9,137.19,378.61,137.14z"/>
	<path class="st0" d="M394.75,120.48c-3.26-0.77-6.91-3.15-9.94-6.17c-3.03-3.03-5.42-6.66-6.19-9.91c9.28-0.05,18.52-2.38,23.16-7
		C397.13,102.02,394.79,111.22,394.75,120.48z"/>
	<polygon class="st0" points="129.55,162 129.55,162.01 128.72,162.82 	"/>
	<path class="st1" d="M168.58,201.42c-28.21-28.38-28.21-74.47,0-102.85c28.38-28.21,74.47-28.21,102.85,0
		c28.21,28.38,28.21,74.47,0,102.85C243.05,229.64,196.95,229.64,168.58,201.42z M211.03,138.57h-28.88l23.36,16.92l-8.92,27.38
		l23.36-16.92l23.36,16.92l-8.92-27.38l23.36-16.92h-28.88l-8.92-27.38L211.03,138.57z"/>
	<linearGradient id="SVGID_1_" gradientUnits="userSpaceOnUse" x1="328.5829" y1="221.0223" x2="199.5118" y2="91.9513">
		<stop  offset="0" style="stop-color:#002B62"/>
		<stop  offset="1" style="stop-color:#8095B0"/>
	</linearGradient>
	<path class="st2" d="M401.77,97.39c-4.64,4.63-6.98,13.84-7.02,23.09c0,0.19,0,0.38,0,0.57c0.05,9.25,2.38,18.46,7.02,23.09
		c-4.64-4.63-13.88-6.96-23.16-7c-0.19,0-0.38,0-0.58,0c-9.28,0.05-18.52,2.38-23.16,7l-70.38,70.17c-35.62,35.52-93.38,35.52-129,0
		c-14.75-14.71-23.39-33.2-25.92-52.34l-29.56,29.47c6.08,17.58,16.13,34.08,30.18,48.09c25.29,25.21,58.68,37.54,91.89,37
		c31.82-0.52,63.48-12.85,87.7-37l93.59-93.32l8.43-58.85L401.77,97.39z"/>
	<linearGradient id="SVGID_2_" gradientUnits="userSpaceOnUse" x1="316.0038" y1="183.1855" x2="212.1842" y2="79.3659">
		<stop  offset="0" style="stop-color:#8095B0"/>
		<stop  offset="1" style="stop-color:#002B62"/>
	</linearGradient>
	<path class="st3" d="M352.8,95.78l-93.59,93.32c-21.62,21.56-56.8,21.56-78.41,0s-21.62-56.63,0-78.18l-51.22,51.07
		c2.54,19.14,11.17,37.63,25.92,52.34c35.62,35.52,93.38,35.52,129,0l70.38-70.17c4.64-4.63,6.98-13.84,7.02-23.09
		c0-0.19,0-0.38,0-0.57c-0.05-9.25-2.38-18.46-7.02-23.09c4.64,4.63,13.88,6.96,23.16,7c0.19,0,0.38,0,0.58,0
		c9.28-0.05,18.52-2.38,23.16-7l10.05-10.02L352.8,95.78z"/>
	<path class="st4" d="M384.8,114.31c-3.03-3.03-5.42-6.66-6.19-9.91c-0.19,0-0.38,0-0.58,0c-1.54,6.5-9.62,14.55-16.13,16.09
		c0,0.19,0,0.38,0,0.57c3.26,0.77,6.91,3.15,9.94,6.17c3.03,3.03,5.42,6.66,6.19,9.91c0.19,0,0.38,0,0.58,0
		c1.54-6.5,9.62-14.55,16.13-16.09c0-0.19,0-0.38,0-0.57C391.49,119.71,387.84,117.33,384.8,114.31z"/>
	<linearGradient id="SVGID_3_" gradientUnits="userSpaceOnUse" x1="240.4881" y1="208.0486" x2="111.4171" y2="78.9777">
		<stop  offset="0" style="stop-color:#002B62"/>
		<stop  offset="1" style="stop-color:#8095B0"/>
	</linearGradient>
	<path class="st5" d="M309.8,60.47c-25.29-25.21-58.68-37.54-91.89-37c-31.82,0.52-63.48,12.85-87.7,37l-93.59,93.32l-8.43,58.85
		l10.05-10.02c4.64-4.63,6.98-13.84,7.02-23.09c0-0.19,0-0.38,0-0.57c-0.05-9.25-2.38-18.46-7.02-23.09
		c4.64,4.63,13.88,6.96,23.16,7c0.19,0,0.38,0,0.58,0c9.28-0.05,18.52-2.38,23.16-7l12.19-12.15l58.19-58.02
		c35.62-35.52,93.38-35.52,129,0c14.75,14.71,23.39,33.2,25.92,52.34l29.56-29.47C333.9,90.98,323.85,74.48,309.8,60.47z"/>
	<linearGradient id="SVGID_4_" gradientUnits="userSpaceOnUse" x1="227.8157" y1="220.6339" x2="123.9963" y2="116.8145">
		<stop  offset="0" style="stop-color:#8095B0"/>
		<stop  offset="1" style="stop-color:#002B62"/>
	</linearGradient>
	<path class="st6" d="M310.42,138.03c-2.54-19.14-11.17-37.63-25.92-52.34c-35.62-35.52-93.38-35.52-129,0l-70.38,70.17
		c-4.64,4.63-6.98,13.84-7.02,23.09c0,0.19,0,0.38,0,0.57c0.05,9.25,2.38,18.46,7.02,23.09c-4.64-4.63-13.88-6.96-23.16-7
		c-0.19,0-0.38,0-0.58,0c-9.28,0.05-18.52,2.38-23.16,7l-10.05,10.02l59.02-8.41l93.59-93.32c21.62-21.56,56.8-21.56,78.41,0
		c21.62,21.56,21.62,56.63,0,78.18L310.42,138.03z"/>
	<path class="st4" d="M68.15,172.78c-3.03-3.03-5.42-6.66-6.19-9.91c-0.19,0-0.38,0-0.58,0c-1.54,6.5-9.62,14.55-16.13,16.09
		c0,0.19,0,0.38,0,0.57c3.26,0.77,6.91,3.15,9.94,6.17c3.03,3.03,5.42,6.66,6.19,9.91c0.19,0,0.38,0,0.58,0
		c1.54-6.5,9.62-14.55,16.13-16.09c0-0.19,0-0.38,0-0.57C74.84,178.18,71.19,175.8,68.15,172.78z"/>
</g>
</svg>
