<?xml version="1.0" encoding="utf-8"?>
<!-- Generator: Adobe Illustrator 23.1.0, SVG Export Plug-In . SVG Version: 6.00 Build 0)  -->
<svg version="1.1" id="レイヤー_1" xmlns="http://www.w3.org/2000/svg" xmlns:xlink="http://www.w3.org/1999/xlink" x="0px"
	 y="0px" width="1280px" height="300px" viewBox="0 0 1280 300" style="enable-background:new 0 0 1280 300;" xml:space="preserve">
<style type="text/css">
	.st0{fill:none;}
	.st1{fill:#FFFFFF;}
	.st2{fill:#002B62;}
	.st3{fill:url(#SVGID_1_);}
	.st4{fill:url(#SVGID_2_);}
	.st5{fill:#8095B0;}
	.st6{fill:url(#SVGID_3_);}
	.st7{fill:url(#SVGID_4_);}
</style>
<rect class="st0" width="1280" height="300"/>
<g>
	<g>
		<path class="st1" d="M1095.2,88.5c-15.3,0-31.1,9-39.4,20.6V88.5H1023v143.4h32.8v-46.6c0-38.3,10.3-64.1,39.4-64.1V88.5z"/>
		<path class="st1" d="M811.9,199.1c-0.3-0.4-0.8-1.2-0.8-2.8v-0.1v-53.8v-6.8c0-25.1-19.7-45.6-44.5-47.2h-42.4v32.8l42.4,0.2
			c6.6,1.4,11.6,7.2,11.6,14.3l-0.6,1.8H745c-15.6,0-32.5,13.6-32.5,35.6v23.3c0,22,16.8,35.6,32.5,35.6h33.6c5.5,0,11-1.7,16-4.8
			c5,3.1,10.6,4.8,16,4.8h13v-32.8L811.9,199.1L811.9,199.1z M778.2,196.2v0.1c0,1.6-0.5,2.5-0.8,2.8h-31.2
			c-0.3-0.4-0.8-1.2-0.8-2.8V173c0-1.6,0.5-2.5,0.8-2.8h32V196.2z"/>
		<path class="st1" d="M979.6,68.1h-32.8v20.3h-15.5v32.8h15.5v75.1c0,22,16.8,35.6,32.5,35.6h28.2v-32.8h-27
			c-0.3-0.4-0.8-1.2-0.8-2.8v-75.1h27.8V88.5h-27.8V68.1z"/>
		<path class="st1" d="M884,137.4l-17.5,0.2c-4.5,0-8.2-3.7-8.2-8.2s3.7-8.2,8.2-8.2h49.2V88.5h-49.2c-22.6,0-41,18.4-41,40.9
			s18.4,40.9,41,40.9H884c6.6,1.4,11.6,7.2,11.6,14.3c0,8-6.5,14.6-14.6,14.6h-41.8v32.8h41.8c26.2,0,47.5-21.2,47.5-47.3
			C928.5,159.5,908.8,139,884,137.4z"/>
		<polygon class="st1" points="710.2,88.5 669.9,88.5 649.2,124.8 628.5,88.5 588.2,88.5 629,160.2 588.2,231.9 628.5,231.9 
			649.2,195.6 669.9,231.9 710.2,231.9 669.4,160.2 		"/>
		<polygon class="st1" points="573.9,100.9 573.9,68.1 466.6,68.1 466.6,231.9 573.9,231.9 573.9,199.1 505.1,199.1 505.1,166.4 
			563.4,166.4 563.4,133.6 505.1,133.6 505.1,100.9 		"/>
		<path class="st1" d="M1169.1,88.5c-39.7,0-71.9,32.1-71.9,71.7s32.2,71.7,71.9,71.7c39.7,0,71.9-32.1,71.9-71.7
			S1208.8,88.5,1169.1,88.5z M1189.4,169.5l12.6,38.6l-33-23.9l-33,23.9l12.6-38.6l-33-23.9h40.7l12.6-38.6l12.6,38.6h40.7
			L1189.4,169.5z"/>
	</g>
	<g>
		<path class="st1" d="M433.3,82.1c-0.3-0.6-0.7-1.2-1.1-1.8c0,0,0,0,0,0c-0.2-0.2-0.3-0.4-0.5-0.6c0-0.1-0.1-0.1-0.1-0.2
			c-0.1-0.1-0.3-0.3-0.4-0.4c-0.1-0.1-0.2-0.2-0.3-0.3c-0.1-0.1-0.2-0.2-0.3-0.3c-0.8-0.7-1.7-1.3-2.7-1.8c-0.1-0.1-0.3-0.1-0.4-0.2
			c-0.1,0-0.1-0.1-0.2-0.1c-1.5-0.6-3.1-1-4.7-1c-0.8,0-1.6,0.1-2.5,0.3L362,84c-2.5,0.4-4.9,1.5-6.7,3.3l-0.4,0.4
			c-6.6-13.1-15.3-25.1-25.9-35.7c-26.2-26.1-61-40.5-98.2-40.5c-0.8,0-1.5,0-2.3,0c-36.3,0.6-70.3,15-95.9,40.5l-93.6,93.3
			c-1.8,1.8-3,4.2-3.4,6.7l-8.4,58.8c0,0.1,0,0.2,0,0.3c0,0.2,0,0.3-0.1,0.5c0,0.1,0,0.3,0,0.4c0,0.2,0,0.3,0,0.5c0,0.2,0,0.3,0,0.5
			c0,0.2,0,0.3,0,0.5c0,0.2,0,0.3,0.1,0.5c0,0.2,0,0.3,0.1,0.5c0,0.2,0.1,0.3,0.1,0.5c0,0.1,0.1,0.3,0.1,0.4c0,0.2,0.1,0.3,0.1,0.5
			c0,0.1,0.1,0.3,0.1,0.4c0.1,0.2,0.1,0.3,0.2,0.5c0.1,0.1,0.1,0.3,0.2,0.4c0.1,0.2,0.1,0.3,0.2,0.5c0,0.1,0.1,0.2,0.1,0.3
			c0,0,0,0.1,0.1,0.1c0.1,0.1,0.1,0.2,0.2,0.3c0.1,0.1,0.2,0.3,0.3,0.4c0.1,0.1,0.1,0.2,0.2,0.3c0.1,0.1,0.2,0.3,0.3,0.4
			c0.1,0.1,0.1,0.2,0.2,0.3c0.1,0.1,0.2,0.3,0.3,0.4c0.1,0.1,0.2,0.2,0.2,0.3c0.1,0.1,0.2,0.3,0.4,0.4c0.1,0.1,0.2,0.2,0.2,0.3
			c0.1,0.1,0.3,0.2,0.4,0.4c0.1,0.1,0.2,0.1,0.2,0.2c0.2,0.1,0.3,0.3,0.5,0.4c0.1,0,0.1,0.1,0.2,0.1c0.2,0.2,0.5,0.3,0.7,0.5
			c0.1,0,0.1,0.1,0.2,0.1c0.2,0.1,0.4,0.2,0.6,0.3c0,0,0.1,0,0.1,0c0,0,0.1,0,0.1,0.1c0.4,0.2,0.8,0.4,1.2,0.5c0,0,0,0,0,0
			c0.4,0.1,0.8,0.2,1.2,0.3c0.1,0,0.2,0,0.2,0.1c0.4,0.1,0.8,0.2,1.2,0.2c0.1,0,0.2,0,0.2,0c0.4,0,0.8,0.1,1.2,0.1c0,0,0,0,0,0
			c0,0,0,0,0,0c0,0,0,0,0,0c0.3,0,0.7,0,1,0c0.1,0,0.2,0,0.3,0c0.1,0,0.2,0,0.3,0l59-8.4c2.5-0.4,4.9-1.5,6.7-3.3l0.4-0.4
			c6.6,13.1,15.3,25.1,25.9,35.7c26.2,26.1,61.1,40.5,98.2,40.5c0.8,0,1.5,0,2.3,0c36.3-0.6,70.3-15,95.9-40.5l93.6-93.3
			c1.8-1.8,3-4.2,3.4-6.7l8.3-58.1C434.8,87.3,434.5,84.6,433.3,82.1z"/>
		<path class="st1" d="M388.9,104.4c-1.5,6.5-9.6,14.6-16.1,16.1c0-9.3-2.4-18.5-7-23.1C370.3,102,379.6,104.3,388.9,104.4z"/>
		<polygon class="st1" points="254.1,182.9 230.8,165.9 207.4,182.9 216.3,155.5 193,138.6 221.9,138.6 230.8,111.2 239.7,138.6 
			268.6,138.6 245.2,155.5 		"/>
		<path class="st1" d="M72.2,162.9c-1.5,6.5-9.6,14.6-16.1,16.1c0-9.3-2.4-18.5-7-23.1C53.7,160.5,62.9,162.8,72.2,162.9z"/>
		<path class="st1" d="M49,202.6c4.6-4.6,7-13.8,7-23.1c3.3,0.8,6.9,3.1,9.9,6.2c3,3,5.4,6.7,6.2,9.9C62.9,195.7,53.7,198,49,202.6z
			"/>
		<path class="st1" d="M72.8,195.6c1.5-6.5,9.6-14.6,16.1-16.1c0.1,9.3,2.4,18.5,7,23.1C91.3,198,82.1,195.7,72.8,195.6z"/>
		<path class="st1" d="M88.9,178.9c-3.3-0.8-6.9-3.1-9.9-6.2c-3-3-5.4-6.7-6.2-9.9c9.3-0.1,18.5-2.4,23.2-7
			C91.3,160.5,89,169.7,88.9,178.9z"/>
		<path class="st1" d="M365.7,144.1c4.6-4.6,7-13.8,7-23.1c3.3,0.8,6.9,3.2,9.9,6.2c3,3,5.4,6.7,6.2,9.9
			C379.6,137.2,370.3,139.5,365.7,144.1z"/>
		<path class="st1" d="M389.4,137.1c1.5-6.5,9.6-14.6,16.1-16.1c0,9.3,2.4,18.5,7,23.1C408,139.5,398.7,137.2,389.4,137.1z"/>
		<path class="st1" d="M405.6,120.5c-3.3-0.8-6.9-3.2-9.9-6.2c-3-3-5.4-6.7-6.2-9.9c9.3-0.1,18.5-2.4,23.2-7
			C408,102,405.6,111.2,405.6,120.5z"/>
		<polygon class="st1" points="140.4,162 140.4,162 139.5,162.8 		"/>
		<path class="st2" d="M179.4,201.4c-28.2-28.4-28.2-74.5,0-102.8c28.4-28.2,74.5-28.2,102.9,0c28.2,28.4,28.2,74.5,0,102.8
			C253.9,229.6,207.8,229.6,179.4,201.4z M221.9,138.6H193l23.4,16.9l-8.9,27.4l23.4-16.9l23.4,16.9l-8.9-27.4l23.4-16.9h-28.9
			l-8.9-27.4L221.9,138.6z"/>
		
			<linearGradient id="SVGID_1_" gradientUnits="userSpaceOnUse" x1="339.385" y1="80.9849" x2="210.3199" y2="210.05" gradientTransform="matrix(1 0 0 -1 0 302)">
			<stop  offset="0" style="stop-color:#002B62"/>
			<stop  offset="1" style="stop-color:#8095B0"/>
		</linearGradient>
		<path class="st3" d="M412.6,97.4c-4.6,4.6-7,13.8-7,23.1c0,0.2,0,0.4,0,0.6c0,9.2,2.4,18.5,7,23.1c-4.6-4.6-13.9-7-23.2-7
			c-0.2,0-0.4,0-0.6,0c-9.3,0.1-18.5,2.4-23.2,7l-70.4,70.2c-35.6,35.5-93.4,35.5-129,0c-14.8-14.7-23.4-33.2-25.9-52.3l-29.6,29.5
			c6.1,17.6,16.1,34.1,30.2,48.1c25.3,25.2,58.7,37.5,91.9,37c31.8-0.5,63.5-12.9,87.7-37l93.6-93.3l8.4-58.8L412.6,97.4z"/>
		
			<linearGradient id="SVGID_2_" gradientUnits="userSpaceOnUse" x1="326.8325" y1="118.7925" x2="223.0075" y2="222.6175" gradientTransform="matrix(1 0 0 -1 0 302)">
			<stop  offset="0" style="stop-color:#8095B0"/>
			<stop  offset="1" style="stop-color:#002B62"/>
		</linearGradient>
		<path class="st4" d="M363.6,95.8L270,189.1c-21.6,21.6-56.8,21.6-78.4,0s-21.6-56.6,0-78.2L140.4,162
			c2.5,19.1,11.2,37.6,25.9,52.3c35.6,35.5,93.4,35.5,129,0l70.4-70.2c4.6-4.6,7-13.8,7-23.1c0-0.2,0-0.4,0-0.6
			c0-9.3-2.4-18.5-7-23.1c4.6,4.6,13.9,7,23.2,7c0.2,0,0.4,0,0.6,0c9.3-0.1,18.5-2.4,23.2-7l10-10L363.6,95.8z"/>
		<path class="st5" d="M395.6,114.3c-3-3-5.4-6.7-6.2-9.9c-0.2,0-0.4,0-0.6,0c-1.5,6.5-9.6,14.6-16.1,16.1c0,0.2,0,0.4,0,0.6
			c3.3,0.8,6.9,3.2,9.9,6.2c3,3,5.4,6.7,6.2,9.9c0.2,0,0.4,0,0.6,0c1.5-6.5,9.6-14.6,16.1-16.1c0-0.2,0-0.4,0-0.6
			C402.3,119.7,398.7,117.3,395.6,114.3z"/>
		
			<linearGradient id="SVGID_3_" gradientUnits="userSpaceOnUse" x1="251.3151" y1="93.945" x2="122.245" y2="223.015" gradientTransform="matrix(1 0 0 -1 0 302)">
			<stop  offset="0" style="stop-color:#002B62"/>
			<stop  offset="1" style="stop-color:#8095B0"/>
		</linearGradient>
		<path class="st6" d="M320.6,60.5c-25.3-25.2-58.7-37.5-91.9-37c-31.8,0.5-63.5,12.8-87.7,37l-93.6,93.3L39,212.6l10-10
			c4.6-4.6,7-13.8,7-23.1c0-0.2,0-0.4,0-0.6c0-9.3-2.4-18.5-7-23.1c4.6,4.6,13.9,7,23.2,7c0.2,0,0.4,0,0.6,0
			c9.3-0.1,18.5-2.4,23.2-7l12.2-12.1l58.2-58c35.6-35.5,93.4-35.5,129,0c14.8,14.7,23.4,33.2,25.9,52.3l29.6-29.5
			C344.7,91,334.7,74.5,320.6,60.5z"/>
		
			<linearGradient id="SVGID_4_" gradientUnits="userSpaceOnUse" x1="238.635" y1="81.365" x2="134.815" y2="185.185" gradientTransform="matrix(1 0 0 -1 0 302)">
			<stop  offset="0" style="stop-color:#8095B0"/>
			<stop  offset="1" style="stop-color:#002B62"/>
		</linearGradient>
		<path class="st7" d="M321.2,138c-2.5-19.1-11.2-37.6-25.9-52.3c-35.6-35.5-93.4-35.5-129,0l-70.4,70.2c-4.6,4.6-7,13.8-7,23.1
			c0,0.2,0,0.4,0,0.6c0.1,9.3,2.4,18.5,7,23.1c-4.6-4.6-13.9-7-23.2-7c-0.2,0-0.4,0-0.6,0c-9.3,0.1-18.5,2.4-23.2,7l-10,10l59-8.4
			l93.6-93.3c21.6-21.6,56.8-21.6,78.4,0c21.6,21.6,21.6,56.6,0,78.2L321.2,138z"/>
		<path class="st5" d="M79,172.8c-3-3-5.4-6.7-6.2-9.9c-0.2,0-0.4,0-0.6,0c-1.5,6.5-9.6,14.6-16.1,16.1c0,0.2,0,0.4,0,0.6
			c3.3,0.8,6.9,3.1,9.9,6.2c3,3,5.4,6.7,6.2,9.9c0.2,0,0.4,0,0.6,0c1.5-6.5,9.6-14.6,16.1-16.1c0-0.2,0-0.4,0-0.6
			C85.7,178.2,82,175.8,79,172.8z"/>
	</g>
</g>
</svg>
