<?xml version="1.0" encoding="utf-8"?>
<!-- Generator: Adobe Illustrator 23.1.0, SVG Export Plug-In . SVG Version: 6.00 Build 0)  -->
<svg version="1.1" id="レイヤー_1" xmlns="http://www.w3.org/2000/svg" xmlns:xlink="http://www.w3.org/1999/xlink" x="0px"
	 y="0px" width="440px" height="300px" viewBox="0 0 440 300" style="enable-background:new 0 0 440 300;" xml:space="preserve">
<style type="text/css">
	.st0{fill:#FFFFFF;}
	.st1{fill:#002B62;}
	.st2{fill:url(#SVGID_1_);}
	.st3{fill:url(#SVGID_2_);}
	.st4{fill:#8095B0;}
	.st5{fill:url(#SVGID_3_);}
	.st6{fill:url(#SVGID_4_);}
</style>
<g>
	<path class="st0" d="M422.5,82c-0.3-0.6-0.7-1.2-1.1-1.8l0,0c-0.2-0.2-0.3-0.4-0.5-0.6c0-0.1-0.1-0.1-0.1-0.2
		c-0.1-0.1-0.3-0.3-0.4-0.4s-0.2-0.2-0.3-0.3c-0.1-0.1-0.2-0.2-0.3-0.3c-0.8-0.7-1.7-1.3-2.7-1.8c-0.1-0.1-0.3-0.1-0.4-0.2
		c-0.1,0-0.1-0.1-0.2-0.1c-1.5-0.6-3.1-1-4.7-1c-0.8,0-1.6,0.1-2.5,0.3l-58.1,8.3c-2.5,0.4-4.9,1.5-6.7,3.3l-0.4,0.4
		c-6.6-13.1-15.3-25.1-25.9-35.7c-26.2-26.1-61-40.5-98.2-40.5c-0.8,0-1.5,0-2.3,0c-36.3,0.6-70.3,15-95.9,40.5l-93.6,93.3
		c-1.8,1.8-3,4.2-3.4,6.7l-8.4,58.8c0,0.1,0,0.2,0,0.3c0,0.2,0,0.3-0.1,0.5c0,0.1,0,0.3,0,0.4c0,0.2,0,0.3,0,0.5s0,0.3,0,0.5
		s0,0.3,0,0.5s0,0.3,0.1,0.5c0,0.2,0,0.3,0.1,0.5c0,0.2,0.1,0.3,0.1,0.5c0,0.1,0.1,0.3,0.1,0.4c0,0.2,0.1,0.3,0.1,0.5
		c0,0.1,0.1,0.3,0.1,0.4c0.1,0.2,0.1,0.3,0.2,0.5c0.1,0.1,0.1,0.3,0.2,0.4c0.1,0.2,0.1,0.3,0.2,0.5c0,0.1,0.1,0.2,0.1,0.3
		c0,0,0,0.1,0.1,0.1c0.1,0.1,0.1,0.2,0.2,0.3s0.2,0.3,0.3,0.4c0.1,0.1,0.1,0.2,0.2,0.3s0.2,0.3,0.3,0.4c0.1,0.1,0.1,0.2,0.2,0.3
		s0.2,0.3,0.3,0.4c0.1,0.1,0.2,0.2,0.2,0.3c0.1,0.1,0.2,0.3,0.4,0.4c0.1,0.1,0.2,0.2,0.2,0.3c0.1,0.1,0.3,0.2,0.4,0.4
		c0.1,0.1,0.2,0.1,0.2,0.2c0.2,0.1,0.3,0.3,0.5,0.4c0.1,0,0.1,0.1,0.2,0.1c0.2,0.2,0.5,0.3,0.7,0.5c0.1,0,0.1,0.1,0.2,0.1
		c0.2,0.1,0.4,0.2,0.6,0.3h0.1c0,0,0.1,0,0.1,0.1c0.4,0.2,0.8,0.4,1.2,0.5l0,0c0.4,0.1,0.8,0.2,1.2,0.3c0.1,0,0.2,0,0.2,0.1
		c0.4,0.1,0.8,0.2,1.2,0.2c0.1,0,0.2,0,0.2,0c0.4,0,0.8,0.1,1.2,0.1l0,0l0,0l0,0c0.3,0,0.7,0,1,0c0.1,0,0.2,0,0.3,0s0.2,0,0.3,0
		l59-8.4c2.5-0.4,4.9-1.5,6.7-3.3l0.4-0.4c6.6,13.1,15.3,25.1,25.9,35.7c26.2,26.1,61.1,40.5,98.2,40.5c0.8,0,1.5,0,2.3,0
		c36.3-0.6,70.3-15,95.9-40.5l93.6-93.3c1.8-1.8,3-4.2,3.4-6.7l8.3-58.1C424,87.3,423.7,84.5,422.5,82z"/>
	<g>
		<path class="st0" d="M378,104.4c-1.5,6.5-9.6,14.6-16.1,16.1c0-9.3-2.4-18.5-7-23.1C359.5,102,368.8,104.3,378,104.4z"/>
		<polygon class="st0" points="243.3,182.9 219.9,165.9 196.6,182.9 205.5,155.5 182.1,138.6 211,138.6 219.9,111.2 228.9,138.6 
			257.8,138.6 234.4,155.5 		"/>
		<path class="st0" d="M61.4,162.9c-1.5,6.5-9.6,14.6-16.1,16.1c0-9.3-2.4-18.5-7-23.1C42.9,160.5,52.1,162.8,61.4,162.9z"/>
		<path class="st0" d="M38.2,202.6c4.6-4.6,7-13.8,7-23.1c3.3,0.8,6.9,3.1,9.9,6.2c3,3,5.4,6.7,6.2,9.9
			C52.1,195.7,42.9,198,38.2,202.6z"/>
		<path class="st0" d="M62,195.6c1.5-6.5,9.6-14.6,16.1-16.1c0.1,9.3,2.4,18.5,7,23.1C80.5,198,71.2,195.7,62,195.6z"/>
		<path class="st0" d="M78.1,178.9c-3.3-0.8-6.9-3.1-9.9-6.2c-3-3-5.4-6.7-6.2-9.9c9.3-0.1,18.5-2.4,23.2-7
			C80.5,160.5,78.1,169.7,78.1,178.9z"/>
		<path class="st0" d="M354.9,144.1c4.6-4.6,7-13.8,7-23.1c3.3,0.8,6.9,3.2,9.9,6.2c3,3,5.4,6.7,6.2,9.9
			C368.8,137.2,359.5,139.5,354.9,144.1z"/>
		<path class="st0" d="M378.6,137.1c1.5-6.5,9.6-14.6,16.1-16.1c0,9.3,2.4,18.5,7,23.1C397.1,139.5,387.9,137.2,378.6,137.1z"/>
		<path class="st0" d="M394.8,120.5c-3.3-0.8-6.9-3.2-9.9-6.2c-3-3-5.4-6.7-6.2-9.9c9.3-0.1,18.5-2.4,23.2-7
			C397.1,102,394.8,111.2,394.8,120.5z"/>
		<polygon class="st0" points="129.6,162 129.6,162 128.7,162.8 		"/>
		<path class="st1" d="M168.6,201.4c-28.2-28.4-28.2-74.5,0-102.8c28.4-28.2,74.5-28.2,102.8,0c28.2,28.4,28.2,74.5,0,102.8
			C243.1,229.6,196.9,229.6,168.6,201.4z M211,138.6h-28.9l23.4,16.9l-8.9,27.4l23.4-16.9l23.4,16.9l-8.9-27.4l23.4-16.9h-28.9
			l-8.9-27.4L211,138.6z"/>
		
			<linearGradient id="SVGID_1_" gradientUnits="userSpaceOnUse" x1="328.565" y1="80.9849" x2="199.4999" y2="210.05" gradientTransform="matrix(1 0 0 -1 0 302)">
			<stop  offset="0" style="stop-color:#002B62"/>
			<stop  offset="1" style="stop-color:#8095B0"/>
		</linearGradient>
		<path class="st2" d="M401.8,97.4c-4.6,4.6-7,13.8-7,23.1c0,0.2,0,0.4,0,0.6c0,9.2,2.4,18.5,7,23.1c-4.6-4.6-13.9-7-23.2-7
			c-0.2,0-0.4,0-0.6,0c-9.3,0.1-18.5,2.4-23.2,7l-70.4,70.2c-35.6,35.5-93.4,35.5-129,0c-14.8-14.7-23.4-33.2-25.9-52.3L100,191.4
			c6.1,17.6,16.1,34.1,30.2,48.1c25.3,25.2,58.7,37.5,91.9,37c31.8-0.5,63.5-12.9,87.7-37l93.6-93.3l8.4-58.8L401.8,97.4z"/>
		
			<linearGradient id="SVGID_2_" gradientUnits="userSpaceOnUse" x1="316.0125" y1="118.7925" x2="212.1875" y2="222.6175" gradientTransform="matrix(1 0 0 -1 0 302)">
			<stop  offset="0" style="stop-color:#8095B0"/>
			<stop  offset="1" style="stop-color:#002B62"/>
		</linearGradient>
		<path class="st3" d="M352.8,95.8l-93.6,93.3c-21.6,21.6-56.8,21.6-78.4,0s-21.6-56.6,0-78.2L129.6,162
			c2.5,19.1,11.2,37.6,25.9,52.3c35.6,35.5,93.4,35.5,129,0l70.4-70.2c4.6-4.6,7-13.8,7-23.1c0-0.2,0-0.4,0-0.6
			c0-9.3-2.4-18.5-7-23.1c4.6,4.6,13.9,7,23.2,7c0.2,0,0.4,0,0.6,0c9.3-0.1,18.5-2.4,23.2-7l10-10L352.8,95.8z"/>
		<path class="st4" d="M384.8,114.3c-3-3-5.4-6.7-6.2-9.9c-0.2,0-0.4,0-0.6,0c-1.5,6.5-9.6,14.6-16.1,16.1c0,0.2,0,0.4,0,0.6
			c3.3,0.8,6.9,3.2,9.9,6.2c3,3,5.4,6.7,6.2,9.9c0.2,0,0.4,0,0.6,0c1.5-6.5,9.6-14.6,16.1-16.1c0-0.2,0-0.4,0-0.6
			C391.5,119.7,387.8,117.3,384.8,114.3z"/>
		
			<linearGradient id="SVGID_3_" gradientUnits="userSpaceOnUse" x1="240.5051" y1="93.935" x2="111.425" y2="223.015" gradientTransform="matrix(1 0 0 -1 0 302)">
			<stop  offset="0" style="stop-color:#002B62"/>
			<stop  offset="1" style="stop-color:#8095B0"/>
		</linearGradient>
		<path class="st5" d="M309.8,60.5c-25.3-25.2-58.7-37.5-91.9-37c-31.8,0.5-63.5,12.8-87.7,37l-93.6,93.3l-8.4,58.9l10-10
			c4.6-4.6,7-13.8,7-23.1c0-0.2,0-0.4,0-0.6c0-9.3-2.4-18.5-7-23.1c4.6,4.6,13.9,7,23.2,7c0.2,0,0.4,0,0.6,0
			c9.3-0.1,18.5-2.4,23.2-7l12.2-12.1l58.2-58c35.6-35.5,93.4-35.5,129,0c14.8,14.7,23.4,33.2,25.9,52.3l29.6-29.5
			C333.9,91,323.9,74.5,309.8,60.5z"/>
		
			<linearGradient id="SVGID_4_" gradientUnits="userSpaceOnUse" x1="227.8125" y1="81.3625" x2="123.9875" y2="185.1875" gradientTransform="matrix(1 0 0 -1 0 302)">
			<stop  offset="0" style="stop-color:#8095B0"/>
			<stop  offset="1" style="stop-color:#002B62"/>
		</linearGradient>
		<path class="st6" d="M310.4,138c-2.5-19.1-11.2-37.6-25.9-52.3c-35.6-35.5-93.4-35.5-129,0l-70.4,70.2c-4.6,4.6-7,13.8-7,23.1
			c0,0.2,0,0.4,0,0.6c0.1,9.3,2.4,18.5,7,23.1c-4.6-4.6-13.9-7-23.2-7c-0.2,0-0.4,0-0.6,0c-9.3,0.1-18.5,2.4-23.2,7l-10,10l59-8.4
			l93.6-93.3c21.6-21.6,56.8-21.6,78.4,0c21.6,21.6,21.6,56.6,0,78.2L310.4,138z"/>
		<path class="st4" d="M68.2,172.8c-3-3-5.4-6.7-6.2-9.9c-0.2,0-0.4,0-0.6,0c-1.5,6.5-9.6,14.6-16.1,16.1c0,0.2,0,0.4,0,0.6
			c3.3,0.8,6.9,3.1,9.9,6.2c3,3,5.4,6.7,6.2,9.9c0.2,0,0.4,0,0.6,0c1.5-6.5,9.6-14.6,16.1-16.1c0-0.2,0-0.4,0-0.6
			C74.8,178.2,71.2,175.8,68.2,172.8z"/>
	</g>
</g>
</svg>
