<?xml version="1.0" encoding="utf-8"?>
<!-- Generator: Adobe Illustrator 23.0.3, SVG Export Plug-In . SVG Version: 6.00 Build 0)  -->
<svg version="1.1" id="レイヤー_1" xmlns="http://www.w3.org/2000/svg" xmlns:xlink="http://www.w3.org/1999/xlink" x="0px"
	 y="0px" viewBox="0 0 820 200" style="enable-background:new 0 0 820 200;" xml:space="preserve">
<style type="text/css">
	.st0{fill:#002B62;}
</style>
<g>
	<path class="st0" d="M651.41,38.46c-15.26,0-31.07,9.03-39.4,20.59V38.46h-32.85v143.42h32.85v-46.58
		c0-38.3,10.32-64.09,39.4-64.09V38.46z"/>
	<path class="st0" d="M368.06,149.13c-0.32-0.38-0.8-1.22-0.8-2.84v-0.11V92.43v-6.8c0-25.09-19.7-45.61-44.47-47.16H280.4v32.75
		l42.39,0.16c6.63,1.38,11.62,7.24,11.62,14.25l-0.63,1.79h-32.61c-15.61,0-32.45,13.61-32.45,35.59v23.28
		c0,21.99,16.85,35.59,32.45,35.59h33.63c5.45,0,11.04-1.69,16.03-4.79c4.98,3.1,10.57,4.79,16.03,4.79h13.05v-32.75H368.06z
		 M334.41,146.18v0.11c0,1.62-0.48,2.46-0.8,2.84h-31.24c-0.32-0.38-0.8-1.22-0.8-2.84v-23.28c0-1.62,0.48-2.46,0.8-2.84h32.04
		V146.18z"/>
	<path class="st0" d="M535.8,18.11h-32.85v20.35h-15.48v32.75h15.48v75.07c0,21.99,16.85,35.59,32.45,35.59h28.2v-32.75h-27
		c-0.32-0.38-0.8-1.22-0.8-2.84V71.22h27.8V38.46h-27.8V18.11z"/>
	<path class="st0" d="M440.23,87.41l-17.54,0.16c-4.52,0-8.2-3.67-8.2-8.18c0-4.51,3.68-8.18,8.2-8.18h49.24V38.47h-49.24
		c-22.64,0-41.05,18.36-41.05,40.93s18.41,40.93,41.05,40.93l17.54,0c6.63,1.38,11.62,7.24,11.62,14.25
		c0,8.03-6.55,14.56-14.6,14.56h-41.79v32.75h41.79c26.17,0,47.45-21.23,47.45-47.31C484.7,109.48,465,88.96,440.23,87.41z"/>
	<polygon class="st0" points="266.36,38.47 226.03,38.47 205.37,74.76 184.71,38.47 144.38,38.47 185.2,110.18 144.38,181.89 
		184.71,181.89 205.37,145.59 226.03,181.89 266.36,181.89 225.53,110.18 	"/>
	<polygon class="st0" points="130.1,50.87 130.1,18.11 22.83,18.11 22.83,181.89 130.1,181.89 130.1,149.13 61.26,149.13 
		61.26,116.38 119.6,116.38 119.6,83.62 61.26,83.62 61.26,50.87 	"/>
	<path class="st0" d="M725.25,38.46c-39.72,0-71.92,32.11-71.92,71.71c0,39.6,32.2,71.71,71.92,71.71s71.92-32.11,71.92-71.71
		C797.17,70.57,764.97,38.46,725.25,38.46z M745.62,119.46l12.59,38.63l-32.96-23.87l-32.96,23.87l12.59-38.63l-32.96-23.87h40.74
		l12.59-38.63l12.59,38.63h40.74L745.62,119.46z"/>
</g>
</svg>
