<?xml version="1.0" encoding="utf-8"?>
<!-- Generator: Adobe Illustrator 23.0.3, SVG Export Plug-In . SVG Version: 6.00 Build 0)  -->
<svg version="1.1" id="レイヤー_1" xmlns="http://www.w3.org/2000/svg" xmlns:xlink="http://www.w3.org/1999/xlink" x="0px"
	 y="0px" viewBox="0 0 440 300" style="enable-background:new 0 0 440 300;" xml:space="preserve">
<style type="text/css">
	.st0{fill:#002B62;}
</style>
<g>
	<polygon class="st0" points="228.85,138.57 219.95,111.19 211.05,138.57 182.26,138.57 205.55,155.49 196.66,182.87 219.95,165.95 
		243.24,182.87 234.34,155.49 257.64,138.57 	"/>
	<path class="st0" d="M395.56,109.04c-0.85,3.58-1.31,7.49-1.33,11.44c-3.25-0.77-6.89-3.15-9.91-6.17
		c-3.03-3.03-5.4-6.66-6.17-9.91c3.94-0.02,7.86-0.48,11.43-1.33l14.69-14.69l-51.87,7.41l-93.32,93.32
		c-2.04,2.04-4.23,3.82-6.49,5.47c-21.61,15.82-52.18,14.04-71.69-5.47c-13.96-13.96-18.82-33.57-14.7-51.52l-30.94,30.94
		c3.51,16.23,11.51,30.91,23.41,42.81c16.38,16.38,38.16,25.4,61.32,25.4c23.17,0,44.94-9.02,61.32-25.4l78.83-78.83
		c0.85-3.58,1.31-7.49,1.33-11.44c3.25,0.77,6.89,3.15,9.91,6.17c3.03,3.03,5.4,6.66,6.17,9.91c-3.95,0.02-7.86,0.48-11.44,1.33
		L287.3,217.3c-17.98,17.98-41.88,27.88-67.3,27.88c-25.42,0-49.33-9.9-67.3-27.88c-11.79-11.79-19.99-26.12-24.31-41.91
		l-24.65,24.65c6.15,14.35,15.03,27.79,26.73,39.49c25.21,25.21,58.51,37.54,91.62,37c31.72-0.52,63.29-12.85,87.44-37l93.32-93.32
		l7.41-51.87L395.56,109.04z M361.49,120.48c-0.03-6.14-1.09-12.23-3.14-17c-1.04-2.42-2.31-4.53-3.87-6.09
		c2.32,2.32,5.8,4.06,9.85,5.23c4.03,1.16,8.63,1.75,13.24,1.77C376.03,110.89,367.98,118.94,361.49,120.48z M378.15,137.14
		c1.54-6.5,9.59-14.55,16.09-16.09c0.05,9.25,2.38,18.46,7,23.09C396.61,139.51,387.4,137.19,378.15,137.14z"/>
	<path class="st0" d="M180.9,110.91c0,0,4.24-3.83,6.49-5.48c21.61-15.82,52.18-14.04,71.7,5.47c13.96,13.96,18.82,33.57,14.7,51.52
		l30.94-30.94c-3.51-16.23-11.51-30.91-23.41-42.81c-16.38-16.38-38.16-25.4-61.32-25.4c-23.17,0-44.94,9.02-61.32,25.4
		l-78.83,78.83c-0.85,3.58-1.31,7.49-1.33,11.44c-3.25-0.77-6.89-3.15-9.91-6.17c-3.03-3.03-5.4-6.66-6.17-9.91
		c3.95-0.02,7.86-0.48,11.44-1.33L152.7,82.7c17.98-17.98,41.88-27.88,67.3-27.88c25.42,0,49.33,9.9,67.3,27.88
		c11.79,11.79,19.99,26.12,24.31,41.91l24.65-24.65c-6.15-14.35-15.03-27.79-26.73-39.49c-25.21-25.21-58.51-37.54-91.62-37
		c-31.72,0.52-63.29,12.85-87.44,37l-93.32,93.32l-7.41,51.87l14.69-14.69c0.85-3.58,1.31-7.49,1.33-11.44
		c3.25,0.77,6.89,3.15,9.91,6.17c3.03,3.03,5.4,6.66,6.17,9.91c-3.94,0.02-7.86,0.48-11.43,1.33l-14.69,14.69l51.87-7.41
		C87.59,204.22,180.91,110.91,180.9,110.91z M45.77,178.95c-0.05-9.25-2.38-18.46-7-23.09c4.63,4.63,13.84,6.96,23.09,7
		C60.32,169.36,52.27,177.41,45.77,178.95z M75.67,197.38c-4.03-1.16-8.63-1.75-13.24-1.77c1.54-6.5,9.59-14.55,16.09-16.09
		c0.03,6.14,1.09,12.23,3.14,17c1.04,2.42,2.31,4.53,3.87,6.09C83.2,200.29,79.72,198.55,75.67,197.38z"/>
</g>
</svg>
