<?xml version="1.0" encoding="utf-8"?>
<!-- Generator: Adobe Illustrator 23.0.3, SVG Export Plug-In . SVG Version: 6.00 Build 0)  -->
<svg version="1.1" id="レイヤー_1" xmlns="http://www.w3.org/2000/svg" xmlns:xlink="http://www.w3.org/1999/xlink" x="0px"
	 y="0px" viewBox="0 0 1280 300" style="enable-background:new 0 0 1280 300;" xml:space="preserve">
<style type="text/css">
	.st0{fill:none;}
	.st1{fill:#002B62;}
	.st2{fill:#FFFFFF;}
	.st3{fill:url(#SVGID_1_);}
	.st4{fill:url(#SVGID_2_);}
	.st5{fill:#8095B0;}
	.st6{fill:url(#SVGID_3_);}
	.st7{fill:url(#SVGID_4_);}
</style>
<rect class="st0" width="1280" height="300"/>
<g>
	<g>
		<path class="st1" d="M1095.24,88.46c-15.26,0-31.07,9.03-39.4,20.59V88.46h-32.85v143.42h32.85v-46.58
			c0-38.3,10.32-64.09,39.4-64.09V88.46z"/>
		<path class="st1" d="M811.89,199.13c-0.32-0.38-0.8-1.22-0.8-2.84v-0.11v-53.76v-6.8c0-25.09-19.7-45.61-44.47-47.16h-42.39v32.75
			l42.39,0.16c6.63,1.38,11.62,7.24,11.62,14.25l-0.63,1.79h-32.61c-15.61,0-32.45,13.61-32.45,35.59v23.28
			c0,21.99,16.85,35.59,32.45,35.59h33.63c5.45,0,11.04-1.69,16.03-4.79c4.98,3.1,10.57,4.79,16.03,4.79h13.05v-32.75H811.89z
			 M778.24,196.18v0.11c0,1.62-0.48,2.46-0.8,2.84H746.2c-0.32-0.38-0.8-1.22-0.8-2.84v-23.28c0-1.62,0.48-2.46,0.8-2.84h32.04
			V196.18z"/>
		<path class="st1" d="M979.63,68.11h-32.85v20.35H931.3v32.75h15.48v75.07c0,21.99,16.85,35.59,32.45,35.59h28.2v-32.75h-27
			c-0.32-0.38-0.8-1.22-0.8-2.84v-75.07h27.8V88.46h-27.8V68.11z"/>
		<path class="st1" d="M884.05,137.41l-17.54,0.16c-4.52,0-8.2-3.67-8.2-8.18s3.68-8.18,8.2-8.18h49.24V88.47h-49.24
			c-22.64,0-41.05,18.36-41.05,40.93s18.41,40.93,41.05,40.93l17.54,0c6.63,1.38,11.62,7.24,11.62,14.25
			c0,8.03-6.55,14.56-14.6,14.56h-41.79v32.75h41.79c26.17,0,47.45-21.23,47.45-47.31C928.53,159.48,908.83,138.96,884.05,137.41z"
			/>
		<polygon class="st1" points="710.18,88.47 669.86,88.47 649.19,124.76 628.53,88.47 588.2,88.47 629.03,160.18 588.2,231.89 
			628.53,231.89 649.19,195.59 669.86,231.89 710.18,231.89 669.36,160.18 		"/>
		<polygon class="st1" points="573.93,100.87 573.93,68.11 466.65,68.11 466.65,231.89 573.93,231.89 573.93,199.13 505.09,199.13 
			505.09,166.38 563.43,166.38 563.43,133.62 505.09,133.62 505.09,100.87 		"/>
		<path class="st1" d="M1169.08,88.46c-39.72,0-71.92,32.11-71.92,71.71c0,39.6,32.2,71.71,71.92,71.71
			c39.72,0,71.92-32.11,71.92-71.71C1241,120.57,1208.8,88.46,1169.08,88.46z M1189.45,169.46l12.59,38.63l-32.96-23.87
			l-32.96,23.87l12.59-38.63l-32.96-23.87h40.74l12.59-38.63l12.59,38.63h40.74L1189.45,169.46z"/>
	</g>
	<g>
		<path class="st2" d="M388.86,104.39c-1.54,6.5-9.62,14.55-16.13,16.09c-0.05-9.25-2.38-18.46-7.02-23.09
			C370.34,102.02,379.58,104.34,388.86,104.39z"/>
		<polygon class="st2" points="254.13,182.87 230.77,165.95 207.41,182.87 216.33,155.49 192.97,138.57 221.85,138.57 
			230.77,111.19 239.69,138.57 268.57,138.57 245.21,155.49 		"/>
		<path class="st2" d="M72.21,162.86c-1.54,6.5-9.62,14.55-16.13,16.09c-0.05-9.25-2.38-18.46-7.02-23.09
			C53.69,160.49,62.92,162.81,72.21,162.86z"/>
		<path class="st2" d="M49.05,202.61c4.64-4.63,6.98-13.84,7.02-23.09c3.26,0.77,6.91,3.15,9.94,6.17c3.03,3.03,5.42,6.66,6.19,9.91
			C62.93,195.66,53.69,197.98,49.05,202.61z"/>
		<path class="st2" d="M72.78,195.61c1.54-6.5,9.62-14.55,16.13-16.09c0.05,9.25,2.38,18.46,7.02,23.09
			C91.3,197.98,82.06,195.66,72.78,195.61z"/>
		<path class="st2" d="M88.92,178.95c-3.26-0.77-6.91-3.15-9.94-6.17c-3.03-3.03-5.42-6.66-6.19-9.91c9.28-0.05,18.52-2.38,23.16-7
			C91.3,160.49,88.96,169.69,88.92,178.95z"/>
		<path class="st2" d="M365.7,144.14c4.64-4.63,6.98-13.84,7.02-23.09c3.26,0.77,6.91,3.15,9.94,6.17c3.03,3.03,5.42,6.66,6.19,9.91
			C379.58,137.19,370.34,139.51,365.7,144.14z"/>
		<path class="st2" d="M389.43,137.14c1.54-6.5,9.62-14.55,16.13-16.09c0.05,9.25,2.38,18.46,7.02,23.09
			C407.95,139.51,398.72,137.19,389.43,137.14z"/>
		<path class="st2" d="M405.57,120.48c-3.26-0.77-6.91-3.15-9.94-6.17c-3.03-3.03-5.42-6.66-6.19-9.91c9.28-0.05,18.52-2.38,23.16-7
			C407.95,102.02,405.61,111.22,405.57,120.48z"/>
		<polygon class="st2" points="140.37,162 140.37,162.01 139.54,162.82 		"/>
		<path class="st1" d="M179.4,201.42c-28.21-28.38-28.21-74.47,0-102.85c28.38-28.21,74.47-28.21,102.85,0
			c28.21,28.38,28.21,74.47,0,102.85C253.87,229.64,207.77,229.64,179.4,201.42z M221.85,138.57h-28.88l23.36,16.92l-8.92,27.38
			l23.36-16.92l23.36,16.92l-8.92-27.38l23.36-16.92h-28.88l-8.92-27.38L221.85,138.57z"/>
		<linearGradient id="SVGID_1_" gradientUnits="userSpaceOnUse" x1="339.4029" y1="221.0223" x2="210.3318" y2="91.9513">
			<stop  offset="0" style="stop-color:#002B62"/>
			<stop  offset="1" style="stop-color:#8095B0"/>
		</linearGradient>
		<path class="st3" d="M412.59,97.39c-4.64,4.63-6.98,13.84-7.02,23.09c0,0.19,0,0.38,0,0.57c0.05,9.25,2.38,18.46,7.02,23.09
			c-4.64-4.63-13.88-6.96-23.16-7c-0.19,0-0.38,0-0.58,0c-9.28,0.05-18.52,2.38-23.16,7l-70.38,70.17
			c-35.62,35.52-93.38,35.52-129,0c-14.75-14.71-23.39-33.2-25.92-52.34l-29.56,29.47c6.08,17.58,16.13,34.08,30.18,48.09
			c25.29,25.21,58.68,37.54,91.89,37c31.82-0.52,63.48-12.85,87.7-37l93.59-93.32l8.43-58.85L412.59,97.39z"/>
		<linearGradient id="SVGID_2_" gradientUnits="userSpaceOnUse" x1="326.8238" y1="183.1855" x2="223.0042" y2="79.3659">
			<stop  offset="0" style="stop-color:#8095B0"/>
			<stop  offset="1" style="stop-color:#002B62"/>
		</linearGradient>
		<path class="st4" d="M363.62,95.78l-93.59,93.32c-21.62,21.56-56.8,21.56-78.41,0s-21.62-56.63,0-78.18l-51.22,51.07
			c2.54,19.14,11.17,37.63,25.92,52.34c35.62,35.52,93.38,35.52,129,0l70.38-70.17c4.64-4.63,6.98-13.84,7.02-23.09
			c0-0.19,0-0.38,0-0.57c-0.05-9.25-2.38-18.46-7.02-23.09c4.64,4.63,13.88,6.96,23.16,7c0.19,0,0.38,0,0.58,0
			c9.28-0.05,18.52-2.38,23.16-7l10.05-10.02L363.62,95.78z"/>
		<path class="st5" d="M395.62,114.31c-3.03-3.03-5.42-6.66-6.19-9.91c-0.19,0-0.38,0-0.58,0c-1.54,6.5-9.62,14.55-16.13,16.09
			c0,0.19,0,0.38,0,0.57c3.26,0.77,6.91,3.15,9.94,6.17c3.03,3.03,5.42,6.66,6.19,9.91c0.19,0,0.38,0,0.58,0
			c1.54-6.5,9.62-14.55,16.13-16.09c0-0.19,0-0.38,0-0.57C402.31,119.71,398.66,117.33,395.62,114.31z"/>
		<linearGradient id="SVGID_3_" gradientUnits="userSpaceOnUse" x1="251.3081" y1="208.0486" x2="122.2371" y2="78.9777">
			<stop  offset="0" style="stop-color:#002B62"/>
			<stop  offset="1" style="stop-color:#8095B0"/>
		</linearGradient>
		<path class="st6" d="M320.62,60.47c-25.29-25.21-58.68-37.54-91.89-37c-31.82,0.52-63.48,12.85-87.7,37l-93.59,93.32L39,212.63
			l10.05-10.02c4.64-4.63,6.98-13.84,7.02-23.09c0-0.19,0-0.38,0-0.57c-0.05-9.25-2.38-18.46-7.02-23.09
			c4.64,4.63,13.88,6.96,23.16,7c0.19,0,0.38,0,0.58,0c9.28-0.05,18.52-2.38,23.16-7l12.19-12.15l58.19-58.02
			c35.62-35.52,93.38-35.52,129,0c14.75,14.71,23.39,33.2,25.92,52.34l29.56-29.47C344.72,90.98,334.67,74.48,320.62,60.47z"/>
		<linearGradient id="SVGID_4_" gradientUnits="userSpaceOnUse" x1="238.6357" y1="220.6339" x2="134.8163" y2="116.8145">
			<stop  offset="0" style="stop-color:#8095B0"/>
			<stop  offset="1" style="stop-color:#002B62"/>
		</linearGradient>
		<path class="st7" d="M321.24,138.03c-2.54-19.14-11.17-37.63-25.92-52.34c-35.62-35.52-93.38-35.52-129,0l-70.38,70.17
			c-4.64,4.63-6.98,13.84-7.02,23.09c0,0.19,0,0.38,0,0.57c0.05,9.25,2.38,18.46,7.02,23.09c-4.64-4.63-13.88-6.96-23.16-7
			c-0.19,0-0.38,0-0.58,0c-9.28,0.05-18.52,2.38-23.16,7L39,212.63l59.02-8.41l93.59-93.32c21.62-21.56,56.8-21.56,78.41,0
			c21.62,21.56,21.62,56.63,0,78.18L321.24,138.03z"/>
		<path class="st5" d="M78.97,172.78c-3.03-3.03-5.42-6.66-6.19-9.91c-0.19,0-0.38,0-0.58,0c-1.54,6.5-9.62,14.55-16.13,16.09
			c0,0.19,0,0.38,0,0.57c3.26,0.77,6.91,3.15,9.94,6.17c3.03,3.03,5.42,6.66,6.19,9.91c0.19,0,0.38,0,0.58,0
			c1.54-6.5,9.62-14.55,16.13-16.09c0-0.19,0-0.38,0-0.57C85.66,178.18,82.01,175.8,78.97,172.78z"/>
	</g>
</g>
</svg>
