<?xml version="1.0" encoding="utf-8"?>
<!-- Generator: Adobe Illustrator 23.1.0, SVG Export Plug-In . SVG Version: 6.00 Build 0)  -->
<svg version="1.1" id="レイヤー_1" xmlns="http://www.w3.org/2000/svg" xmlns:xlink="http://www.w3.org/1999/xlink" x="0px"
	 y="0px" width="818px" height="300px" viewBox="0 0 818 300" style="enable-background:new 0 0 818 300;" xml:space="preserve">
<style type="text/css">
	.st0{fill:none;}
	.st1{fill:#FFFFFF;}
	.st2{fill:#D3D3D4;}
</style>
<rect class="st0" width="818" height="300"/>
<g>
	<g>
		<path class="st1" d="M596.29,41.81c-13.52,0-27.53,8-34.91,18.24V41.81h-29.1v127.06h29.1V127.6c0-33.93,9.14-56.78,34.91-56.78
			V41.81z"/>
		<path class="st1" d="M345.27,139.85c-0.28-0.34-0.71-1.08-0.71-2.52v-0.1V89.61v-6.03c0-22.22-17.45-40.41-39.4-41.78H267.6v29.02
			l37.56,0.14c5.87,1.22,10.3,6.41,10.3,12.62l-0.55,1.59h-28.89c-13.83,0-28.75,12.05-28.75,31.53v20.63
			c0,19.48,14.92,31.53,28.75,31.53h29.8c4.83,0,9.78-1.5,14.2-4.25c4.42,2.75,9.37,4.25,14.2,4.25h11.56v-29.02H345.27z
			 M315.45,137.24v0.1c0,1.43-0.42,2.18-0.71,2.52h-27.68c-0.28-0.34-0.71-1.08-0.71-2.52v-20.63c0-1.43,0.42-2.18,0.71-2.52h28.38
			V137.24z"/>
		<path class="st1" d="M493.87,23.78h-29.1v18.03h-13.71v29.02h13.71v66.51c0,19.48,14.92,31.53,28.75,31.53h24.98v-29.02h-23.92
			c-0.28-0.34-0.71-1.08-0.71-2.52V70.82h24.63V41.81h-24.63V23.78z"/>
		<path class="st1" d="M409.2,85.17l-15.54,0.14c-4.01,0-7.27-3.25-7.27-7.25c0-4,3.26-7.25,7.27-7.25h43.63V41.81h-43.63
			c-20.06,0-36.37,16.26-36.37,36.26s16.31,36.26,36.37,36.26l15.54,0c5.87,1.22,10.3,6.41,10.3,12.62c0,7.11-5.8,12.9-12.93,12.9
			h-37.02v29.02h37.02c23.18,0,42.04-18.81,42.04-41.92C448.6,104.72,431.15,86.54,409.2,85.17z"/>
		<polygon class="st1" points="255.16,41.81 219.43,41.81 201.13,73.96 182.83,41.81 147.1,41.81 183.27,105.34 147.1,168.87 
			182.83,168.87 201.13,136.71 219.43,168.87 255.16,168.87 218.99,105.34 		"/>
		<polygon class="st1" points="134.45,52.8 134.45,23.78 39.41,23.78 39.41,168.87 134.45,168.87 134.45,139.85 73.46,139.85 
			73.46,110.83 125.15,110.83 125.15,81.81 73.46,81.81 73.46,52.8 		"/>
		<path class="st1" d="M661.71,41.81c-35.19,0-63.72,28.44-63.72,63.53c0,35.09,28.53,63.53,63.72,63.53s63.72-28.44,63.72-63.53
			C725.42,70.25,696.9,41.81,661.71,41.81z M679.75,113.56l11.15,34.22l-29.2-21.15l-29.2,21.15l11.15-34.22l-29.2-21.15h36.09
			l11.15-34.22l11.15,34.22h36.09L679.75,113.56z"/>
	</g>
	<g>
		<path class="st2" d="M378.3,215.65c0,11.99-6.08,18.11-14.63,18.11c-9.08,0-14.22-7.6-14.22-17.58c0-10.29,5.68-17.84,14.67-17.84
			C373.65,198.34,378.3,206.48,378.3,215.65z M356.39,216.05c0,6.75,2.64,12.3,7.51,12.3c4.92,0,7.47-5.5,7.47-12.43
			c0-6.31-2.37-12.17-7.43-12.17C358.76,203.75,356.39,209.75,356.39,216.05z"/>
		<path class="st2" d="M388.85,211.76c1.61-2.55,4.16-3.93,7.38-3.93c5.46,0,9.48,5.1,9.48,12.75c0,9.17-5.19,13.19-10.24,13.19
			c-2.73,0-4.83-1.25-5.9-2.91h-0.09v12.39h-6.62V216.5c0-3.22-0.09-5.86-0.18-8.14h5.77l0.31,3.4H388.85z M389.47,223.21
			c0,3.62,2.19,5.37,4.43,5.37c3.36,0,5.1-3.31,5.1-7.78c0-4.43-1.7-7.65-4.96-7.65c-2.55,0-4.56,2.42-4.56,5.41V223.21z"/>
		<path class="st2" d="M429.02,232.29c-2.06,0.89-4.96,1.43-8.05,1.43c-7.69,0-12.08-4.83-12.08-12.57
			c0-7.16,4.11-13.33,11.41-13.33c6.04,0,9.97,4.29,9.97,12.34c0,0.98-0.04,1.92-0.18,2.64H415.2c0.18,4.25,3.22,5.95,6.8,5.95
			c2.46,0,4.38-0.45,6.08-1.03L429.02,232.29z M424.14,218.2c0.04-2.59-0.98-5.77-4.25-5.77c-3.18,0-4.52,3.31-4.7,5.77H424.14z"/>
		<path class="st2" d="M448.31,214.26c-0.49-0.09-1.03-0.14-1.7-0.14c-3,0-5.28,2.01-5.28,6.26v12.88h-6.62v-17.13
			c0-3.09-0.09-5.55-0.18-7.78h5.68l0.27,4.34h0.18c1.16-3.22,3.85-4.88,6.17-4.88c0.63,0,1.03,0.04,1.48,0.13V214.26z"/>
		<path class="st2" d="M470.16,227.37c0,2.19,0.09,4.38,0.36,5.9h-5.95l-0.4-2.59h-0.13c-1.43,1.97-3.85,3.09-6.62,3.09
			c-4.61,0-7.47-3.44-7.47-7.47c0-6.4,5.68-9.39,13.6-9.39c0-2.46-0.85-4.34-4.47-4.34c-2.28,0-4.52,0.72-6.13,1.7l-1.25-4.29
			c1.65-0.98,4.74-2.1,8.63-2.1c7.74,0,9.84,4.92,9.84,10.38V227.37z M463.72,221.15c-3.58,0-7.29,0.85-7.29,4.47
			c0,2.37,1.48,3.4,3.13,3.4c1.57,0,4.16-1.12,4.16-4.29V221.15z"/>
		<path class="st2" d="M476.47,203.8l6.53-1.92v6.49h5.5v4.88H483v10.82c0,3,0.94,4.25,2.95,4.25c0.94,0,1.48-0.09,2.15-0.22
			l0.09,5.06c-0.9,0.36-2.51,0.58-4.43,0.58c-7.16,0-7.29-6.22-7.29-8.99v-11.49h-3.27v-4.88h3.27V203.8z"/>
		<path class="st2" d="M495.54,205.09c-2.1,0-3.53-1.52-3.53-3.53c0-2.06,1.47-3.53,3.53-3.53c2.15,0,3.58,1.47,3.58,3.53
			C499.12,203.71,497.6,205.09,495.54,205.09z M498.89,233.27h-6.62v-24.91h6.62V233.27z"/>
		<path class="st2" d="M526.35,220.62c0,9.48-6.08,13.15-11.63,13.15c-6.71,0-11.54-4.74-11.54-12.84c0-8.36,5.05-13.1,11.81-13.1
			C521.97,207.82,526.35,213.06,526.35,220.62z M514.86,212.7c-3.67,0-4.96,4.29-4.96,8.09c0,4.43,1.7,8.1,4.92,8.1
			c3.13,0,4.83-3.71,4.83-8.14C519.64,216.86,518.26,212.7,514.86,212.7z"/>
		<path class="st2" d="M552.09,233.27h-6.62v-14.54c0-3.04-0.98-5.46-3.8-5.46c-1.79,0-4.25,1.39-4.25,5.19v14.8h-6.62v-17.4
			c0-2.91-0.09-5.28-0.18-7.47h5.72l0.31,3.35h0.13c1.12-1.83,3.58-3.89,7.2-3.89c4.56,0,8.09,3.18,8.09,10.15V233.27z"/>
		<path class="st2" d="M593.2,233.27h-6.93l-2.46-9.08h-9.21l-2.37,9.08h-6.71l9.75-34.39h8.32L593.2,233.27z M582.87,219.18
			l-2.06-7.83c-0.54-2.15-1.12-4.92-1.56-7.02h-0.14c-0.45,2.15-1.03,4.96-1.52,6.98l-2.06,7.87H582.87z"/>
		<path class="st2" d="M617.31,225.67c0,2.95,0.13,5.5,0.22,7.6h-5.77l-0.31-3.31h-0.13c-1.03,1.61-3.31,3.8-7.16,3.8
			c-4.74,0-7.96-3.09-7.96-10.56v-14.85h6.62v13.87c0,3.76,1.07,6.13,3.8,6.13c2.15,0,4.07-1.83,4.07-4.65v-15.34h6.62V225.67z"/>
		<path class="st2" d="M623.98,203.8l6.53-1.92v6.49h5.5v4.88h-5.5v10.82c0,3,0.94,4.25,2.95,4.25c0.94,0,1.48-0.09,2.15-0.22
			l0.09,5.06c-0.9,0.36-2.51,0.58-4.43,0.58c-7.16,0-7.29-6.22-7.29-8.99v-11.49h-3.27v-4.88h3.27V203.8z"/>
		<path class="st2" d="M661.19,220.62c0,9.48-6.08,13.15-11.63,13.15c-6.71,0-11.54-4.74-11.54-12.84c0-8.36,5.05-13.1,11.81-13.1
			C656.81,207.82,661.19,213.06,661.19,220.62z M649.7,212.7c-3.67,0-4.96,4.29-4.96,8.09c0,4.43,1.7,8.1,4.92,8.1
			c3.13,0,4.83-3.71,4.83-8.14C654.48,216.86,653.1,212.7,649.7,212.7z"/>
		<path class="st2" d="M686.93,233.27h-6.62v-14.54c0-3.04-0.98-5.46-3.8-5.46c-1.79,0-4.25,1.39-4.25,5.19v14.8h-6.62v-17.4
			c0-2.91-0.09-5.28-0.18-7.47h5.72l0.31,3.35h0.13c1.12-1.83,3.58-3.89,7.2-3.89c4.56,0,8.09,3.18,8.09,10.15V233.27z"/>
		<path class="st2" d="M714.3,220.62c0,9.48-6.08,13.15-11.63,13.15c-6.71,0-11.54-4.74-11.54-12.84c0-8.36,5.05-13.1,11.81-13.1
			C709.92,207.82,714.3,213.06,714.3,220.62z M702.81,212.7c-3.67,0-4.96,4.29-4.96,8.09c0,4.43,1.7,8.1,4.92,8.1
			c3.13,0,4.83-3.71,4.83-8.14C707.59,216.86,706.21,212.7,702.81,212.7z"/>
		<path class="st2" d="M753.23,233.27h-6.49v-14.09c0-3.58-0.99-5.95-3.62-5.95c-1.83,0-3.89,1.43-3.89,4.92v15.12h-6.48v-14.71
			c0-2.95-0.94-5.32-3.53-5.32c-1.83,0-3.98,1.7-3.98,5.05v14.98h-6.49v-17.4c0-2.91-0.09-5.28-0.18-7.47h5.64l0.31,3.31h0.14
			c1.16-1.79,3.35-3.85,7.07-3.85c3.04,0,5.37,1.61,6.35,4.16h0.09c2.06-3.04,4.61-4.16,7.38-4.16c4.34,0,7.69,3.09,7.69,10.29
			V233.27z"/>
		<path class="st2" d="M778.59,208.36l-5.64,17.31c-2.77,8.05-4.88,12.43-7.69,15.25c-2.42,2.32-4.96,3.22-6.44,3.49l-1.65-5.59
			c1.07-0.31,2.33-1.03,3.49-1.83c2.19-1.57,3.31-4.11,3.31-4.61c0-0.27-0.09-0.63-0.27-1.12l-8.36-22.9h7.25l3.67,13.02
			c0.4,1.52,0.85,3.27,1.16,4.65h0.14c0.27-1.34,0.67-3.09,1.03-4.65l3.13-13.02H778.59z"/>
		<path class="st2" d="M367.93,255.07c-1.21-0.63-3.31-1.48-6.13-1.48c-3.49,0-5.05,1.88-5.05,3.8c0,2.46,1.7,3.58,5.9,5.5
			c5.5,2.46,7.96,5.64,7.96,10.15c0,5.99-4.52,10.38-12.52,10.38c-3.4,0-6.84-0.94-8.45-1.92l1.3-5.55
			c1.79,1.07,4.65,1.92,7.42,1.92c3.67,0,5.59-1.75,5.59-4.29c0-2.46-1.65-3.94-5.46-5.59c-5.19-2.24-8.41-5.46-8.41-9.93
			c0-5.64,4.43-9.97,11.85-9.97c3.27,0,5.77,0.76,7.38,1.57L367.93,255.07z"/>
		<path class="st2" d="M395.56,275.38c0,2.95,0.13,5.5,0.22,7.6h-5.77l-0.31-3.31h-0.13c-1.03,1.61-3.31,3.8-7.16,3.8
			c-4.74,0-7.96-3.09-7.96-10.56v-14.85h6.62v13.87c0,3.76,1.07,6.13,3.8,6.13c2.15,0,4.07-1.83,4.07-4.65v-15.34h6.62V275.38z"/>
		<path class="st2" d="M407.3,261.47c1.61-2.55,4.16-3.93,7.38-3.93c5.46,0,9.48,5.1,9.48,12.75c0,9.17-5.19,13.19-10.24,13.19
			c-2.73,0-4.83-1.25-5.9-2.91h-0.09v12.39h-6.62v-26.75c0-3.22-0.09-5.86-0.18-8.14h5.77l0.31,3.4H407.3z M407.93,272.92
			c0,3.62,2.19,5.37,4.43,5.37c3.36,0,5.1-3.31,5.1-7.78c0-4.43-1.7-7.65-4.96-7.65c-2.55,0-4.56,2.42-4.56,5.41V272.92z"/>
		<path class="st2" d="M434.64,261.47c1.61-2.55,4.16-3.93,7.38-3.93c5.46,0,9.48,5.1,9.48,12.75c0,9.17-5.19,13.19-10.24,13.19
			c-2.73,0-4.83-1.25-5.9-2.91h-0.09v12.39h-6.62v-26.75c0-3.22-0.09-5.86-0.18-8.14h5.77l0.31,3.4H434.64z M435.27,272.92
			c0,3.62,2.19,5.37,4.43,5.37c3.36,0,5.1-3.31,5.1-7.78c0-4.43-1.7-7.65-4.96-7.65c-2.55,0-4.56,2.42-4.56,5.41V272.92z"/>
		<path class="st2" d="M477.82,270.32c0,9.48-6.08,13.15-11.63,13.15c-6.71,0-11.54-4.74-11.54-12.84c0-8.36,5.05-13.1,11.81-13.1
			C473.43,257.53,477.82,262.77,477.82,270.32z M466.32,262.41c-3.67,0-4.96,4.29-4.96,8.09c0,4.43,1.7,8.1,4.92,8.1
			c3.13,0,4.83-3.71,4.83-8.14C471.11,266.57,469.72,262.41,466.32,262.41z"/>
		<path class="st2" d="M495.86,263.97c-0.49-0.09-1.03-0.14-1.7-0.14c-3,0-5.28,2.01-5.28,6.26v12.88h-6.62v-17.13
			c0-3.09-0.09-5.55-0.18-7.78h5.68l0.27,4.34h0.18c1.16-3.22,3.85-4.88,6.17-4.88c0.63,0,1.03,0.04,1.48,0.13V263.97z"/>
		<path class="st2" d="M501.37,253.51l6.53-1.92v6.49h5.5v4.88h-5.5v10.82c0,3,0.94,4.25,2.95,4.25c0.94,0,1.48-0.09,2.15-0.22
			l0.09,5.06c-0.9,0.36-2.51,0.58-4.43,0.58c-7.16,0-7.29-6.22-7.29-8.99v-11.49h-3.27v-4.88h3.27V253.51z"/>
		<path class="st2" d="M546.77,282.98h-19.23v-34.39h18.52v5.55h-11.9v8.32h11.23v5.41h-11.23v9.57h12.61V282.98z"/>
		<path class="st2" d="M572.43,282.98h-6.62v-14.54c0-3.04-0.98-5.46-3.8-5.46c-1.79,0-4.25,1.39-4.25,5.19v14.8h-6.62v-17.4
			c0-2.91-0.09-5.28-0.18-7.47h5.72l0.31,3.35h0.13c1.12-1.83,3.58-3.89,7.2-3.89c4.56,0,8.09,3.18,8.09,10.15V282.98z"/>
		<path class="st2" d="M599.44,258.11c-0.14,1.79-0.22,3.98-0.22,7.42v14.05c0,4.88-0.45,13.91-12.57,13.91
			c-2.91,0-5.9-0.58-7.87-1.7l1.3-5.06c1.48,0.81,3.8,1.61,6.44,1.61c3.71,0,6.17-2.1,6.17-6.89v-1.83h-0.09
			c-1.25,1.97-3.49,3.18-6.22,3.18c-5.9,0-9.62-5.32-9.62-12.12c0-8.23,4.79-13.1,10.29-13.1c3.13,0,5.14,1.52,6.26,3.49h0.09
			l0.27-2.95H599.44z M592.59,267.78c0-3.18-1.92-5.01-4.16-5.01c-3,0-5.01,3.04-5.01,7.74c0,4.34,1.83,7.29,4.96,7.29
			c1.52,0,4.21-0.98,4.21-5.19V267.78z"/>
		<path class="st2" d="M608.18,254.8c-2.1,0-3.53-1.52-3.53-3.53c0-2.06,1.47-3.53,3.53-3.53c2.15,0,3.58,1.47,3.58,3.53
			C611.76,253.42,610.24,254.8,608.18,254.8z M611.54,282.98h-6.62v-24.91h6.62V282.98z"/>
		<path class="st2" d="M638.47,282.98h-6.62v-14.54c0-3.04-0.98-5.46-3.8-5.46c-1.79,0-4.25,1.39-4.25,5.19v14.8h-6.62v-17.4
			c0-2.91-0.09-5.28-0.18-7.47h5.72l0.31,3.35h0.13c1.12-1.83,3.58-3.89,7.2-3.89c4.56,0,8.09,3.18,8.09,10.15V282.98z"/>
		<path class="st2" d="M662.85,282c-2.06,0.89-4.96,1.43-8.05,1.43c-7.69,0-12.08-4.83-12.08-12.57c0-7.16,4.11-13.33,11.41-13.33
			c6.04,0,9.97,4.29,9.97,12.34c0,0.98-0.04,1.92-0.18,2.64h-14.89c0.18,4.25,3.22,5.95,6.8,5.95c2.46,0,4.38-0.45,6.08-1.03
			L662.85,282z M657.97,267.91c0.04-2.59-0.98-5.77-4.25-5.77c-3.18,0-4.52,3.31-4.7,5.77H657.97z"/>
	</g>
	<g>
		<path class="st1" d="M111.39,243.34c0,8.02-1.49,15.12-4.46,21.3c-2.97,6.18-7.2,10.93-12.68,14.26c-5.48,3.33-11.72,5-18.73,5
			s-13.22-1.61-18.64-4.83c-5.42-3.22-9.65-7.83-12.68-13.81c-3.03-5.99-4.62-12.86-4.77-20.62v-4.63c0-8.06,1.48-15.17,4.44-21.33
			c2.96-6.16,7.19-10.91,12.71-14.26c5.52-3.35,11.8-5.03,18.84-5.03c6.97,0,13.18,1.66,18.64,4.97c5.46,3.31,9.71,8.03,12.74,14.15
			c3.03,6.12,4.57,13.13,4.6,21.04V243.34z M91.22,239.9c0-8.17-1.37-14.38-4.1-18.61c-2.73-4.24-6.64-6.36-11.72-6.36
			c-9.94,0-15.2,7.46-15.76,22.37l-0.06,6.04c0,8.06,1.34,14.26,4.01,18.59c2.67,4.33,6.65,6.5,11.92,6.5
			c5.01,0,8.87-2.13,11.58-6.38c2.71-4.26,4.09-10.38,4.13-18.36V239.9z"/>
		<path class="st1" d="M163.44,267.41h-27.17l-4.75,15.37h-21.18l30.17-82.25h18.64l30.39,82.25h-21.3L163.44,267.41z M141.01,252.1
			h17.68l-8.87-28.53L141.01,252.1z"/>
		<path class="st1" d="M234.89,260.91c0-2.9-1.03-5.16-3.08-6.78c-2.05-1.62-5.66-3.3-10.82-5.03c-5.16-1.73-9.38-3.41-12.66-5.03
			c-10.66-5.23-15.99-12.43-15.99-21.58c0-4.56,1.33-8.58,3.98-12.06c2.66-3.48,6.41-6.19,11.27-8.14
			c4.86-1.94,10.32-2.91,16.38-2.91c5.91,0,11.21,1.05,15.9,3.16c4.69,2.11,8.33,5.11,10.93,9.01c2.6,3.9,3.9,8.35,3.9,13.36h-19.77
			c0-3.35-1.03-5.95-3.08-7.79c-2.05-1.85-4.83-2.77-8.33-2.77c-3.54,0-6.34,0.78-8.39,2.34c-2.05,1.56-3.08,3.55-3.08,5.96
			c0,2.11,1.13,4.02,3.39,5.73c2.26,1.71,6.23,3.48,11.92,5.31c5.69,1.83,10.36,3.79,14.01,5.9c8.89,5.12,13.33,12.18,13.33,21.18
			c0,7.19-2.71,12.84-8.13,16.95c-5.42,4.11-12.86,6.16-22.31,6.16c-6.67,0-12.7-1.2-18.11-3.59c-5.4-2.39-9.47-5.67-12.2-9.83
			c-2.73-4.16-4.1-8.95-4.1-14.38h19.88c0,4.41,1.14,7.65,3.42,9.74c2.28,2.09,5.98,3.14,11.1,3.14c3.28,0,5.87-0.71,7.77-2.12
			C233.94,265.46,234.89,263.47,234.89,260.91z"/>
		<path class="st1" d="M315.3,247.86h-31.18v19.66h36.83v15.25h-56.66v-82.25h56.77v15.31h-36.95v17.34h31.18V247.86z"/>
	</g>
</g>
</svg>
