<?xml version="1.0" encoding="utf-8"?>
<!-- Generator: Adobe Illustrator 23.1.0, SVG Export Plug-In . SVG Version: 6.00 Build 0)  -->
<svg version="1.1" id="レイヤー_1" xmlns="http://www.w3.org/2000/svg" xmlns:xlink="http://www.w3.org/1999/xlink" x="0px"
	 y="0px" width="1256px" height="300px" viewBox="0 0 1256 300" style="enable-background:new 0 0 1256 300;" xml:space="preserve">
<style type="text/css">
	.st0{fill:none;}
	.st1{fill:#FFFFFF;}
	.st2{fill:#CCCCCC;}
	.st3{fill:#00325F;}
	.st4{fill:url(#SVGID_1_);}
	.st5{fill:url(#SVGID_2_);}
	.st6{fill:#8099AF;}
	.st7{fill:url(#SVGID_3_);}
	.st8{fill:url(#SVGID_4_);}
</style>
<rect class="st0" width="1256" height="300"/>
<g>
	<path class="st1" d="M433,82.12c-0.3-0.6-0.7-1.2-1.1-1.8l0,0c-0.2-0.2-0.3-0.4-0.5-0.6c0-0.1-0.1-0.1-0.1-0.2
		c-0.1-0.1-0.3-0.3-0.4-0.4c-0.1-0.1-0.2-0.2-0.3-0.3c-0.1-0.1-0.2-0.2-0.3-0.3c-0.8-0.7-1.7-1.3-2.7-1.8c-0.1-0.1-0.3-0.1-0.4-0.2
		c-0.1,0-0.1-0.1-0.2-0.1c-1.5-0.6-3.1-1-4.7-1c-0.8,0-1.6,0.1-2.5,0.3l-58.1,8.3c-2.5,0.4-4.9,1.5-6.7,3.3l-0.4,0.4
		c-6.6-13.1-15.3-25.1-25.9-35.7c-26.2-26.1-61-40.5-98.2-40.5c-0.8,0-1.5,0-2.3,0c-36.3,0.6-70.3,15-95.9,40.5l-93.6,93.3
		c-1.8,1.8-3,4.2-3.4,6.7l-8.4,58.8c0,0.1,0,0.2,0,0.3c0,0.2,0,0.3-0.1,0.5c0,0.1,0,0.3,0,0.4c0,0.2,0,0.3,0,0.5c0,0.2,0,0.3,0,0.5
		c0,0.2,0,0.3,0,0.5c0,0.2,0,0.3,0.1,0.5c0,0.2,0,0.3,0.1,0.5c0,0.2,0.1,0.3,0.1,0.5c0,0.1,0.1,0.3,0.1,0.4c0,0.2,0.1,0.3,0.1,0.5
		c0,0.1,0.1,0.3,0.1,0.4c0.1,0.2,0.1,0.3,0.2,0.5c0.1,0.1,0.1,0.3,0.2,0.4c0.1,0.2,0.1,0.3,0.2,0.5c0,0.1,0.1,0.2,0.1,0.3
		c0,0,0,0.1,0.1,0.1c0.1,0.1,0.1,0.2,0.2,0.3s0.2,0.3,0.3,0.4c0.1,0.1,0.1,0.2,0.2,0.3c0.1,0.1,0.2,0.3,0.3,0.4
		c0.1,0.1,0.1,0.2,0.2,0.3c0.1,0.1,0.2,0.3,0.3,0.4c0.1,0.1,0.2,0.2,0.2,0.3c0.1,0.1,0.2,0.3,0.4,0.4c0.1,0.1,0.2,0.2,0.2,0.3
		c0.1,0.1,0.3,0.2,0.4,0.4c0.1,0.1,0.2,0.1,0.2,0.2c0.2,0.1,0.3,0.3,0.5,0.4c0.1,0,0.1,0.1,0.2,0.1c0.2,0.2,0.5,0.3,0.7,0.5
		c0.1,0,0.1,0.1,0.2,0.1c0.2,0.1,0.4,0.2,0.6,0.3h0.1c0,0,0.1,0,0.1,0.1c0.4,0.2,0.8,0.4,1.2,0.5l0,0c0.4,0.1,0.8,0.2,1.2,0.3
		c0.1,0,0.2,0,0.2,0.1c0.4,0.1,0.8,0.2,1.2,0.2c0.1,0,0.2,0,0.2,0c0.4,0,0.8,0.1,1.2,0.1l0,0l0,0l0,0c0.3,0,0.7,0,1,0
		c0.1,0,0.2,0,0.3,0c0.1,0,0.2,0,0.3,0l59-8.4c2.5-0.4,4.9-1.5,6.7-3.3l0.4-0.4c6.6,13.1,15.3,25.1,25.9,35.7
		c26.2,26.1,61.1,40.5,98.2,40.5c0.8,0,1.5,0,2.3,0c36.3-0.6,70.3-15,95.9-40.5l93.6-93.3c1.8-1.8,3-4.2,3.4-6.7l8.3-58.1
		C434.5,87.32,434.2,84.62,433,82.12z"/>
	<g>
		<path class="st1" d="M1034.58,41.81c-13.52,0-27.53,8-34.91,18.24V41.81h-29.1v127.06h29.1V127.6c0-33.93,9.14-56.78,34.91-56.78
			V41.81z"/>
		<path class="st1" d="M783.56,139.85c-0.28-0.34-0.71-1.08-0.71-2.52v-0.1V89.61v-6.03c0-22.22-17.45-40.41-39.4-41.78H705.9v29.02
			l37.56,0.14c5.87,1.22,10.3,6.41,10.3,12.62l-0.55,1.59h-28.89c-13.83,0-28.75,12.05-28.75,31.53v20.63
			c0,19.48,14.92,31.53,28.75,31.53h29.8c4.83,0,9.78-1.5,14.2-4.25c4.42,2.75,9.37,4.25,14.2,4.25h11.56v-29.02H783.56z
			 M753.75,137.24v0.1c0,1.43-0.42,2.18-0.71,2.52h-27.68c-0.28-0.34-0.71-1.08-0.71-2.52v-20.63c0-1.43,0.42-2.18,0.71-2.52h28.38
			V137.24z"/>
		<path class="st1" d="M932.17,23.78h-29.1v18.03h-13.71v29.02h13.71v66.51c0,19.48,14.92,31.53,28.75,31.53h24.98v-29.02h-23.92
			c-0.28-0.34-0.71-1.08-0.71-2.52V70.82h24.63V41.81h-24.63V23.78z"/>
		<path class="st1" d="M847.49,85.17l-15.54,0.14c-4.01,0-7.27-3.25-7.27-7.25c0-4,3.26-7.25,7.27-7.25h43.63V41.81h-43.63
			c-20.06,0-36.37,16.26-36.37,36.26s16.31,36.26,36.37,36.26l15.54,0c5.87,1.22,10.3,6.41,10.3,12.62c0,7.11-5.8,12.9-12.93,12.9
			h-37.02v29.02h37.02c23.18,0,42.04-18.81,42.04-41.92C886.89,104.72,869.44,86.54,847.49,85.17z"/>
		<polygon class="st1" points="693.46,41.81 657.73,41.81 639.43,73.96 621.12,41.81 585.39,41.81 621.56,105.34 585.39,168.87 
			621.12,168.87 639.43,136.71 657.73,168.87 693.46,168.87 657.29,105.34 		"/>
		<polygon class="st1" points="572.75,52.8 572.75,23.78 477.71,23.78 477.71,168.87 572.75,168.87 572.75,139.85 511.76,139.85 
			511.76,110.83 563.45,110.83 563.45,81.81 511.76,81.81 511.76,52.8 		"/>
		<path class="st1" d="M1100,41.81c-35.19,0-63.72,28.44-63.72,63.53c0,35.09,28.53,63.53,63.72,63.53s63.72-28.44,63.72-63.53
			C1163.72,70.25,1135.19,41.81,1100,41.81z M1118.05,113.56l11.15,34.22l-29.2-21.15l-29.2,21.15l11.15-34.22l-29.2-21.15h36.09
			L1100,58.19l11.15,34.22h36.09L1118.05,113.56z"/>
	</g>
	<g>
		<path class="st2" d="M816.6,215.65c0,11.99-6.08,18.11-14.63,18.11c-9.08,0-14.22-7.6-14.22-17.58c0-10.29,5.68-17.84,14.67-17.84
			C811.95,198.34,816.6,206.48,816.6,215.65z M794.68,216.05c0,6.75,2.64,12.3,7.51,12.3c4.92,0,7.47-5.5,7.47-12.43
			c0-6.31-2.37-12.17-7.43-12.17C797.05,203.75,794.68,209.75,794.68,216.05z"/>
		<path class="st2" d="M827.14,211.76c1.61-2.55,4.16-3.93,7.38-3.93c5.46,0,9.48,5.1,9.48,12.75c0,9.17-5.19,13.19-10.24,13.19
			c-2.73,0-4.83-1.25-5.9-2.91h-0.09v12.39h-6.62V216.5c0-3.22-0.09-5.86-0.18-8.14h5.77l0.31,3.4H827.14z M827.77,223.21
			c0,3.62,2.19,5.37,4.43,5.37c3.36,0,5.1-3.31,5.1-7.78c0-4.43-1.7-7.65-4.96-7.65c-2.55,0-4.56,2.42-4.56,5.41V223.21z"/>
		<path class="st2" d="M867.32,232.29c-2.06,0.89-4.96,1.43-8.05,1.43c-7.69,0-12.08-4.83-12.08-12.57
			c0-7.16,4.11-13.33,11.41-13.33c6.04,0,9.97,4.29,9.97,12.34c0,0.98-0.04,1.92-0.18,2.64H853.5c0.18,4.25,3.22,5.95,6.8,5.95
			c2.46,0,4.38-0.45,6.08-1.03L867.32,232.29z M862.44,218.2c0.04-2.59-0.98-5.77-4.25-5.77c-3.18,0-4.52,3.31-4.7,5.77H862.44z"/>
		<path class="st2" d="M886.61,214.26c-0.49-0.09-1.03-0.14-1.7-0.14c-3,0-5.28,2.01-5.28,6.26v12.88h-6.62v-17.13
			c0-3.09-0.09-5.55-0.18-7.78h5.68l0.27,4.34h0.18c1.16-3.22,3.85-4.88,6.17-4.88c0.63,0,1.03,0.04,1.48,0.13V214.26z"/>
		<path class="st2" d="M908.46,227.37c0,2.19,0.09,4.38,0.36,5.9h-5.95l-0.4-2.59h-0.13c-1.43,1.97-3.85,3.09-6.62,3.09
			c-4.61,0-7.47-3.44-7.47-7.47c0-6.4,5.68-9.39,13.6-9.39c0-2.46-0.85-4.34-4.47-4.34c-2.28,0-4.52,0.72-6.13,1.7l-1.25-4.29
			c1.65-0.98,4.74-2.1,8.63-2.1c7.74,0,9.84,4.92,9.84,10.38V227.37z M902.02,221.15c-3.58,0-7.29,0.85-7.29,4.47
			c0,2.37,1.48,3.4,3.13,3.4c1.57,0,4.16-1.12,4.16-4.29V221.15z"/>
		<path class="st2" d="M914.77,203.8l6.53-1.92v6.49h5.5v4.88h-5.5v10.82c0,3,0.94,4.25,2.95,4.25c0.94,0,1.48-0.09,2.15-0.22
			l0.09,5.06c-0.9,0.36-2.51,0.58-4.43,0.58c-7.16,0-7.29-6.22-7.29-8.99v-11.49h-3.27v-4.88h3.27V203.8z"/>
		<path class="st2" d="M933.84,205.09c-2.1,0-3.53-1.52-3.53-3.53c0-2.06,1.47-3.53,3.53-3.53c2.15,0,3.58,1.47,3.58,3.53
			C937.41,203.71,935.89,205.09,933.84,205.09z M937.19,233.27h-6.62v-24.91h6.62V233.27z"/>
		<path class="st2" d="M964.65,220.62c0,9.48-6.08,13.15-11.63,13.15c-6.71,0-11.54-4.74-11.54-12.84c0-8.36,5.05-13.1,11.81-13.1
			C960.27,207.82,964.65,213.06,964.65,220.62z M953.16,212.7c-3.67,0-4.96,4.29-4.96,8.09c0,4.43,1.7,8.1,4.92,8.1
			c3.13,0,4.83-3.71,4.83-8.14C957.94,216.86,956.56,212.7,953.16,212.7z"/>
		<path class="st2" d="M990.39,233.27h-6.62v-14.54c0-3.04-0.98-5.46-3.8-5.46c-1.79,0-4.25,1.39-4.25,5.19v14.8h-6.62v-17.4
			c0-2.91-0.09-5.28-0.18-7.47h5.72l0.31,3.35h0.13c1.12-1.83,3.58-3.89,7.2-3.89c4.56,0,8.09,3.18,8.09,10.15V233.27z"/>
		<path class="st2" d="M1031.5,233.27h-6.93l-2.46-9.08h-9.21l-2.37,9.08h-6.71l9.75-34.39h8.32L1031.5,233.27z M1021.17,219.18
			l-2.06-7.83c-0.54-2.15-1.12-4.92-1.56-7.02h-0.14c-0.45,2.15-1.03,4.96-1.52,6.98l-2.06,7.87H1021.17z"/>
		<path class="st2" d="M1055.61,225.67c0,2.95,0.13,5.5,0.22,7.6h-5.77l-0.31-3.31h-0.13c-1.03,1.61-3.31,3.8-7.16,3.8
			c-4.74,0-7.96-3.09-7.96-10.56v-14.85h6.62v13.87c0,3.76,1.07,6.13,3.8,6.13c2.15,0,4.07-1.83,4.07-4.65v-15.34h6.62V225.67z"/>
		<path class="st2" d="M1062.28,203.8l6.53-1.92v6.49h5.5v4.88h-5.5v10.82c0,3,0.94,4.25,2.95,4.25c0.94,0,1.48-0.09,2.15-0.22
			l0.09,5.06c-0.9,0.36-2.51,0.58-4.43,0.58c-7.16,0-7.29-6.22-7.29-8.99v-11.49h-3.27v-4.88h3.27V203.8z"/>
		<path class="st2" d="M1099.49,220.62c0,9.48-6.08,13.15-11.63,13.15c-6.71,0-11.54-4.74-11.54-12.84c0-8.36,5.05-13.1,11.81-13.1
			C1095.11,207.82,1099.49,213.06,1099.49,220.62z M1087.99,212.7c-3.67,0-4.96,4.29-4.96,8.09c0,4.43,1.7,8.1,4.92,8.1
			c3.13,0,4.83-3.71,4.83-8.14C1092.78,216.86,1091.4,212.7,1087.99,212.7z"/>
		<path class="st2" d="M1125.22,233.27h-6.62v-14.54c0-3.04-0.98-5.46-3.8-5.46c-1.79,0-4.25,1.39-4.25,5.19v14.8h-6.62v-17.4
			c0-2.91-0.09-5.28-0.18-7.47h5.72l0.31,3.35h0.13c1.12-1.83,3.58-3.89,7.2-3.89c4.56,0,8.09,3.18,8.09,10.15V233.27z"/>
		<path class="st2" d="M1152.6,220.62c0,9.48-6.08,13.15-11.63,13.15c-6.71,0-11.54-4.74-11.54-12.84c0-8.36,5.05-13.1,11.81-13.1
			C1148.22,207.82,1152.6,213.06,1152.6,220.62z M1141.1,212.7c-3.67,0-4.96,4.29-4.96,8.09c0,4.43,1.7,8.1,4.92,8.1
			c3.13,0,4.83-3.71,4.83-8.14C1145.89,216.86,1144.5,212.7,1141.1,212.7z"/>
		<path class="st2" d="M1191.53,233.27h-6.49v-14.09c0-3.58-0.99-5.95-3.62-5.95c-1.83,0-3.89,1.43-3.89,4.92v15.12h-6.48v-14.71
			c0-2.95-0.94-5.32-3.53-5.32c-1.83,0-3.98,1.7-3.98,5.05v14.98h-6.49v-17.4c0-2.91-0.09-5.28-0.18-7.47h5.64l0.31,3.31h0.14
			c1.16-1.79,3.35-3.85,7.07-3.85c3.04,0,5.37,1.61,6.35,4.16h0.09c2.06-3.04,4.61-4.16,7.38-4.16c4.34,0,7.69,3.09,7.69,10.29
			V233.27z"/>
		<path class="st2" d="M1216.88,208.36l-5.64,17.31c-2.77,8.05-4.88,12.43-7.69,15.25c-2.42,2.32-4.96,3.22-6.44,3.49l-1.65-5.59
			c1.07-0.31,2.33-1.03,3.49-1.83c2.19-1.57,3.31-4.11,3.31-4.61c0-0.27-0.09-0.63-0.27-1.12l-8.36-22.9h7.25l3.67,13.02
			c0.4,1.52,0.85,3.27,1.16,4.65h0.14c0.27-1.34,0.67-3.09,1.03-4.65l3.13-13.02H1216.88z"/>
		<path class="st2" d="M806.22,255.07c-1.21-0.63-3.31-1.48-6.13-1.48c-3.49,0-5.05,1.88-5.05,3.8c0,2.46,1.7,3.58,5.9,5.5
			c5.5,2.46,7.96,5.64,7.96,10.15c0,5.99-4.52,10.38-12.52,10.38c-3.4,0-6.84-0.94-8.45-1.92l1.3-5.55
			c1.79,1.07,4.65,1.92,7.42,1.92c3.67,0,5.59-1.75,5.59-4.29c0-2.46-1.65-3.94-5.46-5.59c-5.19-2.24-8.41-5.46-8.41-9.93
			c0-5.64,4.43-9.97,11.85-9.97c3.27,0,5.77,0.76,7.38,1.57L806.22,255.07z"/>
		<path class="st2" d="M833.86,275.38c0,2.95,0.13,5.5,0.22,7.6h-5.77l-0.31-3.31h-0.13c-1.03,1.61-3.31,3.8-7.16,3.8
			c-4.74,0-7.96-3.09-7.96-10.56v-14.85h6.62v13.87c0,3.76,1.07,6.13,3.8,6.13c2.15,0,4.07-1.83,4.07-4.65v-15.34h6.62V275.38z"/>
		<path class="st2" d="M845.6,261.47c1.61-2.55,4.16-3.93,7.38-3.93c5.46,0,9.48,5.1,9.48,12.75c0,9.17-5.19,13.19-10.24,13.19
			c-2.73,0-4.83-1.25-5.9-2.91h-0.09v12.39h-6.62v-26.75c0-3.22-0.09-5.86-0.18-8.14h5.77l0.31,3.4H845.6z M846.22,272.92
			c0,3.62,2.19,5.37,4.43,5.37c3.36,0,5.1-3.31,5.1-7.78c0-4.43-1.7-7.65-4.96-7.65c-2.55,0-4.56,2.42-4.56,5.41V272.92z"/>
		<path class="st2" d="M872.94,261.47c1.61-2.55,4.16-3.93,7.38-3.93c5.46,0,9.48,5.1,9.48,12.75c0,9.17-5.19,13.19-10.24,13.19
			c-2.73,0-4.83-1.25-5.9-2.91h-0.09v12.39h-6.62v-26.75c0-3.22-0.09-5.86-0.18-8.14h5.77l0.31,3.4H872.94z M873.57,272.92
			c0,3.62,2.19,5.37,4.43,5.37c3.36,0,5.1-3.31,5.1-7.78c0-4.43-1.7-7.65-4.96-7.65c-2.55,0-4.56,2.42-4.56,5.41V272.92z"/>
		<path class="st2" d="M916.11,270.32c0,9.48-6.08,13.15-11.63,13.15c-6.71,0-11.54-4.74-11.54-12.84c0-8.36,5.05-13.1,11.81-13.1
			C911.73,257.53,916.11,262.77,916.11,270.32z M904.62,262.41c-3.67,0-4.96,4.29-4.96,8.09c0,4.43,1.7,8.1,4.92,8.1
			c3.13,0,4.83-3.71,4.83-8.14C909.4,266.57,908.02,262.41,904.62,262.41z"/>
		<path class="st2" d="M934.16,263.97c-0.49-0.09-1.03-0.14-1.7-0.14c-3,0-5.28,2.01-5.28,6.26v12.88h-6.62v-17.13
			c0-3.09-0.09-5.55-0.18-7.78h5.68l0.27,4.34h0.18c1.16-3.22,3.85-4.88,6.17-4.88c0.63,0,1.03,0.04,1.48,0.13V263.97z"/>
		<path class="st2" d="M939.66,253.51l6.53-1.92v6.49h5.5v4.88h-5.5v10.82c0,3,0.94,4.25,2.95,4.25c0.94,0,1.48-0.09,2.15-0.22
			l0.09,5.06c-0.9,0.36-2.51,0.58-4.43,0.58c-7.16,0-7.29-6.22-7.29-8.99v-11.49h-3.27v-4.88h3.27V253.51z"/>
		<path class="st2" d="M985.06,282.98h-19.23v-34.39h18.52v5.55h-11.9v8.32h11.23v5.41h-11.23v9.57h12.61V282.98z"/>
		<path class="st2" d="M1010.73,282.98h-6.62v-14.54c0-3.04-0.98-5.46-3.8-5.46c-1.79,0-4.25,1.39-4.25,5.19v14.8h-6.62v-17.4
			c0-2.91-0.09-5.28-0.18-7.47h5.72l0.31,3.35h0.13c1.12-1.83,3.58-3.89,7.2-3.89c4.56,0,8.09,3.18,8.09,10.15V282.98z"/>
		<path class="st2" d="M1037.73,258.11c-0.14,1.79-0.22,3.98-0.22,7.42v14.05c0,4.88-0.45,13.91-12.57,13.91
			c-2.91,0-5.9-0.58-7.87-1.7l1.3-5.06c1.48,0.81,3.8,1.61,6.44,1.61c3.71,0,6.17-2.1,6.17-6.89v-1.83h-0.09
			c-1.25,1.97-3.49,3.18-6.22,3.18c-5.9,0-9.62-5.32-9.62-12.12c0-8.23,4.79-13.1,10.29-13.1c3.13,0,5.14,1.52,6.26,3.49h0.09
			l0.27-2.95H1037.73z M1030.89,267.78c0-3.18-1.92-5.01-4.16-5.01c-3,0-5.01,3.04-5.01,7.74c0,4.34,1.83,7.29,4.96,7.29
			c1.52,0,4.21-0.98,4.21-5.19V267.78z"/>
		<path class="st2" d="M1046.48,254.8c-2.1,0-3.53-1.52-3.53-3.53c0-2.06,1.47-3.53,3.53-3.53c2.15,0,3.58,1.47,3.58,3.53
			C1050.06,253.42,1048.54,254.8,1046.48,254.8z M1049.84,282.98h-6.62v-24.91h6.62V282.98z"/>
		<path class="st2" d="M1076.76,282.98h-6.62v-14.54c0-3.04-0.98-5.46-3.8-5.46c-1.79,0-4.25,1.39-4.25,5.19v14.8h-6.62v-17.4
			c0-2.91-0.09-5.28-0.18-7.47h5.72l0.31,3.35h0.13c1.12-1.83,3.58-3.89,7.2-3.89c4.56,0,8.09,3.18,8.09,10.15V282.98z"/>
		<path class="st2" d="M1101.14,282c-2.06,0.89-4.96,1.43-8.05,1.43c-7.69,0-12.08-4.83-12.08-12.57c0-7.16,4.11-13.33,11.41-13.33
			c6.04,0,9.97,4.29,9.97,12.34c0,0.98-0.04,1.92-0.18,2.64h-14.89c0.18,4.25,3.22,5.95,6.8,5.95c2.46,0,4.38-0.45,6.08-1.03
			L1101.14,282z M1096.27,267.91c0.04-2.59-0.98-5.77-4.25-5.77c-3.18,0-4.52,3.31-4.7,5.77H1096.27z"/>
	</g>
	<g>
		<path class="st1" d="M549.68,243.34c0,8.02-1.49,15.12-4.46,21.3c-2.97,6.18-7.2,10.93-12.68,14.26c-5.48,3.33-11.72,5-18.73,5
			s-13.22-1.61-18.64-4.83c-5.42-3.22-9.65-7.83-12.68-13.81c-3.03-5.99-4.62-12.86-4.77-20.62v-4.63c0-8.06,1.48-15.17,4.44-21.33
			c2.96-6.16,7.19-10.91,12.71-14.26c5.52-3.35,11.8-5.03,18.84-5.03c6.97,0,13.18,1.66,18.64,4.97c5.46,3.31,9.71,8.03,12.74,14.15
			c3.03,6.12,4.57,13.13,4.6,21.04V243.34z M529.52,239.9c0-8.17-1.37-14.38-4.1-18.61c-2.73-4.24-6.64-6.36-11.72-6.36
			c-9.94,0-15.2,7.46-15.76,22.37l-0.06,6.04c0,8.06,1.34,14.26,4.01,18.59c2.67,4.33,6.65,6.5,11.92,6.5
			c5.01,0,8.87-2.13,11.58-6.38c2.71-4.26,4.09-10.38,4.13-18.36V239.9z"/>
		<path class="st1" d="M601.73,267.41h-27.17l-4.75,15.37h-21.18l30.17-82.25h18.64l30.39,82.25h-21.3L601.73,267.41z M579.31,252.1
			h17.68l-8.87-28.53L579.31,252.1z"/>
		<path class="st1" d="M673.19,260.91c0-2.9-1.03-5.16-3.08-6.78c-2.05-1.62-5.66-3.3-10.82-5.03c-5.16-1.73-9.38-3.41-12.66-5.03
			c-10.66-5.23-15.99-12.43-15.99-21.58c0-4.56,1.33-8.58,3.98-12.06c2.66-3.48,6.41-6.19,11.27-8.14
			c4.86-1.94,10.32-2.91,16.38-2.91c5.91,0,11.21,1.05,15.9,3.16c4.69,2.11,8.33,5.11,10.93,9.01c2.6,3.9,3.9,8.35,3.9,13.36h-19.77
			c0-3.35-1.03-5.95-3.08-7.79c-2.05-1.85-4.83-2.77-8.33-2.77c-3.54,0-6.34,0.78-8.39,2.34c-2.05,1.56-3.08,3.55-3.08,5.96
			c0,2.11,1.13,4.02,3.39,5.73c2.26,1.71,6.23,3.48,11.92,5.31c5.69,1.83,10.36,3.79,14.01,5.9c8.89,5.12,13.33,12.18,13.33,21.18
			c0,7.19-2.71,12.84-8.13,16.95c-5.42,4.11-12.86,6.16-22.31,6.16c-6.67,0-12.7-1.2-18.11-3.59c-5.4-2.39-9.47-5.67-12.2-9.83
			c-2.73-4.16-4.1-8.95-4.1-14.38h19.88c0,4.41,1.14,7.65,3.42,9.74c2.28,2.09,5.98,3.14,11.1,3.14c3.28,0,5.87-0.71,7.77-2.12
			C672.24,265.46,673.19,263.47,673.19,260.91z"/>
		<path class="st1" d="M753.6,247.86h-31.18v19.66h36.83v15.25h-56.66v-82.25h56.77v15.31h-36.95v17.34h31.18V247.86z"/>
	</g>
	<g>
		<path class="st1" d="M388.31,104.53c-1.54,6.49-9.6,14.52-16.11,16.06c-0.05-9.24-2.38-18.43-7.01-23.05
			C369.82,102.16,379.04,104.48,388.31,104.53z"/>
		<polygon class="st1" points="253.79,182.89 230.47,165.99 207.14,182.89 216.05,155.55 192.73,138.65 221.56,138.65 
			230.47,111.31 239.38,138.65 268.21,138.65 244.88,155.55 		"/>
		<path class="st1" d="M72.15,162.91c-1.54,6.49-9.6,14.53-16.11,16.06c-0.05-9.24-2.38-18.43-7.01-23.05
			C53.67,160.54,62.89,162.86,72.15,162.91z"/>
		<path class="st1" d="M49.03,202.6c4.63-4.62,6.97-13.81,7.01-23.05c3.25,0.77,6.9,3.14,9.93,6.16c3.03,3.02,5.41,6.65,6.18,9.9
			C62.89,195.65,53.67,197.98,49.03,202.6z"/>
		<path class="st1" d="M72.73,195.6c1.54-6.49,9.6-14.52,16.11-16.06c0.05,9.24,2.38,18.43,7.01,23.05
			C91.22,197.98,82,195.65,72.73,195.6z"/>
		<path class="st1" d="M88.84,178.97c-3.25-0.77-6.9-3.14-9.93-6.16c-3.03-3.02-5.41-6.65-6.18-9.9c9.27-0.05,18.49-2.37,23.12-6.99
			C91.22,160.54,88.88,169.73,88.84,178.97z"/>
		<path class="st1" d="M365.18,144.22c4.63-4.62,6.97-13.81,7.01-23.05c3.25,0.77,6.9,3.14,9.93,6.16c3.03,3.02,5.41,6.65,6.18,9.9
			C379.04,137.27,369.82,139.6,365.18,144.22z"/>
		<path class="st1" d="M388.88,137.23c1.54-6.49,9.6-14.52,16.11-16.06c0.05,9.24,2.38,18.43,7.01,23.05
			C407.37,139.6,398.15,137.27,388.88,137.23z"/>
		<path class="st1" d="M404.99,120.59c-3.25-0.77-6.9-3.14-9.93-6.16c-3.03-3.02-5.41-6.65-6.18-9.9
			c9.27-0.05,18.49-2.37,23.12-6.99C407.37,102.16,405.04,111.35,404.99,120.59z"/>
		<polygon class="st1" points="140.21,162.05 140.21,162.05 139.39,162.87 		"/>
		<path class="st3" d="M179.17,201.41c-28.17-28.33-28.17-74.35,0-102.69c28.33-28.17,74.35-28.17,102.69,0
			c28.17,28.33,28.17,74.35,0,102.69C253.53,229.58,207.51,229.58,179.17,201.41z M221.56,138.65h-28.83l23.32,16.9l-8.91,27.34
			l23.32-16.9l23.32,16.9l-8.91-27.34l23.32-16.9h-28.83l-8.91-27.34L221.56,138.65z"/>
		<linearGradient id="SVGID_1_" gradientUnits="userSpaceOnUse" x1="338.9291" y1="220.978" x2="210.0615" y2="92.1105">
			<stop  offset="0" style="stop-color:#00325F"/>
			<stop  offset="1" style="stop-color:#8099AF"/>
		</linearGradient>
		<path class="st4" d="M412,97.54c-4.63,4.62-6.97,13.81-7.01,23.05c0,0.19,0,0.38,0,0.57c0.05,9.24,2.38,18.43,7.01,23.05
			c-4.63-4.62-13.85-6.95-23.12-6.99c-0.19,0-0.38,0-0.58,0c-9.27,0.05-18.49,2.37-23.12,6.99l-70.27,70.06
			c-35.57,35.46-93.23,35.46-128.8,0c-14.73-14.68-23.35-33.14-25.88-52.26l-29.51,29.42c6.07,17.55,16.11,34.03,30.14,48.01
			c25.25,25.17,58.59,37.48,91.75,36.94c31.77-0.52,63.38-12.83,87.56-36.94l93.44-93.17l8.42-58.75L412,97.54z"/>
		<linearGradient id="SVGID_2_" gradientUnits="userSpaceOnUse" x1="326.3698" y1="183.2008" x2="222.714" y2="79.545">
			<stop  offset="0" style="stop-color:#8099AF"/>
			<stop  offset="1" style="stop-color:#00325F"/>
		</linearGradient>
		<path class="st5" d="M363.11,95.93l-93.44,93.17c-21.58,21.52-56.71,21.52-78.29,0s-21.58-56.54,0-78.06l-51.14,50.99
			c2.53,19.11,11.15,37.57,25.88,52.26c35.57,35.46,93.23,35.46,128.8,0l70.27-70.06c4.63-4.62,6.97-13.81,7.01-23.05
			c0-0.19,0-0.38,0-0.57c-0.05-9.24-2.38-18.43-7.01-23.05c4.63,4.62,13.85,6.95,23.12,6.99c0.19,0,0.38,0,0.58,0
			c9.27-0.05,18.49-2.37,23.12-6.99l10.03-10L363.11,95.93z"/>
		<path class="st6" d="M395.06,114.43c-3.03-3.02-5.41-6.65-6.18-9.9c-0.19,0-0.38,0-0.58,0c-1.54,6.49-9.6,14.52-16.11,16.06
			c0,0.19,0,0.38,0,0.57c3.25,0.77,6.9,3.14,9.93,6.16c3.03,3.02,5.41,6.65,6.18,9.9c0.19,0,0.38,0,0.58,0
			c1.54-6.49,9.6-14.52,16.11-16.06c0-0.19,0-0.38,0-0.57C401.74,119.82,398.09,117.45,395.06,114.43z"/>
		<linearGradient id="SVGID_3_" gradientUnits="userSpaceOnUse" x1="250.9732" y1="208.0248" x2="122.1058" y2="79.1573">
			<stop  offset="0" style="stop-color:#00325F"/>
			<stop  offset="1" style="stop-color:#8099AF"/>
		</linearGradient>
		<path class="st7" d="M320.17,60.68c-25.25-25.17-58.59-37.48-91.75-36.94c-31.77,0.52-63.38,12.83-87.56,36.94l-93.44,93.17
			L39,212.6l10.03-10c4.63-4.62,6.97-13.81,7.01-23.05c0-0.19,0-0.38,0-0.57c-0.05-9.24-2.38-18.43-7.01-23.05
			c4.63,4.62,13.85,6.95,23.12,6.99c0.19,0,0.38,0,0.58,0c9.27-0.05,18.49-2.37,23.12-6.99l12.17-12.13l58.1-57.93
			c35.57-35.46,93.23-35.46,128.8,0c14.73,14.68,23.35,33.14,25.88,52.26l29.51-29.42C344.24,91.14,334.2,74.66,320.17,60.68z"/>
		<linearGradient id="SVGID_4_" gradientUnits="userSpaceOnUse" x1="238.3208" y1="220.5902" x2="134.6651" y2="116.9345">
			<stop  offset="0" style="stop-color:#8099AF"/>
			<stop  offset="1" style="stop-color:#00325F"/>
		</linearGradient>
		<path class="st8" d="M320.8,138.11c-2.53-19.11-11.15-37.57-25.88-52.26c-35.57-35.46-93.23-35.46-128.8,0l-70.27,70.06
			c-4.63,4.62-6.97,13.81-7.01,23.05c0,0.19,0,0.38,0,0.57c0.05,9.24,2.38,18.43,7.01,23.05c-4.63-4.62-13.85-6.95-23.12-6.99
			c-0.19,0-0.38,0-0.58,0c-9.27,0.05-18.49,2.37-23.12,6.99L39,212.6l58.93-8.39l93.44-93.17c21.58-21.52,56.71-21.52,78.29,0
			c21.58,21.52,21.58,56.54,0,78.06L320.8,138.11z"/>
		<path class="st6" d="M78.91,172.81c-3.03-3.02-5.41-6.65-6.18-9.9c-0.19,0-0.38,0-0.58,0c-1.54,6.49-9.6,14.53-16.11,16.06
			c0,0.19,0,0.38,0,0.57c3.25,0.77,6.9,3.14,9.93,6.16c3.03,3.02,5.41,6.65,6.18,9.9c0.19,0,0.38,0,0.58,0
			c1.54-6.49,9.6-14.52,16.11-16.06c0-0.19,0-0.38,0-0.57C85.58,178.2,81.94,175.83,78.91,172.81z"/>
	</g>
</g>
</svg>
