<?xml version="1.0" encoding="utf-8"?>
<!-- Generator: Adobe Illustrator 24.0.0, SVG Export Plug-In . SVG Version: 6.00 Build 0)  -->
<svg version="1.1" id="レイヤー_1" xmlns="http://www.w3.org/2000/svg" xmlns:xlink="http://www.w3.org/1999/xlink" x="0px"
	 y="0px" width="870px" height="320px" viewBox="0 0 870 320" style="enable-background:new 0 0 870 320;" xml:space="preserve">
<style type="text/css">
	.st0{fill:none;}
	.st1{fill:#FFFFFF;}
</style>
<rect class="st0" width="870" height="320"/>
<g>
	<g>
		<path class="st1" d="M591.77,41.81c-13.52,0-27.53,8-34.91,18.24V41.81h-29.1v127.06h29.1V127.6c0-33.93,9.14-56.78,34.91-56.78
			V41.81z"/>
		<path class="st1" d="M340.75,139.85c-0.28-0.34-0.71-1.08-0.71-2.52v-0.1V89.61v-6.03c0-22.22-17.45-40.41-39.4-41.78h-37.56
			v29.02l37.56,0.14c5.87,1.22,10.3,6.41,10.3,12.62l-0.55,1.59h-28.89c-13.83,0-28.75,12.05-28.75,31.53v20.63
			c0,19.48,14.92,31.53,28.75,31.53h29.8c4.83,0,9.78-1.5,14.2-4.25c4.42,2.75,9.37,4.25,14.2,4.25h11.56v-29.02H340.75z
			 M310.93,137.24v0.1c0,1.43-0.42,2.18-0.71,2.52h-27.68c-0.28-0.34-0.71-1.08-0.71-2.52v-20.63c0-1.43,0.42-2.18,0.71-2.52h28.38
			V137.24z"/>
		<path class="st1" d="M489.35,23.78h-29.1v18.03h-13.71v29.02h13.71v66.51c0,19.48,14.92,31.53,28.75,31.53h24.98v-29.02h-23.92
			c-0.28-0.34-0.71-1.08-0.71-2.52V70.82h24.63V41.81h-24.63V23.78z"/>
		<path class="st1" d="M404.68,85.17l-15.54,0.14c-4.01,0-7.27-3.25-7.27-7.25c0-4,3.26-7.25,7.27-7.25h43.63V41.81h-43.63
			c-20.06,0-36.37,16.26-36.37,36.26s16.31,36.26,36.37,36.26l15.54,0c5.87,1.22,10.3,6.41,10.3,12.62c0,7.11-5.8,12.9-12.93,12.9
			h-37.02v29.02h37.02c23.18,0,42.04-18.81,42.04-41.92C444.08,104.72,426.63,86.54,404.68,85.17z"/>
		<polygon class="st1" points="250.64,41.81 214.91,41.81 196.61,73.96 178.31,41.81 142.58,41.81 178.75,105.34 142.58,168.87 
			178.31,168.87 196.61,136.71 214.91,168.87 250.64,168.87 214.47,105.34 		"/>
		<polygon class="st1" points="129.93,52.8 129.93,23.78 34.89,23.78 34.89,168.87 129.93,168.87 129.93,139.85 68.94,139.85 
			68.94,110.83 120.63,110.83 120.63,81.81 68.94,81.81 68.94,52.8 		"/>
		<path class="st1" d="M657.19,41.81c-35.19,0-63.72,28.44-63.72,63.53c0,35.09,28.53,63.53,63.72,63.53s63.72-28.44,63.72-63.53
			C720.9,70.25,692.38,41.81,657.19,41.81z M675.23,113.56l11.15,34.22l-29.2-21.15l-29.2,21.15l11.15-34.22l-29.2-21.15h36.09
			l11.15-34.22l11.15,34.22h36.09L675.23,113.56z"/>
	</g>
	<g>
		<path class="st1" d="M34.89,199.74c4.92-0.97,11.79-1.71,20.43-1.71c10.02,0,17.39,1.81,22.49,6.52
			c4.82,4.28,7.67,11.33,7.67,19.03c0,22.99-17.19,28.35-29.08,28.35c-1.67,0-3.14-0.12-4.32-0.22v29.51H34.89V199.74z
			 M52.08,236.94c1.08,0.12,2.17,0.22,3.93,0.22c8.05,0,12.37-5.24,12.37-12.73c0-7.58-4.22-11.76-11.1-11.76
			c-2.35,0-4.22,0.31-5.2,0.63V236.94z"/>
		<path class="st1" d="M107.16,281.22H89.87v-83.19h17.29V281.22z"/>
		<path class="st1" d="M158.25,267.47c0,5.16,0.2,10.23,0.88,13.74h-15.52l-0.98-5.59h-0.29c-3.35,4.66-8.55,6.73-14.25,6.73
			c-10.01,0-16.59-8.07-16.59-17.87c0-15.41,13.06-22.02,29.36-22.12c0-4.45-1.87-7.64-8.84-7.64c-5.2,0-10.12,1.65-13.66,3.92
			l-3.14-11.79c3.54-2.05,10.7-4.96,20.23-4.96c18.27,0,22.79,12.2,22.79,25.12V267.47z M141.46,253.73
			c-7.17,0-13.27,2.17-13.27,8.88c0,4.75,2.75,6.83,5.8,6.83c3.54,0,7.47-2.69,7.47-8.17V253.73z"/>
		<path class="st1" d="M210.73,223.03l-12.09,41.34c-5.69,17.87-10.31,27.7-16.31,34.11c-5.59,5.69-11.79,7.95-15.42,8.57
			l-4.22-15.49c7.17-1.55,14.05-9.09,14.05-12.5c0-0.63-0.2-1.45-0.7-2.59l-18.07-53.42h18.96l6.49,28.52
			c0.78,3.31,1.57,7.03,2.07,10.13h0.3c0.58-3.11,1.17-6.83,1.77-10.03l5.3-28.62H210.73z"/>
		<path class="st1" d="M231.53,229.23c2.95-4.33,7.65-7.34,14.14-7.34c12.27,0,19.64,12.3,19.64,28.94
			c0,20.88-10.61,31.53-22.19,31.53c-5.4,0-10.32-2.07-13.85-8.48h-0.19l-0.88,7.34h-14.64c0.2-4.55,0.38-11.37,0.38-17.77v-65.41
			h17.29v31.2H231.53z M231.23,258.07c0,6.51,3.93,9.82,7.67,9.82c5.79,0,9.04-5.69,9.04-16.02c0-9.09-2.95-15.39-9.04-15.39
			c-3.83,0-7.67,3.61-7.67,9.92V258.07z"/>
		<path class="st1" d="M314.79,251.77c0,22.64-12.4,30.59-23.22,30.59c-13.73,0-23.15-11.16-23.15-29.88
			c0-19.53,10.03-30.59,23.68-30.59C306.25,221.89,314.79,234.29,314.79,251.77z M291.74,235.12c-5.8,0-7.65,8.89-7.65,16.96
			c0,9.71,2.38,17.05,7.65,17.05c5.02,0,7.38-7.75,7.38-17.05C299.12,243.5,297.01,235.12,291.74,235.12z"/>
		<path class="st1" d="M364.15,251.77c0,22.64-12.4,30.59-23.22,30.59c-13.73,0-23.15-11.16-23.15-29.88
			c0-19.53,10.03-30.59,23.68-30.59C355.61,221.89,364.15,234.29,364.15,251.77z M341.1,235.12c-5.8,0-7.65,8.89-7.65,16.96
			c0,9.71,2.38,17.05,7.65,17.05c5.02,0,7.38-7.75,7.38-17.05C348.48,243.5,346.38,235.12,341.1,235.12z"/>
		<path class="st1" d="M420,281.22h-20.43l-10.12-23.25l-3.44,5.37v17.87h-17.29v-83.19h17.29v49.7h0.3
			c1.18-2.99,2.15-5.37,3.34-7.65l8.65-17.05h19.93l-16.89,23.98L420,281.22z"/>
		<path class="st1" d="M482.8,279.56c-2.65,1.24-8.55,2.68-16.01,2.68c-24.06,0-35.46-17.66-35.46-39.78
			c0-28.62,17.69-42.16,37.23-42.16c7.65,0,12.96,1.65,15.12,2.89l-3.15,14.78c-2.55-1.24-6.19-2.38-10.99-2.38
			c-10.9,0-20.04,7.85-20.04,25.84c0,16.63,7.85,25.32,20.14,25.32c3.92,0,8.34-0.83,10.99-1.87L482.8,279.56z"/>
		<path class="st1" d="M530.51,251.77c0,22.64-12.4,30.59-23.22,30.59c-13.73,0-23.15-11.16-23.15-29.88
			c0-19.53,10.03-30.59,23.68-30.59C521.97,221.89,530.51,234.29,530.51,251.77z M507.46,235.12c-5.8,0-7.65,8.89-7.65,16.96
			c0,9.71,2.38,17.05,7.65,17.05c5.02,0,7.38-7.75,7.38-17.05C514.84,243.5,512.73,235.12,507.46,235.12z"/>
		<path class="st1" d="M552.38,281.22h-17.29v-83.19h17.29V281.22z"/>
		<path class="st1" d="M575.57,281.22h-17.29v-83.19h17.29V281.22z"/>
		<path class="st1" d="M625.73,279.05c-5.12,2.17-11.69,3.19-18.27,3.19c-17.39,0-27.21-10.95-27.21-29.14
			c0-16.63,9.24-31.22,25.74-31.22c13.16,0,22.48,9.31,22.48,29.05c0,2.79-0.09,5.67-0.48,7.64h-31.23
			c0.38,6.93,6.29,10.13,13.46,10.13c5,0,9.32-0.93,13.26-2.28L625.73,279.05z M612.66,246.08c0-5.17-1.57-11.67-7.57-11.67
			c-5.89,0-8.14,6.81-8.44,11.67H612.66z"/>
		<path class="st1" d="M671.51,280.08c-2.35,1.14-7.27,2.17-12.67,2.17c-16.51,0-27.01-10.85-27.01-29.45
			c0-17.56,10.8-30.79,29.36-30.79c4.33,0,8.45,0.93,10.9,1.85l-2.45,13.74c-1.77-0.61-4.12-1.34-7.57-1.34
			c-7.85,0-12.86,6.41-12.76,15.82c0,10.12,5.5,15.81,12.86,15.81c3.05,0,5.6-0.53,7.77-1.45L671.51,280.08z"/>
		<path class="st1" d="M681.48,212.4l17.09-5.07v15.71h11.49v13.13h-11.49v21.91c0,6.81,2.05,9.29,6.19,9.29
			c1.95,0,3.04-0.1,4.52-0.51l0.1,14.05c-2.17,0.73-6,1.34-10.62,1.34c-16.99,0-17.28-15.28-17.28-21.89v-24.19h-6.78v-13.13h6.78
			V212.4z"/>
		<path class="st1" d="M722.18,216.53c-5.2,0-8.84-3.93-8.84-9.21c0-5.47,3.72-9.29,8.84-9.29c5.2,0,8.84,3.82,8.84,9.29
			S727.19,216.53,722.18,216.53z M730.82,281.22h-17.29v-58.19h17.29V281.22z"/>
		<path class="st1" d="M781.61,251.77c0,22.64-12.4,30.59-23.22,30.59c-13.73,0-23.15-11.16-23.15-29.88
			c0-19.53,10.03-30.59,23.68-30.59C773.07,221.89,781.61,234.29,781.61,251.77z M758.56,235.12c-5.8,0-7.65,8.89-7.65,16.96
			c0,9.71,2.38,17.05,7.65,17.05c5.02,0,7.38-7.75,7.38-17.05C765.94,243.5,763.84,235.12,758.56,235.12z"/>
		<path class="st1" d="M835.11,281.22h-17.29v-33.8c0-6.09-1.77-10.53-6.67-10.53c-3.63,0-7.47,2.79-7.47,10.23v34.1h-17.29v-39.58
			c0-6.91-0.19-13.13-0.38-18.6h14.82l0.88,7.34h0.3c2.45-3.92,7.67-8.48,15.32-8.48c11.59,0,17.77,8.79,17.77,23.88V281.22z"/>
	</g>
</g>
</svg>
