<?xml version="1.0" encoding="utf-8"?>
<!-- Generator: Adobe Illustrator 24.0.0, SVG Export Plug-In . SVG Version: 6.00 Build 0)  -->
<svg version="1.1" id="レイヤー_1" xmlns="http://www.w3.org/2000/svg" xmlns:xlink="http://www.w3.org/1999/xlink" x="0px"
	 y="0px" width="870px" height="150px" viewBox="0 0 870 150" style="enable-background:new 0 0 870 150;" xml:space="preserve">
<style type="text/css">
	.st0{fill:none;}
	.st1{fill:#00325F;}
</style>
<rect class="st0" width="870" height="150"/>
<g>
	<path class="st1" d="M34.89,30.78c4.92-0.97,11.79-1.71,20.43-1.71c10.02,0,17.39,1.81,22.49,6.52c4.82,4.28,7.67,11.33,7.67,19.03
		c0,22.99-17.19,28.35-29.08,28.35c-1.67,0-3.14-0.12-4.32-0.22v29.51H34.89V30.78z M52.08,67.98c1.08,0.12,2.17,0.22,3.93,0.22
		c8.05,0,12.37-5.24,12.37-12.73c0-7.58-4.22-11.76-11.1-11.76c-2.35,0-4.22,0.31-5.2,0.63V67.98z"/>
	<path class="st1" d="M107.16,112.25H89.87V29.07h17.29V112.25z"/>
	<path class="st1" d="M158.25,98.51c0,5.16,0.2,10.23,0.88,13.74h-15.52l-0.98-5.59h-0.29c-3.35,4.66-8.55,6.73-14.25,6.73
		c-10.01,0-16.59-8.07-16.59-17.87c0-15.41,13.06-22.02,29.36-22.12c0-4.45-1.87-7.64-8.84-7.64c-5.2,0-10.12,1.65-13.66,3.92
		l-3.14-11.79c3.54-2.05,10.7-4.96,20.23-4.96c18.27,0,22.79,12.2,22.79,25.12V98.51z M141.46,84.77c-7.17,0-13.27,2.17-13.27,8.88
		c0,4.75,2.75,6.83,5.8,6.83c3.54,0,7.47-2.69,7.47-8.17V84.77z"/>
	<path class="st1" d="M210.73,54.07l-12.09,41.34c-5.69,17.87-10.31,27.7-16.31,34.11c-5.59,5.69-11.79,7.95-15.42,8.57l-4.22-15.49
		c7.17-1.55,14.05-9.09,14.05-12.5c0-0.63-0.2-1.45-0.7-2.59l-18.07-53.42h18.96l6.49,28.52c0.78,3.31,1.57,7.03,2.07,10.13h0.3
		c0.58-3.11,1.17-6.83,1.77-10.03l5.3-28.62H210.73z"/>
	<path class="st1" d="M231.53,60.27c2.95-4.33,7.65-7.34,14.14-7.34c12.27,0,19.64,12.3,19.64,28.94
		c0,20.88-10.61,31.53-22.19,31.53c-5.4,0-10.32-2.07-13.85-8.48h-0.19l-0.88,7.34h-14.64c0.2-4.55,0.38-11.37,0.38-17.77V29.07
		h17.29v31.2H231.53z M231.23,89.11c0,6.51,3.93,9.82,7.67,9.82c5.79,0,9.04-5.69,9.04-16.02c0-9.09-2.95-15.39-9.04-15.39
		c-3.83,0-7.67,3.61-7.67,9.92V89.11z"/>
	<path class="st1" d="M314.79,82.81c0,22.64-12.4,30.59-23.22,30.59c-13.73,0-23.15-11.16-23.15-29.88
		c0-19.53,10.03-30.59,23.68-30.59C306.25,52.93,314.79,65.33,314.79,82.81z M291.74,66.16c-5.8,0-7.65,8.89-7.65,16.96
		c0,9.71,2.38,17.05,7.65,17.05c5.02,0,7.38-7.75,7.38-17.05C299.12,74.54,297.01,66.16,291.74,66.16z"/>
	<path class="st1" d="M364.15,82.81c0,22.64-12.4,30.59-23.22,30.59c-13.73,0-23.15-11.16-23.15-29.88
		c0-19.53,10.03-30.59,23.68-30.59C355.61,52.93,364.15,65.33,364.15,82.81z M341.1,66.16c-5.8,0-7.65,8.89-7.65,16.96
		c0,9.71,2.38,17.05,7.65,17.05c5.02,0,7.38-7.75,7.38-17.05C348.48,74.54,346.38,66.16,341.1,66.16z"/>
	<path class="st1" d="M420,112.25h-20.43l-10.12-23.25l-3.44,5.37v17.87h-17.29V29.07h17.29v49.7h0.3c1.18-2.99,2.15-5.37,3.34-7.65
		l8.65-17.05h19.93l-16.89,23.98L420,112.25z"/>
	<path class="st1" d="M482.8,110.6c-2.65,1.24-8.55,2.68-16.01,2.68c-24.06,0-35.46-17.66-35.46-39.78
		c0-28.62,17.69-42.16,37.23-42.16c7.65,0,12.96,1.65,15.12,2.89l-3.15,14.78c-2.55-1.24-6.19-2.38-10.99-2.38
		c-10.9,0-20.04,7.85-20.04,25.84c0,16.63,7.85,25.32,20.14,25.32c3.92,0,8.34-0.83,10.99-1.87L482.8,110.6z"/>
	<path class="st1" d="M530.51,82.81c0,22.64-12.4,30.59-23.22,30.59c-13.73,0-23.15-11.16-23.15-29.88
		c0-19.53,10.03-30.59,23.68-30.59C521.97,52.93,530.51,65.33,530.51,82.81z M507.46,66.16c-5.8,0-7.65,8.89-7.65,16.96
		c0,9.71,2.38,17.05,7.65,17.05c5.02,0,7.38-7.75,7.38-17.05C514.84,74.54,512.73,66.16,507.46,66.16z"/>
	<path class="st1" d="M552.38,112.25h-17.29V29.07h17.29V112.25z"/>
	<path class="st1" d="M575.57,112.25h-17.29V29.07h17.29V112.25z"/>
	<path class="st1" d="M625.73,110.09c-5.12,2.17-11.69,3.19-18.27,3.19c-17.39,0-27.21-10.95-27.21-29.14
		c0-16.63,9.24-31.22,25.74-31.22c13.16,0,22.48,9.31,22.48,29.05c0,2.79-0.09,5.67-0.48,7.64h-31.23
		c0.38,6.93,6.29,10.13,13.46,10.13c5,0,9.32-0.93,13.26-2.28L625.73,110.09z M612.66,77.12c0-5.17-1.57-11.67-7.57-11.67
		c-5.89,0-8.14,6.81-8.44,11.67H612.66z"/>
	<path class="st1" d="M671.51,111.11c-2.35,1.14-7.27,2.17-12.67,2.17c-16.51,0-27.01-10.85-27.01-29.45
		c0-17.56,10.8-30.79,29.36-30.79c4.33,0,8.45,0.93,10.9,1.85l-2.45,13.74c-1.77-0.61-4.12-1.34-7.57-1.34
		c-7.85,0-12.86,6.41-12.76,15.82c0,10.12,5.5,15.81,12.86,15.81c3.05,0,5.6-0.53,7.77-1.45L671.51,111.11z"/>
	<path class="st1" d="M681.48,43.44l17.09-5.07v15.71h11.49V67.2h-11.49v21.91c0,6.81,2.05,9.29,6.19,9.29
		c1.95,0,3.04-0.1,4.52-0.51l0.1,14.05c-2.17,0.73-6,1.34-10.62,1.34c-16.99,0-17.28-15.28-17.28-21.89V67.2h-6.78V54.07h6.78V43.44
		z"/>
	<path class="st1" d="M722.18,47.57c-5.2,0-8.84-3.93-8.84-9.21c0-5.47,3.72-9.29,8.84-9.29c5.2,0,8.84,3.82,8.84,9.29
		S727.19,47.57,722.18,47.57z M730.82,112.25h-17.29V54.07h17.29V112.25z"/>
	<path class="st1" d="M781.61,82.81c0,22.64-12.4,30.59-23.22,30.59c-13.73,0-23.15-11.16-23.15-29.88
		c0-19.53,10.03-30.59,23.68-30.59C773.07,52.93,781.61,65.33,781.61,82.81z M758.56,66.16c-5.8,0-7.65,8.89-7.65,16.96
		c0,9.71,2.38,17.05,7.65,17.05c5.02,0,7.38-7.75,7.38-17.05C765.94,74.54,763.84,66.16,758.56,66.16z"/>
	<path class="st1" d="M835.11,112.25h-17.29v-33.8c0-6.09-1.77-10.53-6.67-10.53c-3.63,0-7.47,2.79-7.47,10.23v34.1h-17.29V72.67
		c0-6.91-0.19-13.13-0.38-18.6h14.82l0.88,7.34h0.3c2.45-3.92,7.67-8.48,15.32-8.48c11.59,0,17.77,8.79,17.77,23.88V112.25z"/>
</g>
</svg>
