<?xml version="1.0" encoding="utf-8"?>
<!-- Generator: Adobe Illustrator 24.0.0, SVG Export Plug-In . SVG Version: 6.00 Build 0)  -->
<svg version="1.1" id="レイヤー_1" xmlns="http://www.w3.org/2000/svg" xmlns:xlink="http://www.w3.org/1999/xlink" x="0px"
	 y="0px" width="1320px" height="320px" viewBox="0 0 1320 320" style="enable-background:new 0 0 1320 320;" xml:space="preserve">
<style type="text/css">
	.st0{fill:none;}
	.st1{fill:#FFFFFF;}
</style>
<rect class="st0" width="1320" height="320"/>
<g>
	<g>
		<path class="st1" d="M1034.58,41.81c-13.52,0-27.53,8-34.91,18.24V41.81h-29.1v127.06h29.1V127.6c0-33.93,9.14-56.78,34.91-56.78
			V41.81z"/>
		<path class="st1" d="M783.56,139.85c-0.28-0.34-0.71-1.08-0.71-2.52v-0.1V89.61v-6.03c0-22.22-17.45-40.41-39.4-41.78H705.9v29.02
			l37.56,0.14c5.87,1.22,10.3,6.41,10.3,12.62l-0.55,1.59h-28.89c-13.83,0-28.75,12.05-28.75,31.53v20.63
			c0,19.48,14.92,31.53,28.75,31.53h29.8c4.83,0,9.78-1.5,14.2-4.25c4.42,2.75,9.37,4.25,14.2,4.25h11.56v-29.02H783.56z
			 M753.75,137.24v0.1c0,1.43-0.42,2.18-0.71,2.52h-27.68c-0.28-0.34-0.71-1.08-0.71-2.52v-20.63c0-1.43,0.42-2.18,0.71-2.52h28.38
			V137.24z"/>
		<path class="st1" d="M932.17,23.78h-29.1v18.03h-13.71v29.02h13.71v66.51c0,19.48,14.92,31.53,28.75,31.53h24.98v-29.02h-23.92
			c-0.28-0.34-0.71-1.08-0.71-2.52V70.82h24.63V41.81h-24.63V23.78z"/>
		<path class="st1" d="M847.49,85.17l-15.54,0.14c-4.01,0-7.27-3.25-7.27-7.25c0-4,3.26-7.25,7.27-7.25h43.63V41.81h-43.63
			c-20.06,0-36.37,16.26-36.37,36.26s16.31,36.26,36.37,36.26l15.54,0c5.87,1.22,10.3,6.41,10.3,12.62c0,7.11-5.8,12.9-12.93,12.9
			h-37.02v29.02h37.02c23.18,0,42.04-18.81,42.04-41.92C886.89,104.72,869.44,86.54,847.49,85.17z"/>
		<polygon class="st1" points="693.46,41.81 657.73,41.81 639.43,73.96 621.12,41.81 585.39,41.81 621.56,105.34 585.39,168.87 
			621.12,168.87 639.43,136.71 657.73,168.87 693.46,168.87 657.29,105.34 		"/>
		<polygon class="st1" points="572.75,52.8 572.75,23.78 477.71,23.78 477.71,168.87 572.75,168.87 572.75,139.85 511.76,139.85 
			511.76,110.83 563.45,110.83 563.45,81.81 511.76,81.81 511.76,52.8 		"/>
		<path class="st1" d="M1100,41.81c-35.19,0-63.72,28.44-63.72,63.53c0,35.09,28.53,63.53,63.72,63.53s63.72-28.44,63.72-63.53
			C1163.72,70.25,1135.19,41.81,1100,41.81z M1118.05,113.56l11.15,34.22l-29.2-21.15l-29.2,21.15l11.15-34.22l-29.2-21.15h36.09
			L1100,58.19l11.15,34.22h36.09L1118.05,113.56z"/>
	</g>
	<g>
		<path class="st1" d="M477.71,199.74c4.92-0.97,11.79-1.71,20.43-1.71c10.02,0,17.39,1.81,22.49,6.52
			c4.82,4.28,7.67,11.33,7.67,19.03c0,22.99-17.19,28.35-29.08,28.35c-1.67,0-3.14-0.12-4.32-0.22v29.51h-17.19V199.74z
			 M494.9,236.94c1.08,0.12,2.17,0.22,3.93,0.22c8.05,0,12.37-5.24,12.37-12.73c0-7.58-4.22-11.76-11.1-11.76
			c-2.35,0-4.22,0.31-5.2,0.63V236.94z"/>
		<path class="st1" d="M549.98,281.22h-17.29v-83.19h17.29V281.22z"/>
		<path class="st1" d="M601.07,267.47c0,5.16,0.2,10.23,0.88,13.74h-15.52l-0.98-5.59h-0.29c-3.35,4.66-8.55,6.73-14.25,6.73
			c-10.01,0-16.59-8.07-16.59-17.87c0-15.41,13.06-22.02,29.36-22.12c0-4.45-1.87-7.64-8.84-7.64c-5.2,0-10.12,1.65-13.66,3.92
			l-3.14-11.79c3.53-2.05,10.7-4.96,20.23-4.96c18.27,0,22.79,12.2,22.79,25.12V267.47z M584.27,253.73
			c-7.17,0-13.27,2.17-13.27,8.88c0,4.75,2.75,6.83,5.8,6.83c3.54,0,7.47-2.69,7.47-8.17V253.73z"/>
		<path class="st1" d="M653.55,223.03l-12.09,41.34c-5.69,17.87-10.31,27.7-16.31,34.11c-5.59,5.69-11.79,7.95-15.42,8.57
			l-4.22-15.49c7.17-1.55,14.05-9.09,14.05-12.5c0-0.63-0.2-1.45-0.7-2.59l-18.07-53.42h18.96l6.49,28.52
			c0.78,3.31,1.57,7.03,2.07,10.13h0.3c0.58-3.11,1.17-6.83,1.77-10.03l5.3-28.62H653.55z"/>
		<path class="st1" d="M674.35,229.23c2.95-4.33,7.65-7.34,14.14-7.34c12.27,0,19.64,12.3,19.64,28.94
			c0,20.88-10.61,31.53-22.19,31.53c-5.4,0-10.32-2.07-13.85-8.48h-0.19l-0.88,7.34h-14.64c0.2-4.55,0.38-11.37,0.38-17.77v-65.41
			h17.29v31.2H674.35z M674.05,258.07c0,6.51,3.93,9.82,7.67,9.82c5.79,0,9.04-5.69,9.04-16.02c0-9.09-2.95-15.39-9.04-15.39
			c-3.83,0-7.67,3.61-7.67,9.92V258.07z"/>
		<path class="st1" d="M757.6,251.77c0,22.64-12.4,30.59-23.22,30.59c-13.73,0-23.15-11.16-23.15-29.88
			c0-19.53,10.03-30.59,23.68-30.59C749.07,221.89,757.6,234.29,757.6,251.77z M734.56,235.12c-5.8,0-7.65,8.89-7.65,16.96
			c0,9.71,2.38,17.05,7.65,17.05c5.02,0,7.38-7.75,7.38-17.05C741.94,243.5,739.83,235.12,734.56,235.12z"/>
		<path class="st1" d="M806.97,251.77c0,22.64-12.4,30.59-23.22,30.59c-13.73,0-23.15-11.16-23.15-29.88
			c0-19.53,10.03-30.59,23.68-30.59C798.43,221.89,806.97,234.29,806.97,251.77z M783.92,235.12c-5.8,0-7.65,8.89-7.65,16.96
			c0,9.71,2.38,17.05,7.65,17.05c5.02,0,7.38-7.75,7.38-17.05C791.3,243.5,789.19,235.12,783.92,235.12z"/>
		<path class="st1" d="M862.81,281.22h-20.43l-10.12-23.25l-3.44,5.37v17.87h-17.29v-83.19h17.29v49.7h0.3
			c1.18-2.99,2.15-5.37,3.34-7.65l8.65-17.05h19.93l-16.89,23.98L862.81,281.22z"/>
		<path class="st1" d="M925.62,279.56c-2.65,1.24-8.55,2.68-16.01,2.68c-24.06,0-35.46-17.66-35.46-39.78
			c0-28.62,17.69-42.16,37.23-42.16c7.65,0,12.96,1.65,15.12,2.89l-3.15,14.78c-2.55-1.24-6.19-2.38-10.99-2.38
			c-10.9,0-20.04,7.85-20.04,25.84c0,16.63,7.85,25.32,20.14,25.32c3.92,0,8.34-0.83,10.99-1.87L925.62,279.56z"/>
		<path class="st1" d="M973.33,251.77c0,22.64-12.4,30.59-23.22,30.59c-13.73,0-23.15-11.16-23.15-29.88
			c0-19.53,10.03-30.59,23.68-30.59C964.79,221.89,973.33,234.29,973.33,251.77z M950.28,235.12c-5.8,0-7.65,8.89-7.65,16.96
			c0,9.71,2.38,17.05,7.65,17.05c5.02,0,7.38-7.75,7.38-17.05C957.66,243.5,955.55,235.12,950.28,235.12z"/>
		<path class="st1" d="M995.19,281.22H977.9v-83.19h17.29V281.22z"/>
		<path class="st1" d="M1018.38,281.22h-17.29v-83.19h17.29V281.22z"/>
		<path class="st1" d="M1068.54,279.05c-5.12,2.17-11.69,3.19-18.27,3.19c-17.39,0-27.21-10.95-27.21-29.14
			c0-16.63,9.24-31.22,25.74-31.22c13.16,0,22.48,9.31,22.48,29.05c0,2.79-0.09,5.67-0.48,7.64h-31.23
			c0.38,6.93,6.29,10.13,13.46,10.13c5,0,9.32-0.93,13.26-2.28L1068.54,279.05z M1055.47,246.08c0-5.17-1.57-11.67-7.57-11.67
			c-5.89,0-8.14,6.81-8.44,11.67H1055.47z"/>
		<path class="st1" d="M1114.33,280.08c-2.35,1.14-7.27,2.17-12.67,2.17c-16.51,0-27.01-10.85-27.01-29.45
			c0-17.56,10.8-30.79,29.36-30.79c4.33,0,8.45,0.93,10.9,1.85l-2.45,13.74c-1.77-0.61-4.12-1.34-7.57-1.34
			c-7.85,0-12.86,6.41-12.76,15.82c0,10.12,5.5,15.81,12.86,15.81c3.05,0,5.6-0.53,7.77-1.45L1114.33,280.08z"/>
		<path class="st1" d="M1124.3,212.4l17.09-5.07v15.71h11.49v13.13h-11.49v21.91c0,6.81,2.05,9.29,6.19,9.29
			c1.95,0,3.04-0.1,4.52-0.51l0.1,14.05c-2.17,0.73-6,1.34-10.62,1.34c-16.99,0-17.28-15.28-17.28-21.89v-24.19h-6.78v-13.13h6.78
			V212.4z"/>
		<path class="st1" d="M1165,216.53c-5.2,0-8.84-3.93-8.84-9.21c0-5.47,3.72-9.29,8.84-9.29c5.2,0,8.84,3.82,8.84,9.29
			S1170,216.53,1165,216.53z M1173.64,281.22h-17.29v-58.19h17.29V281.22z"/>
		<path class="st1" d="M1224.43,251.77c0,22.64-12.4,30.59-23.22,30.59c-13.73,0-23.15-11.16-23.15-29.88
			c0-19.53,10.03-30.59,23.68-30.59C1215.89,221.89,1224.43,234.29,1224.43,251.77z M1201.38,235.12c-5.8,0-7.65,8.89-7.65,16.96
			c0,9.71,2.38,17.05,7.65,17.05c5.02,0,7.38-7.75,7.38-17.05C1208.76,243.5,1206.65,235.12,1201.38,235.12z"/>
		<path class="st1" d="M1277.92,281.22h-17.29v-33.8c0-6.09-1.77-10.53-6.67-10.53c-3.63,0-7.47,2.79-7.47,10.23v34.1h-17.29v-39.58
			c0-6.91-0.19-13.13-0.38-18.6h14.82l0.88,7.34h0.3c2.45-3.92,7.67-8.48,15.32-8.48c11.59,0,17.77,8.79,17.77,23.88V281.22z"/>
	</g>
	<g>
		<polygon class="st1" points="239.36,138.63 230.47,111.25 221.57,138.63 192.78,138.63 216.07,155.55 207.18,182.93 
			230.47,166.01 253.76,182.93 244.86,155.55 268.16,138.63 		"/>
		<path class="st1" d="M406.08,109.1c-0.85,3.58-1.31,7.49-1.33,11.44c-3.25-0.77-6.89-3.15-9.91-6.17
			c-3.03-3.03-5.4-6.66-6.17-9.91c3.94-0.02,7.86-0.48,11.43-1.33l14.69-14.69l-51.87,7.41l-93.32,93.32
			c-2.04,2.04-4.23,3.82-6.49,5.47c-21.61,15.82-52.18,14.04-71.69-5.47c-13.96-13.96-18.82-33.57-14.7-51.52l-30.94,30.94
			c3.51,16.23,11.51,30.91,23.41,42.81c16.38,16.38,38.16,25.4,61.32,25.4c23.17,0,44.94-9.02,61.32-25.4l78.83-78.83
			c0.85-3.58,1.31-7.49,1.33-11.44c3.25,0.77,6.89,3.15,9.91,6.17c3.03,3.03,5.4,6.66,6.17,9.91c-3.95,0.02-7.86,0.48-11.44,1.33
			l-78.83,78.83c-17.98,17.98-41.88,27.88-67.3,27.88s-49.33-9.9-67.3-27.88c-11.79-11.79-19.99-26.12-24.31-41.91l-24.63,24.64
			c6.15,14.35,15.03,27.79,26.73,39.49c25.21,25.21,58.51,37.54,91.62,37c31.72-0.52,63.29-12.85,87.44-37l93.32-93.32l7.41-51.87
			L406.08,109.1z M372,120.54c-0.03-6.14-1.09-12.23-3.14-17c-1.04-2.42-2.31-4.53-3.87-6.09c2.32,2.32,5.8,4.06,9.85,5.23
			c4.03,1.16,8.63,1.75,13.24,1.77C386.55,110.95,378.5,119,372,120.54z M388.66,137.2c1.54-6.5,9.59-14.55,16.09-16.09
			c0.05,9.25,2.38,18.46,7,23.09C407.13,139.57,397.92,137.25,388.66,137.2z"/>
		<path class="st1" d="M191.42,110.97c0,0,4.24-3.83,6.49-5.48c21.61-15.82,52.18-14.04,71.7,5.47
			c13.96,13.96,18.82,33.57,14.7,51.52l30.94-30.94c-3.51-16.23-11.51-30.91-23.41-42.81c-16.38-16.38-38.16-25.4-61.32-25.4
			c-23.17,0-44.94,9.02-61.32,25.4l-78.84,78.84c-0.85,3.58-1.31,7.49-1.33,11.44c-3.25-0.77-6.89-3.15-9.91-6.17
			c-3.03-3.03-5.4-6.66-6.17-9.91c3.95-0.02,7.86-0.48,11.44-1.33l78.83-78.83c17.98-17.98,41.88-27.88,67.3-27.88
			s49.33,9.9,67.3,27.88c11.79,11.79,19.99,26.12,24.31,41.91l24.65-24.65c-6.15-14.35-15.03-27.79-26.73-39.49
			c-25.21-25.21-58.51-37.54-91.62-37c-31.72,0.52-63.29,12.85-87.44,37l-93.32,93.32l-7.41,51.85l14.69-14.69
			c0.85-3.58,1.31-7.49,1.33-11.44c3.25,0.77,6.89,3.15,9.91,6.17c3.03,3.03,5.4,6.66,6.17,9.91c-3.94,0.02-7.86,0.48-11.43,1.33
			l-14.69,14.69l51.87-7.41C98.11,204.28,191.42,110.97,191.42,110.97z M56.29,179.01c-0.05-9.25-2.38-18.46-7-23.09
			c4.63,4.63,13.84,6.96,23.09,7C70.83,169.42,62.78,177.47,56.29,179.01z M86.18,197.44c-4.03-1.16-8.63-1.75-13.24-1.77
			c1.54-6.5,9.59-14.55,16.09-16.09c0.03,6.14,1.09,12.23,3.14,17c1.04,2.42,2.31,4.53,3.87,6.09
			C93.71,200.35,90.24,198.61,86.18,197.44z"/>
	</g>
</g>
</svg>
