<?xml version="1.0" encoding="utf-8"?>
<!-- Generator: Adobe Illustrator 24.0.0, SVG Export Plug-In . SVG Version: 6.00 Build 0)  -->
<svg version="1.1" id="レイヤー_1" xmlns="http://www.w3.org/2000/svg" xmlns:xlink="http://www.w3.org/1999/xlink" x="0px"
	 y="0px" width="1320px" height="320px" viewBox="0 0 1320 320" style="enable-background:new 0 0 1320 320;" xml:space="preserve">
<style type="text/css">
	.st0{fill:none;}
	.st1{fill:#00325F;}
	.st2{fill:#FFFFFF;}
	.st3{fill:url(#SVGID_1_);}
	.st4{fill:url(#SVGID_2_);}
	.st5{fill:#8099AF;}
	.st6{fill:url(#SVGID_3_);}
	.st7{fill:url(#SVGID_4_);}
</style>
<rect class="st0" width="1320" height="320"/>
<g>
	<g>
		<path class="st1" d="M1034.58,41.81c-13.52,0-27.53,8-34.91,18.24V41.81h-29.1v127.06h29.1V127.6c0-33.93,9.14-56.78,34.91-56.78
			V41.81z"/>
		<path class="st1" d="M783.56,139.85c-0.28-0.34-0.71-1.08-0.71-2.52v-0.1V89.61v-6.03c0-22.22-17.45-40.41-39.4-41.78H705.9v29.02
			l37.56,0.14c5.87,1.22,10.3,6.41,10.3,12.62l-0.55,1.59h-28.89c-13.83,0-28.75,12.05-28.75,31.53v20.63
			c0,19.48,14.92,31.53,28.75,31.53h29.8c4.83,0,9.78-1.5,14.2-4.25c4.42,2.75,9.37,4.25,14.2,4.25h11.56v-29.02H783.56z
			 M753.75,137.24v0.1c0,1.43-0.42,2.18-0.71,2.52h-27.68c-0.28-0.34-0.71-1.08-0.71-2.52v-20.63c0-1.43,0.42-2.18,0.71-2.52h28.38
			V137.24z"/>
		<path class="st1" d="M932.17,23.78h-29.1v18.03h-13.71v29.02h13.71v66.51c0,19.48,14.92,31.53,28.75,31.53h24.98v-29.02h-23.92
			c-0.28-0.34-0.71-1.08-0.71-2.52V70.82h24.63V41.81h-24.63V23.78z"/>
		<path class="st1" d="M847.49,85.17l-15.54,0.14c-4.01,0-7.27-3.25-7.27-7.25c0-4,3.26-7.25,7.27-7.25h43.63V41.81h-43.63
			c-20.06,0-36.37,16.26-36.37,36.26s16.31,36.26,36.37,36.26l15.54,0c5.87,1.22,10.3,6.41,10.3,12.62c0,7.11-5.8,12.9-12.93,12.9
			h-37.02v29.02h37.02c23.18,0,42.04-18.81,42.04-41.92C886.89,104.72,869.44,86.54,847.49,85.17z"/>
		<polygon class="st1" points="693.46,41.81 657.73,41.81 639.43,73.96 621.12,41.81 585.39,41.81 621.56,105.34 585.39,168.87 
			621.12,168.87 639.43,136.71 657.73,168.87 693.46,168.87 657.29,105.34 		"/>
		<polygon class="st1" points="572.75,52.8 572.75,23.78 477.71,23.78 477.71,168.87 572.75,168.87 572.75,139.85 511.76,139.85 
			511.76,110.83 563.45,110.83 563.45,81.81 511.76,81.81 511.76,52.8 		"/>
		<path class="st1" d="M1100,41.81c-35.19,0-63.72,28.44-63.72,63.53c0,35.09,28.53,63.53,63.72,63.53s63.72-28.44,63.72-63.53
			C1163.72,70.25,1135.19,41.81,1100,41.81z M1118.05,113.56l11.15,34.22l-29.2-21.15l-29.2,21.15l11.15-34.22l-29.2-21.15h36.09
			L1100,58.19l11.15,34.22h36.09L1118.05,113.56z"/>
	</g>
	<g>
		<path class="st2" d="M388.31,104.53c-1.54,6.49-9.6,14.52-16.11,16.06c-0.05-9.24-2.38-18.43-7.01-23.05
			C369.82,102.16,379.04,104.48,388.31,104.53z"/>
		<polygon class="st2" points="253.79,182.89 230.47,165.99 207.14,182.89 216.05,155.55 192.73,138.65 221.56,138.65 
			230.47,111.31 239.38,138.65 268.21,138.65 244.88,155.55 		"/>
		<path class="st2" d="M72.15,162.91c-1.54,6.49-9.6,14.53-16.11,16.06c-0.05-9.24-2.38-18.43-7.01-23.05
			C53.67,160.54,62.89,162.86,72.15,162.91z"/>
		<path class="st2" d="M49.03,202.6c4.63-4.62,6.97-13.81,7.01-23.05c3.25,0.77,6.9,3.14,9.93,6.16c3.03,3.02,5.41,6.65,6.18,9.9
			C62.89,195.65,53.67,197.98,49.03,202.6z"/>
		<path class="st2" d="M72.73,195.6c1.54-6.49,9.6-14.52,16.11-16.06c0.05,9.24,2.38,18.43,7.01,23.05
			C91.22,197.98,82,195.65,72.73,195.6z"/>
		<path class="st2" d="M88.84,178.97c-3.25-0.77-6.9-3.14-9.93-6.16c-3.03-3.02-5.41-6.65-6.18-9.9c9.27-0.05,18.49-2.37,23.12-6.99
			C91.22,160.54,88.88,169.73,88.84,178.97z"/>
		<path class="st2" d="M365.18,144.22c4.63-4.62,6.97-13.81,7.01-23.05c3.25,0.77,6.9,3.14,9.93,6.16c3.03,3.02,5.41,6.65,6.18,9.9
			C379.04,137.27,369.82,139.6,365.18,144.22z"/>
		<path class="st2" d="M388.88,137.23c1.54-6.49,9.6-14.52,16.11-16.06c0.05,9.24,2.38,18.43,7.01,23.05
			C407.37,139.6,398.15,137.27,388.88,137.23z"/>
		<path class="st2" d="M404.99,120.59c-3.25-0.77-6.9-3.14-9.93-6.16c-3.03-3.02-5.41-6.65-6.18-9.9
			c9.27-0.05,18.49-2.37,23.12-6.99C407.37,102.16,405.04,111.35,404.99,120.59z"/>
		<polygon class="st2" points="140.21,162.05 140.21,162.05 139.39,162.87 		"/>
		<path class="st1" d="M179.17,201.41c-28.17-28.33-28.17-74.35,0-102.69c28.33-28.17,74.35-28.17,102.69,0
			c28.17,28.33,28.17,74.35,0,102.69C253.53,229.58,207.51,229.58,179.17,201.41z M221.56,138.65h-28.83l23.32,16.9l-8.91,27.34
			l23.32-16.9l23.32,16.9l-8.91-27.34l23.32-16.9h-28.83l-8.91-27.34L221.56,138.65z"/>
		<linearGradient id="SVGID_1_" gradientUnits="userSpaceOnUse" x1="338.9291" y1="220.978" x2="210.0615" y2="92.1105">
			<stop  offset="0" style="stop-color:#00325F"/>
			<stop  offset="1" style="stop-color:#8099AF"/>
		</linearGradient>
		<path class="st3" d="M412,97.54c-4.63,4.62-6.97,13.81-7.01,23.05c0,0.19,0,0.38,0,0.57c0.05,9.24,2.38,18.43,7.01,23.05
			c-4.63-4.62-13.85-6.95-23.12-6.99c-0.19,0-0.38,0-0.58,0c-9.27,0.05-18.49,2.37-23.12,6.99l-70.27,70.06
			c-35.57,35.46-93.23,35.46-128.8,0c-14.73-14.68-23.35-33.14-25.88-52.26l-29.51,29.42c6.07,17.55,16.11,34.03,30.14,48.01
			c25.25,25.17,58.59,37.48,91.75,36.94c31.77-0.52,63.38-12.83,87.56-36.94l93.44-93.17l8.42-58.75L412,97.54z"/>
		<linearGradient id="SVGID_2_" gradientUnits="userSpaceOnUse" x1="326.3698" y1="183.2008" x2="222.714" y2="79.545">
			<stop  offset="0" style="stop-color:#8099AF"/>
			<stop  offset="1" style="stop-color:#00325F"/>
		</linearGradient>
		<path class="st4" d="M363.11,95.93l-93.44,93.17c-21.58,21.52-56.71,21.52-78.29,0s-21.58-56.54,0-78.06l-51.14,50.99
			c2.53,19.11,11.15,37.57,25.88,52.26c35.57,35.46,93.23,35.46,128.8,0l70.27-70.06c4.63-4.62,6.97-13.81,7.01-23.05
			c0-0.19,0-0.38,0-0.57c-0.05-9.24-2.38-18.43-7.01-23.05c4.63,4.62,13.85,6.95,23.12,6.99c0.19,0,0.38,0,0.58,0
			c9.27-0.05,18.49-2.37,23.12-6.99l10.03-10L363.11,95.93z"/>
		<path class="st5" d="M395.06,114.43c-3.03-3.02-5.41-6.65-6.18-9.9c-0.19,0-0.38,0-0.58,0c-1.54,6.49-9.6,14.52-16.11,16.06
			c0,0.19,0,0.38,0,0.57c3.25,0.77,6.9,3.14,9.93,6.16c3.03,3.02,5.41,6.65,6.18,9.9c0.19,0,0.38,0,0.58,0
			c1.54-6.49,9.6-14.52,16.11-16.06c0-0.19,0-0.38,0-0.57C401.74,119.82,398.09,117.45,395.06,114.43z"/>
		<linearGradient id="SVGID_3_" gradientUnits="userSpaceOnUse" x1="250.9732" y1="208.0248" x2="122.1058" y2="79.1573">
			<stop  offset="0" style="stop-color:#00325F"/>
			<stop  offset="1" style="stop-color:#8099AF"/>
		</linearGradient>
		<path class="st6" d="M320.17,60.68c-25.25-25.17-58.59-37.48-91.75-36.94c-31.77,0.52-63.38,12.83-87.56,36.94l-93.44,93.17
			L39,212.6l10.03-10c4.63-4.62,6.97-13.81,7.01-23.05c0-0.19,0-0.38,0-0.57c-0.05-9.24-2.38-18.43-7.01-23.05
			c4.63,4.62,13.85,6.95,23.12,6.99c0.19,0,0.38,0,0.58,0c9.27-0.05,18.49-2.37,23.12-6.99l12.17-12.13l58.1-57.93
			c35.57-35.46,93.23-35.46,128.8,0c14.73,14.68,23.35,33.14,25.88,52.26l29.51-29.42C344.24,91.14,334.2,74.66,320.17,60.68z"/>
		<linearGradient id="SVGID_4_" gradientUnits="userSpaceOnUse" x1="238.3208" y1="220.5902" x2="134.6651" y2="116.9345">
			<stop  offset="0" style="stop-color:#8099AF"/>
			<stop  offset="1" style="stop-color:#00325F"/>
		</linearGradient>
		<path class="st7" d="M320.8,138.11c-2.53-19.11-11.15-37.57-25.88-52.26c-35.57-35.46-93.23-35.46-128.8,0l-70.27,70.06
			c-4.63,4.62-6.97,13.81-7.01,23.05c0,0.19,0,0.38,0,0.57c0.05,9.24,2.38,18.43,7.01,23.05c-4.63-4.62-13.85-6.95-23.12-6.99
			c-0.19,0-0.38,0-0.58,0c-9.27,0.05-18.49,2.37-23.12,6.99L39,212.6l58.93-8.39l93.44-93.17c21.58-21.52,56.71-21.52,78.29,0
			c21.58,21.52,21.58,56.54,0,78.06L320.8,138.11z"/>
		<path class="st5" d="M78.91,172.81c-3.03-3.02-5.41-6.65-6.18-9.9c-0.19,0-0.38,0-0.58,0c-1.54,6.49-9.6,14.53-16.11,16.06
			c0,0.19,0,0.38,0,0.57c3.25,0.77,6.9,3.14,9.93,6.16c3.03,3.02,5.41,6.65,6.18,9.9c0.19,0,0.38,0,0.58,0
			c1.54-6.49,9.6-14.52,16.11-16.06c0-0.19,0-0.38,0-0.57C85.58,178.2,81.94,175.83,78.91,172.81z"/>
	</g>
	<g>
		<path class="st1" d="M477.71,199.74c4.92-0.97,11.79-1.71,20.43-1.71c10.02,0,17.39,1.81,22.49,6.52
			c4.82,4.28,7.67,11.33,7.67,19.03c0,22.99-17.19,28.35-29.08,28.35c-1.67,0-3.14-0.12-4.32-0.22v29.51h-17.19V199.74z
			 M494.9,236.94c1.08,0.12,2.17,0.22,3.93,0.22c8.05,0,12.37-5.24,12.37-12.73c0-7.58-4.22-11.76-11.1-11.76
			c-2.35,0-4.22,0.31-5.2,0.63V236.94z"/>
		<path class="st1" d="M549.98,281.22h-17.29v-83.19h17.29V281.22z"/>
		<path class="st1" d="M601.07,267.47c0,5.16,0.2,10.23,0.88,13.74h-15.52l-0.98-5.59h-0.29c-3.35,4.66-8.55,6.73-14.25,6.73
			c-10.01,0-16.59-8.07-16.59-17.87c0-15.41,13.06-22.02,29.36-22.12c0-4.45-1.87-7.64-8.84-7.64c-5.2,0-10.12,1.65-13.66,3.92
			l-3.14-11.79c3.53-2.05,10.7-4.96,20.23-4.96c18.27,0,22.79,12.2,22.79,25.12V267.47z M584.27,253.73
			c-7.17,0-13.27,2.17-13.27,8.88c0,4.75,2.75,6.83,5.8,6.83c3.54,0,7.47-2.69,7.47-8.17V253.73z"/>
		<path class="st1" d="M653.55,223.03l-12.09,41.34c-5.69,17.87-10.31,27.7-16.31,34.11c-5.59,5.69-11.79,7.95-15.42,8.57
			l-4.22-15.49c7.17-1.55,14.05-9.09,14.05-12.5c0-0.63-0.2-1.45-0.7-2.59l-18.07-53.42h18.96l6.49,28.52
			c0.78,3.31,1.57,7.03,2.07,10.13h0.3c0.58-3.11,1.17-6.83,1.77-10.03l5.3-28.62H653.55z"/>
		<path class="st1" d="M674.35,229.23c2.95-4.33,7.65-7.34,14.14-7.34c12.27,0,19.64,12.3,19.64,28.94
			c0,20.88-10.61,31.53-22.19,31.53c-5.4,0-10.32-2.07-13.85-8.48h-0.19l-0.88,7.34h-14.64c0.2-4.55,0.38-11.37,0.38-17.77v-65.41
			h17.29v31.2H674.35z M674.05,258.07c0,6.51,3.93,9.82,7.67,9.82c5.79,0,9.04-5.69,9.04-16.02c0-9.09-2.95-15.39-9.04-15.39
			c-3.83,0-7.67,3.61-7.67,9.92V258.07z"/>
		<path class="st1" d="M757.6,251.77c0,22.64-12.4,30.59-23.22,30.59c-13.73,0-23.15-11.16-23.15-29.88
			c0-19.53,10.03-30.59,23.68-30.59C749.07,221.89,757.6,234.29,757.6,251.77z M734.56,235.12c-5.8,0-7.65,8.89-7.65,16.96
			c0,9.71,2.38,17.05,7.65,17.05c5.02,0,7.38-7.75,7.38-17.05C741.94,243.5,739.83,235.12,734.56,235.12z"/>
		<path class="st1" d="M806.97,251.77c0,22.64-12.4,30.59-23.22,30.59c-13.73,0-23.15-11.16-23.15-29.88
			c0-19.53,10.03-30.59,23.68-30.59C798.43,221.89,806.97,234.29,806.97,251.77z M783.92,235.12c-5.8,0-7.65,8.89-7.65,16.96
			c0,9.71,2.38,17.05,7.65,17.05c5.02,0,7.38-7.75,7.38-17.05C791.3,243.5,789.19,235.12,783.92,235.12z"/>
		<path class="st1" d="M862.81,281.22h-20.43l-10.12-23.25l-3.44,5.37v17.87h-17.29v-83.19h17.29v49.7h0.3
			c1.18-2.99,2.15-5.37,3.34-7.65l8.65-17.05h19.93l-16.89,23.98L862.81,281.22z"/>
		<path class="st1" d="M925.62,279.56c-2.65,1.24-8.55,2.68-16.01,2.68c-24.06,0-35.46-17.66-35.46-39.78
			c0-28.62,17.69-42.16,37.23-42.16c7.65,0,12.96,1.65,15.12,2.89l-3.15,14.78c-2.55-1.24-6.19-2.38-10.99-2.38
			c-10.9,0-20.04,7.85-20.04,25.84c0,16.63,7.85,25.32,20.14,25.32c3.92,0,8.34-0.83,10.99-1.87L925.62,279.56z"/>
		<path class="st1" d="M973.33,251.77c0,22.64-12.4,30.59-23.22,30.59c-13.73,0-23.15-11.16-23.15-29.88
			c0-19.53,10.03-30.59,23.68-30.59C964.79,221.89,973.33,234.29,973.33,251.77z M950.28,235.12c-5.8,0-7.65,8.89-7.65,16.96
			c0,9.71,2.38,17.05,7.65,17.05c5.02,0,7.38-7.75,7.38-17.05C957.66,243.5,955.55,235.12,950.28,235.12z"/>
		<path class="st1" d="M995.19,281.22H977.9v-83.19h17.29V281.22z"/>
		<path class="st1" d="M1018.38,281.22h-17.29v-83.19h17.29V281.22z"/>
		<path class="st1" d="M1068.54,279.05c-5.12,2.17-11.69,3.19-18.27,3.19c-17.39,0-27.21-10.95-27.21-29.14
			c0-16.63,9.24-31.22,25.74-31.22c13.16,0,22.48,9.31,22.48,29.05c0,2.79-0.09,5.67-0.48,7.64h-31.23
			c0.38,6.93,6.29,10.13,13.46,10.13c5,0,9.32-0.93,13.26-2.28L1068.54,279.05z M1055.47,246.08c0-5.17-1.57-11.67-7.57-11.67
			c-5.89,0-8.14,6.81-8.44,11.67H1055.47z"/>
		<path class="st1" d="M1114.33,280.08c-2.35,1.14-7.27,2.17-12.67,2.17c-16.51,0-27.01-10.85-27.01-29.45
			c0-17.56,10.8-30.79,29.36-30.79c4.33,0,8.45,0.93,10.9,1.85l-2.45,13.74c-1.77-0.61-4.12-1.34-7.57-1.34
			c-7.85,0-12.86,6.41-12.76,15.82c0,10.12,5.5,15.81,12.86,15.81c3.05,0,5.6-0.53,7.77-1.45L1114.33,280.08z"/>
		<path class="st1" d="M1124.3,212.4l17.09-5.07v15.71h11.49v13.13h-11.49v21.91c0,6.81,2.05,9.29,6.19,9.29
			c1.95,0,3.04-0.1,4.52-0.51l0.1,14.05c-2.17,0.73-6,1.34-10.62,1.34c-16.99,0-17.28-15.28-17.28-21.89v-24.19h-6.78v-13.13h6.78
			V212.4z"/>
		<path class="st1" d="M1165,216.53c-5.2,0-8.84-3.93-8.84-9.21c0-5.47,3.72-9.29,8.84-9.29c5.2,0,8.84,3.82,8.84,9.29
			S1170,216.53,1165,216.53z M1173.64,281.22h-17.29v-58.19h17.29V281.22z"/>
		<path class="st1" d="M1224.43,251.77c0,22.64-12.4,30.59-23.22,30.59c-13.73,0-23.15-11.16-23.15-29.88
			c0-19.53,10.03-30.59,23.68-30.59C1215.89,221.89,1224.43,234.29,1224.43,251.77z M1201.38,235.12c-5.8,0-7.65,8.89-7.65,16.96
			c0,9.71,2.38,17.05,7.65,17.05c5.02,0,7.38-7.75,7.38-17.05C1208.76,243.5,1206.65,235.12,1201.38,235.12z"/>
		<path class="st1" d="M1277.92,281.22h-17.29v-33.8c0-6.09-1.77-10.53-6.67-10.53c-3.63,0-7.47,2.79-7.47,10.23v34.1h-17.29v-39.58
			c0-6.91-0.19-13.13-0.38-18.6h14.82l0.88,7.34h0.3c2.45-3.92,7.67-8.48,15.32-8.48c11.59,0,17.77,8.79,17.77,23.88V281.22z"/>
	</g>
</g>
</svg>
