<?xml version="1.0" encoding="utf-8"?>
<!-- Generator: Adobe Illustrator 24.0.0, SVG Export Plug-In . SVG Version: 6.00 Build 0)  -->
<svg version="1.1" id="レイヤー_1" xmlns="http://www.w3.org/2000/svg" xmlns:xlink="http://www.w3.org/1999/xlink" x="0px"
	 y="0px" width="379px" height="80px" viewBox="0 0 379 80" style="enable-background:new 0 0 379 80;" xml:space="preserve">
<style type="text/css">
	.st0{fill:#CCCCCC;}
	.st1{fill:#FFFFFF;}
</style>
<g>
	<path class="st1" d="M307.05,9.94c-7.45,0-15.18,4.41-19.25,10.06V9.94h-16.05V80h16.05V57.25c0-18.71,5.04-31.31,19.25-31.31V9.94
		z"/>
	<path class="st1" d="M168.64,64c-0.16-0.19-0.39-0.6-0.39-1.39v-0.05V36.3v-3.32c0-12.25-9.62-22.28-21.73-23.04h-20.71v16
		l20.71,0.08c3.24,0.67,5.68,3.54,5.68,6.96l-0.31,0.87h-15.93c-7.62,0-15.85,6.65-15.85,17.39v11.37
		c0,10.74,8.23,17.39,15.85,17.39h16.43c2.66,0,5.39-0.83,7.83-2.34c2.43,1.51,5.17,2.34,7.83,2.34h6.37V64H168.64z M152.2,62.56
		v0.05c0,0.79-0.23,1.2-0.39,1.39h-15.26c-0.16-0.19-0.39-0.6-0.39-1.39V51.24c0-0.79,0.23-1.2,0.39-1.39h15.65V62.56z"/>
	<path class="st1" d="M250.58,0h-16.05v9.94h-7.56v16h7.56v36.67c0,10.74,8.23,17.39,15.85,17.39h13.78V64h-13.19
		c-0.16-0.19-0.39-0.6-0.39-1.39V25.94h13.58v-16h-13.58V0z"/>
	<path class="st1" d="M203.89,33.85l-8.57,0.08c-2.21,0-4.01-1.79-4.01-4s1.8-4,4.01-4h24.06v-16h-24.06
		c-11.06,0-20.05,8.97-20.05,19.99s8.99,19.99,20.05,19.99l8.57,0c3.24,0.67,5.68,3.54,5.68,6.96c0,3.92-3.2,7.11-7.13,7.11h-20.41
		v16h20.41c12.78,0,23.18-10.37,23.18-23.11C225.62,44.63,216,34.61,203.89,33.85z"/>
	<polygon class="st1" points="118.96,9.94 99.26,9.94 89.17,27.67 79.07,9.94 59.38,9.94 79.32,44.97 59.38,80 79.07,80 
		89.17,62.27 99.26,80 118.96,80 99.02,44.97 	"/>
	<polygon class="st1" points="52.4,16 52.4,0 0,0 0,80 52.4,80 52.4,64 18.77,64 18.77,48 47.27,48 47.27,32 18.77,32 18.77,16 	"/>
	<path class="st1" d="M343.12,9.94c-19.4,0-35.13,15.68-35.13,35.03c0,19.35,15.73,35.03,35.13,35.03s35.13-15.68,35.13-35.03
		C378.26,25.62,362.53,9.94,343.12,9.94z M353.07,49.5l6.15,18.87l-16.1-11.66l-16.1,11.66l6.15-18.87l-16.1-11.66h19.9l6.15-18.87
		l6.15,18.87h19.9L353.07,49.5z"/>
</g>
</svg>
