<?xml version="1.0" encoding="utf-8"?>
<!-- Generator: Adobe Illustrator 24.0.0, SVG Export Plug-In . SVG Version: 6.00 Build 0)  -->
<svg version="1.1" id="レイヤー_1" xmlns="http://www.w3.org/2000/svg" xmlns:xlink="http://www.w3.org/1999/xlink" x="0px"
	 y="0px" width="640px" height="150px" viewBox="0 0 640 150" style="enable-background:new 0 0 640 150;" xml:space="preserve">
<style type="text/css">
	.st0{fill:none;}
	.st1{fill:#FFFFFF;}
	.st2{fill:#002B62;}
	.st3{fill:url(#SVGID_1_);}
	.st4{fill:url(#SVGID_2_);}
	.st5{fill:#8095B0;}
	.st6{fill:url(#SVGID_3_);}
	.st7{fill:url(#SVGID_4_);}
	.st8{fill:url(#SVGID_5_);}
	.st9{fill:url(#SVGID_6_);}
	.st10{fill:url(#SVGID_7_);}
	.st11{fill:url(#SVGID_8_);}
	.st12{fill:url(#SVGID_9_);}
	.st13{fill:url(#SVGID_10_);}
	.st14{fill:url(#SVGID_11_);}
	.st15{fill:url(#SVGID_12_);}
</style>
<rect class="st0" width="640" height="150"/>
<g>
	<g>
		<path class="st1" d="M547.12,44.23c-7.63,0-15.54,4.52-19.7,10.3v-10.3h-16.43v71.71h16.43V92.65c0-19.15,5.16-32.05,19.7-32.05
			V44.23z"/>
		<path class="st1" d="M405.44,99.57c-0.16-0.19-0.4-0.61-0.4-1.42v-0.05V71.21v-3.4c0-12.54-9.85-22.81-22.24-23.58h-21.2v16.38
			l21.2,0.08c3.31,0.69,5.81,3.62,5.81,7.12l-0.31,0.89H372c-7.8,0-16.23,6.8-16.23,17.8v11.64c0,10.99,8.42,17.8,16.23,17.8h16.82
			c2.73,0,5.52-0.85,8.01-2.4c2.49,1.55,5.29,2.4,8.01,2.4h6.52V99.57H405.44z M388.62,98.09v0.05c0,0.81-0.24,1.23-0.4,1.42H372.6
			c-0.16-0.19-0.4-0.61-0.4-1.42V86.5c0-0.81,0.24-1.23,0.4-1.42h16.02V98.09z"/>
		<path class="st1" d="M489.32,34.06h-16.43v10.17h-7.74v16.38h7.74v37.54c0,10.99,8.42,17.8,16.23,17.8h14.1V99.57h-13.5
			c-0.16-0.19-0.4-0.61-0.4-1.42V60.61h13.9V44.23h-13.9V34.06z"/>
		<path class="st1" d="M441.53,68.71l-8.77,0.08c-2.26,0-4.1-1.84-4.1-4.09s1.84-4.09,4.1-4.09h24.62V44.23h-24.62
			c-11.32,0-20.53,9.18-20.53,20.47s9.21,20.47,20.53,20.47l8.77,0c3.31,0.69,5.81,3.62,5.81,7.12c0,4.01-3.28,7.28-7.3,7.28h-20.89
			v16.38h20.89c13.08,0,23.73-10.61,23.73-23.66C463.76,79.74,453.91,69.48,441.53,68.71z"/>
		<polygon class="st1" points="354.59,44.23 334.43,44.23 324.1,62.38 313.77,44.23 293.6,44.23 314.01,80.09 293.6,115.94 
			313.77,115.94 324.1,97.8 334.43,115.94 354.59,115.94 334.18,80.09 		"/>
		<polygon class="st1" points="286.47,50.43 286.47,34.06 232.83,34.06 232.83,115.94 286.47,115.94 286.47,99.57 252.04,99.57 
			252.04,83.19 281.22,83.19 281.22,66.81 252.04,66.81 252.04,50.43 		"/>
		<path class="st1" d="M584.04,44.23c-19.86,0-35.96,16.05-35.96,35.86c0,19.8,16.1,35.86,35.96,35.86
			c19.86,0,35.96-16.05,35.96-35.86C620,60.29,603.9,44.23,584.04,44.23z M594.22,84.73l6.29,19.31l-16.48-11.94l-16.48,11.94
			l6.29-19.31l-16.48-11.94h20.37l6.29-19.31l6.29,19.31h20.37L594.22,84.73z"/>
	</g>
	<g>
		<polygon class="st1" points="119.55,69.28 115.1,55.59 110.66,69.28 96.26,69.28 107.91,77.74 103.46,91.44 115.1,82.97 
			126.75,91.44 122.3,77.74 133.95,69.28 		"/>
		<path class="st1" d="M202.91,54.52c-0.43,1.79-0.66,3.75-0.67,5.72c-1.62-0.38-3.44-1.57-4.96-3.09c-1.51-1.51-2.7-3.33-3.09-4.96
			c1.97-0.01,3.93-0.24,5.72-0.67l7.35-7.35l-25.93,3.7l-46.66,46.66c-1.02,1.02-2.12,1.91-3.24,2.74
			c-10.81,7.91-26.09,7.02-35.85-2.74c-6.98-6.98-9.41-16.78-7.35-25.76L72.76,84.26c1.75,8.11,5.76,15.46,11.7,21.41
			c8.19,8.19,19.08,12.7,30.66,12.7c11.58,0,22.47-4.51,30.66-12.7l39.42-39.42c0.43-1.79,0.66-3.75,0.67-5.72
			c1.62,0.38,3.44,1.57,4.96,3.09c1.51,1.51,2.7,3.33,3.09,4.96c-1.97,0.01-3.93,0.24-5.72,0.67l-39.42,39.42
			c-8.99,8.99-20.94,13.94-33.65,13.94c-12.71,0-24.66-4.95-33.65-13.94c-5.9-5.9-10-13.06-12.16-20.95L57,100.02
			c3.08,7.17,7.52,13.9,13.36,19.75c12.61,12.61,29.25,18.77,45.81,18.5c15.86-0.26,31.64-6.42,43.72-18.5l46.66-46.66l3.71-25.94
			L202.91,54.52z M185.87,60.24c-0.02-3.07-0.55-6.11-1.57-8.5c-0.52-1.21-1.16-2.26-1.93-3.04c1.16,1.16,2.9,2.03,4.93,2.62
			c2.01,0.58,4.31,0.88,6.62,0.89C193.15,55.45,189.12,59.47,185.87,60.24z M194.2,68.57c0.77-3.25,4.79-7.27,8.04-8.04
			c0.02,4.63,1.19,9.23,3.5,11.54C203.43,69.76,198.83,68.59,194.2,68.57z"/>
		<path class="st1" d="M95.58,55.46c0,0,2.12-1.91,3.25-2.74c10.81-7.91,26.09-7.02,35.85,2.74c6.98,6.98,9.41,16.78,7.35,25.76
			l15.47-15.47c-1.75-8.11-5.76-15.46-11.7-21.41c-8.19-8.19-19.08-12.7-30.66-12.7c-11.58,0-22.47,4.51-30.66,12.7L45.05,83.76
			c-0.43,1.79-0.66,3.75-0.67,5.72c-1.62-0.38-3.44-1.57-4.96-3.09c-1.51-1.51-2.7-3.33-3.09-4.96c1.97-0.01,3.93-0.24,5.72-0.67
			l39.42-39.42c8.99-8.99,20.94-13.94,33.65-13.94c12.71,0,24.66,4.95,33.65,13.94c5.9,5.9,10,13.06,12.16,20.95l12.32-12.32
			c-3.08-7.17-7.52-13.9-13.36-19.75c-12.61-12.61-29.25-18.77-45.81-18.5c-15.86,0.26-31.64,6.42-43.72,18.5L23.71,76.89L20,102.83
			l7.35-7.35c0.43-1.79,0.66-3.75,0.67-5.72c1.62,0.38,3.44,1.57,4.96,3.09c1.51,1.51,2.7,3.33,3.09,4.96
			c-1.97,0.01-3.93,0.24-5.72,0.67l-7.35,7.35l25.93-3.7C48.93,102.11,95.58,55.46,95.58,55.46z M28.01,89.47
			c-0.02-4.63-1.19-9.23-3.5-11.54c2.31,2.31,6.92,3.48,11.54,3.5C35.29,84.68,31.26,88.7,28.01,89.47z M42.96,98.69
			c-2.01-0.58-4.31-0.88-6.62-0.89c0.77-3.25,4.79-7.27,8.04-8.04c0.02,3.07,0.55,6.11,1.57,8.5c0.52,1.21,1.16,2.26,1.93,3.04
			C46.73,100.15,44.99,99.27,42.96,98.69z"/>
	</g>
</g>
</svg>
