<?xml version="1.0" encoding="utf-8"?>
<!-- Generator: Adobe Illustrator 23.1.0, SVG Export Plug-In . SVG Version: 6.00 Build 0)  -->
<svg version="1.1" id="レイヤー_1" xmlns="http://www.w3.org/2000/svg" xmlns:xlink="http://www.w3.org/1999/xlink" x="0px"
	 y="0px" width="1202px" height="300px" viewBox="0 0 1202 300" style="enable-background:new 0 0 1202 300;" xml:space="preserve">
<style type="text/css">
	.st0{fill:none;}
	.st1{fill:#FFFFFF;}
</style>
<rect class="st0" width="1202" height="300"/>
<g>
	<g>
		<polygon class="st1" points="238.37,138.63 229.48,111.25 220.58,138.63 191.79,138.63 215.08,155.55 206.19,182.93 
			229.48,166.01 252.77,182.93 243.87,155.55 267.17,138.63 		"/>
		<path class="st1" d="M405.09,109.1c-0.85,3.58-1.31,7.49-1.33,11.44c-3.25-0.77-6.89-3.15-9.91-6.17
			c-3.03-3.03-5.4-6.66-6.17-9.91c3.94-0.02,7.86-0.48,11.43-1.33l14.69-14.69l-51.87,7.41l-93.32,93.32
			c-2.04,2.04-4.23,3.82-6.49,5.47c-21.61,15.82-52.18,14.04-71.69-5.47c-13.96-13.96-18.82-33.57-14.7-51.52l-30.94,30.94
			c3.51,16.23,11.51,30.91,23.41,42.81c16.38,16.38,38.16,25.4,61.32,25.4c23.17,0,44.94-9.02,61.32-25.4l78.83-78.83
			c0.85-3.58,1.31-7.49,1.33-11.44c3.25,0.77,6.89,3.15,9.91,6.17c3.03,3.03,5.4,6.66,6.17,9.91c-3.95,0.02-7.86,0.48-11.44,1.33
			l-78.83,78.83c-17.98,17.98-41.88,27.88-67.3,27.88s-49.33-9.9-67.3-27.88c-11.79-11.79-19.99-26.12-24.31-41.91l-24.63,24.64
			c6.15,14.35,15.03,27.79,26.73,39.49c25.21,25.21,58.51,37.54,91.62,37c31.72-0.52,63.29-12.85,87.44-37l93.32-93.32l7.41-51.87
			L405.09,109.1z M371.01,120.54c-0.03-6.14-1.09-12.23-3.14-17c-1.04-2.42-2.31-4.53-3.87-6.09c2.32,2.32,5.8,4.06,9.85,5.23
			c4.03,1.16,8.63,1.75,13.24,1.77C385.56,110.95,377.51,119,371.01,120.54z M387.67,137.2c1.54-6.5,9.59-14.55,16.09-16.09
			c0.05,9.25,2.38,18.46,7,23.09C406.14,139.57,396.93,137.25,387.67,137.2z"/>
		<path class="st1" d="M190.43,110.97c0,0,4.24-3.83,6.49-5.48c21.61-15.82,52.18-14.04,71.7,5.47
			c13.96,13.96,18.82,33.57,14.7,51.52l30.94-30.94c-3.51-16.23-11.51-30.91-23.41-42.81c-16.38-16.38-38.16-25.4-61.32-25.4
			c-23.17,0-44.94,9.02-61.32,25.4l-78.84,78.84c-0.85,3.58-1.31,7.49-1.33,11.44c-3.25-0.77-6.89-3.15-9.91-6.17
			c-3.03-3.03-5.4-6.66-6.17-9.91c3.95-0.02,7.86-0.48,11.44-1.33l78.83-78.83c17.98-17.98,41.88-27.88,67.3-27.88
			s49.33,9.9,67.3,27.88c11.79,11.79,19.99,26.12,24.31,41.91l24.65-24.65c-6.15-14.35-15.03-27.79-26.73-39.49
			c-25.21-25.21-58.51-37.54-91.62-37c-31.72,0.52-63.29,12.85-87.44,37l-93.32,93.32l-7.41,51.85l14.69-14.69
			c0.85-3.58,1.31-7.49,1.33-11.44c3.25,0.77,6.89,3.15,9.91,6.17c3.03,3.03,5.4,6.66,6.17,9.91c-3.94,0.02-7.86,0.48-11.43,1.33
			l-14.69,14.69l51.87-7.41C97.12,204.28,190.43,110.97,190.43,110.97z M55.3,179.01c-0.05-9.25-2.38-18.46-7-23.09
			c4.63,4.63,13.84,6.96,23.09,7C69.84,169.42,61.79,177.47,55.3,179.01z M85.19,197.44c-4.03-1.16-8.63-1.75-13.24-1.77
			c1.54-6.5,9.59-14.55,16.09-16.09c0.03,6.14,1.09,12.23,3.14,17c1.04,2.42,2.31,4.53,3.87,6.09
			C92.72,200.35,89.25,198.61,85.19,197.44z"/>
	</g>
	<g>
		<g>
			<path class="st1" d="M1033.6,41.81c-13.52,0-27.53,8-34.91,18.24V41.81h-29.1v127.06h29.1V127.6c0-33.93,9.14-56.78,34.91-56.78
				V41.81z"/>
			<path class="st1" d="M782.57,139.85c-0.28-0.34-0.71-1.08-0.71-2.52v-0.1V89.61v-6.03c0-22.22-17.45-40.41-39.4-41.78h-37.56
				v29.02l37.56,0.14c5.87,1.22,10.3,6.41,10.3,12.62l-0.55,1.59h-28.89c-13.83,0-28.75,12.05-28.75,31.53v20.63
				c0,19.48,14.92,31.53,28.75,31.53h29.8c4.83,0,9.78-1.5,14.2-4.25c4.42,2.75,9.37,4.25,14.2,4.25h11.56v-29.02H782.57z
				 M752.76,137.24v0.1c0,1.43-0.42,2.18-0.71,2.52h-27.68c-0.28-0.34-0.71-1.08-0.71-2.52v-20.63c0-1.43,0.42-2.18,0.71-2.52h28.38
				V137.24z"/>
			<path class="st1" d="M931.18,23.78h-29.1v18.03h-13.71v29.02h13.71v66.51c0,19.48,14.92,31.53,28.75,31.53h24.98v-29.02h-23.92
				c-0.28-0.34-0.71-1.08-0.71-2.52V70.82h24.63V41.81h-24.63V23.78z"/>
			<path class="st1" d="M846.5,85.17l-15.54,0.14c-4.01,0-7.27-3.25-7.27-7.25c0-4,3.26-7.25,7.27-7.25h43.63V41.81h-43.63
				c-20.06,0-36.37,16.26-36.37,36.26s16.31,36.26,36.37,36.26l15.54,0c5.87,1.22,10.3,6.41,10.3,12.62c0,7.11-5.8,12.9-12.93,12.9
				h-37.02v29.02h37.02c23.18,0,42.04-18.81,42.04-41.92C885.9,104.72,868.45,86.54,846.5,85.17z"/>
			<polygon class="st1" points="692.47,41.81 656.74,41.81 638.44,73.96 620.13,41.81 584.41,41.81 620.57,105.34 584.41,168.87 
				620.13,168.87 638.44,136.71 656.74,168.87 692.47,168.87 656.3,105.34 			"/>
			<polygon class="st1" points="571.76,52.8 571.76,23.78 476.72,23.78 476.72,168.87 571.76,168.87 571.76,139.85 510.77,139.85 
				510.77,110.83 562.46,110.83 562.46,81.81 510.77,81.81 510.77,52.8 			"/>
			<path class="st1" d="M1099.01,41.81c-35.19,0-63.72,28.44-63.72,63.53c0,35.09,28.53,63.53,63.72,63.53s63.72-28.44,63.72-63.53
				C1162.73,70.25,1134.2,41.81,1099.01,41.81z M1117.06,113.56l11.15,34.22l-29.2-21.15l-29.2,21.15l11.15-34.22l-29.2-21.15h36.09
				l11.15-34.22l11.15,34.22h36.09L1117.06,113.56z"/>
		</g>
		<g>
			<path class="st1" d="M476.72,201.46h18.87v82.87h-18.87V201.46z"/>
			<path class="st1" d="M558.46,217.97h-18.98v66.36h-18.87v-66.36h-18.76v-16.51h56.61V217.97z"/>
			<path class="st1" d="M650.98,284.33h-19.51l-4.83-19.3h-19.08l-4.5,19.3h-19.08l21.87-82.87h23.91L650.98,284.33z M624.39,250.78
				l-3.65-16.62c-1.07-4.93-2.47-12.33-3.54-17.37h-0.21c-1.07,5.04-2.47,12.65-3.43,17.37l-3.75,16.62H624.39z"/>
			<path class="st1" d="M709.03,264.93c0,7.4,0.32,14.04,0.54,19.4h-16.29l-0.86-7.5h-0.32c-2.57,3.86-8.04,8.68-16.83,8.68
				c-12.22,0-19.08-8.26-19.08-25.62v-35.92h18.87v33.23c0,8.15,2.25,12.87,7.51,12.87c3.86,0,7.61-3,7.61-9.11v-36.99h18.87V264.93
				z"/>
			<path class="st1" d="M722.97,212.93l18.65-5.25v16.3h12.54v13.61h-12.54v22.73c0,7.08,2.25,9.65,6.75,9.65
				c2.14,0,3.32-0.11,4.93-0.54l0.11,14.58c-2.36,0.75-6.54,1.39-11.58,1.39c-18.55,0-18.87-15.87-18.87-22.73v-25.09h-7.4v-13.61
				h7.4V212.93z"/>
			<path class="st1" d="M814.4,253.78c0,23.48-15.12,31.73-28.3,31.73c-16.72,0-28.2-11.58-28.2-30.98
				c0-20.26,12.22-31.73,28.84-31.73C804,222.79,814.4,235.66,814.4,253.78z M786.31,236.52c-7.08,0-9.33,9.22-9.33,17.58
				c0,10.08,2.89,17.69,9.33,17.69c6.11,0,9.01-8.04,9.01-17.69C795.32,245.2,792.74,236.52,786.31,236.52z"/>
			<path class="st1" d="M907.22,284.33h-18.55v-33.66c0-7.61-1.72-12.54-6.86-12.54c-4.39,0-7.5,3.75-7.5,9.86v36.34h-18.55v-35.17
				c0-5.9-1.5-11.04-6.75-11.04c-2.79,0-7.61,2.25-7.61,9.97v36.24h-18.55v-41.06c0-7.18-0.21-13.61-0.43-19.3h16.08l0.86,7.5h0.32
				c2.79-3.75,8.04-8.68,16.62-8.68c7.4,0,12.76,3.54,15.12,9.22h0.21c2.36-3.43,7.83-9.22,17.15-9.22
				c11.79,0,18.44,8.79,18.44,24.87V284.33z"/>
			<path class="st1" d="M965.77,270.07c0,5.36,0.21,10.61,0.96,14.26H949.8l-1.07-5.79h-0.32c-3.64,4.82-9.33,6.97-15.55,6.97
				c-10.94,0-18.12-8.36-18.12-18.55c0-15.97,14.26-22.84,32.05-22.94c0-4.61-2.04-7.93-9.65-7.93c-5.68,0-11.04,1.72-14.9,4.07
				l-3.43-12.22c3.86-2.14,11.69-5.15,22.08-5.15c19.94,0,24.87,12.65,24.87,26.05V270.07z M947.44,255.81
				c-7.83,0-14.47,2.25-14.47,9.22c0,4.93,3,7.08,6.32,7.08c3.86,0,8.15-2.79,8.15-8.47V255.81z"/>
			<path class="st1" d="M978.63,212.93l18.65-5.25v16.3h12.54v13.61h-12.54v22.73c0,7.08,2.25,9.65,6.75,9.65
				c2.14,0,3.32-0.11,4.93-0.54l0.11,14.58c-2.36,0.75-6.54,1.39-11.58,1.39c-18.55,0-18.87-15.87-18.87-22.73v-25.09h-7.4v-13.61
				h7.4V212.93z"/>
			<path class="st1" d="M1027.3,217.22c-5.68,0-9.65-4.07-9.65-9.54c0-5.68,4.07-9.65,9.65-9.65c5.68,0,9.65,3.97,9.65,9.65
				C1036.95,213.36,1032.77,217.22,1027.3,217.22z M1036.73,284.33h-18.87v-60.36h18.87V284.33z"/>
			<path class="st1" d="M1101.11,253.78c0,23.48-15.12,31.73-28.3,31.73c-16.72,0-28.2-11.58-28.2-30.98
				c0-20.26,12.22-31.73,28.84-31.73C1090.71,222.79,1101.11,235.66,1101.11,253.78z M1073.02,236.52c-7.08,0-9.33,9.22-9.33,17.58
				c0,10.08,2.89,17.69,9.33,17.69c6.11,0,9.01-8.04,9.01-17.69C1082.03,245.2,1079.45,236.52,1073.02,236.52z"/>
			<path class="st1" d="M1162.73,284.33h-18.87v-35.06c0-6.33-1.93-10.94-7.29-10.94c-3.97,0-8.15,2.89-8.15,10.61v35.38h-18.87
				v-41.06c0-7.18-0.21-13.61-0.43-19.3h16.19l0.96,7.61h0.32c2.68-4.07,8.36-8.79,16.72-8.79c12.65,0,19.4,9.11,19.4,24.77V284.33z
				"/>
		</g>
	</g>
</g>
</svg>
