<?xml version="1.0" encoding="utf-8"?>
<!-- Generator: Adobe Illustrator 23.1.0, SVG Export Plug-In . SVG Version: 6.00 Build 0)  -->
<svg version="1.1" id="レイヤー_1" xmlns="http://www.w3.org/2000/svg" xmlns:xlink="http://www.w3.org/1999/xlink" x="0px"
	 y="0px" width="1202px" height="300px" viewBox="0 0 1202 300" style="enable-background:new 0 0 1202 300;" xml:space="preserve">
<style type="text/css">
	.st0{fill:none;}
	.st1{fill:#FFFFFF;}
	.st2{fill:#00325F;}
	.st3{fill:url(#SVGID_1_);}
	.st4{fill:url(#SVGID_2_);}
	.st5{fill:#8099AF;}
	.st6{fill:url(#SVGID_3_);}
	.st7{fill:url(#SVGID_4_);}
</style>
<rect class="st0" width="1202" height="300"/>
<g>
	<path class="st1" d="M438.74,82.12c-0.3-0.6-0.7-1.2-1.1-1.8l0,0c-0.2-0.2-0.3-0.4-0.5-0.6c0-0.1-0.1-0.1-0.1-0.2
		c-0.1-0.1-0.3-0.3-0.4-0.4s-0.2-0.2-0.3-0.3c-0.1-0.1-0.2-0.2-0.3-0.3c-0.8-0.7-1.7-1.3-2.7-1.8c-0.1-0.1-0.3-0.1-0.4-0.2
		c-0.1,0-0.1-0.1-0.2-0.1c-1.5-0.6-3.1-1-4.7-1c-0.8,0-1.6,0.1-2.5,0.3l-58.1,8.3c-2.5,0.4-4.9,1.5-6.7,3.3l-0.4,0.4
		c-6.6-13.1-15.3-25.1-25.9-35.7c-26.2-26.1-61-40.5-98.2-40.5c-0.8,0-1.5,0-2.3,0c-36.3,0.6-70.3,15-95.9,40.5l-93.6,93.3
		c-1.8,1.8-3,4.2-3.4,6.7l-8.4,58.8c0,0.1,0,0.2,0,0.3c0,0.2,0,0.3-0.1,0.5c0,0.1,0,0.3,0,0.4c0,0.2,0,0.3,0,0.5c0,0.2,0,0.3,0,0.5
		c0,0.2,0,0.3,0,0.5c0,0.2,0,0.3,0.1,0.5c0,0.2,0,0.3,0.1,0.5c0,0.2,0.1,0.3,0.1,0.5c0,0.1,0.1,0.3,0.1,0.4c0,0.2,0.1,0.3,0.1,0.5
		c0,0.1,0.1,0.3,0.1,0.4c0.1,0.2,0.1,0.3,0.2,0.5c0.1,0.1,0.1,0.3,0.2,0.4c0.1,0.2,0.1,0.3,0.2,0.5c0,0.1,0.1,0.2,0.1,0.3
		c0,0,0,0.1,0.1,0.1c0.1,0.1,0.1,0.2,0.2,0.3c0.1,0.1,0.2,0.3,0.3,0.4c0.1,0.1,0.1,0.2,0.2,0.3c0.1,0.1,0.2,0.3,0.3,0.4
		c0.1,0.1,0.1,0.2,0.2,0.3c0.1,0.1,0.2,0.3,0.3,0.4c0.1,0.1,0.2,0.2,0.2,0.3c0.1,0.1,0.2,0.3,0.4,0.4c0.1,0.1,0.2,0.2,0.2,0.3
		c0.1,0.1,0.3,0.2,0.4,0.4c0.1,0.1,0.2,0.1,0.2,0.2c0.2,0.1,0.3,0.3,0.5,0.4c0.1,0,0.1,0.1,0.2,0.1c0.2,0.2,0.5,0.3,0.7,0.5
		c0.1,0,0.1,0.1,0.2,0.1c0.2,0.1,0.4,0.2,0.6,0.3h0.1c0,0,0.1,0,0.1,0.1c0.4,0.2,0.8,0.4,1.2,0.5l0,0c0.4,0.1,0.8,0.2,1.2,0.3
		c0.1,0,0.2,0,0.2,0.1c0.4,0.1,0.8,0.2,1.2,0.2c0.1,0,0.2,0,0.2,0c0.4,0,0.8,0.1,1.2,0.1l0,0l0,0l0,0c0.3,0,0.7,0,1,0
		c0.1,0,0.2,0,0.3,0c0.1,0,0.2,0,0.3,0l59-8.4c2.5-0.4,4.9-1.5,6.7-3.3l0.4-0.4c6.6,13.1,15.3,25.1,25.9,35.7
		c26.2,26.1,61.1,40.5,98.2,40.5c0.8,0,1.5,0,2.3,0c36.3-0.6,70.3-15,95.9-40.5l93.6-93.3c1.8-1.8,3-4.2,3.4-6.7l8.3-58.1
		C440.24,87.32,439.94,84.62,438.74,82.12z"/>
	<g>
		<path class="st1" d="M394.04,104.53c-1.54,6.49-9.6,14.52-16.11,16.06c-0.05-9.24-2.38-18.43-7.01-23.05
			C375.56,102.16,384.78,104.48,394.04,104.53z"/>
		<polygon class="st1" points="259.53,182.89 236.21,165.99 212.88,182.89 221.79,155.55 198.47,138.65 227.3,138.65 236.21,111.31 
			245.11,138.65 273.94,138.65 250.62,155.55 		"/>
		<path class="st1" d="M77.89,162.91c-1.54,6.49-9.6,14.53-16.11,16.06c-0.05-9.24-2.38-18.43-7.01-23.05
			C59.41,160.54,68.63,162.86,77.89,162.91z"/>
		<path class="st1" d="M54.77,202.6c4.63-4.62,6.97-13.81,7.01-23.05c3.25,0.77,6.9,3.14,9.93,6.16c3.03,3.02,5.41,6.65,6.18,9.9
			C68.63,195.65,59.41,197.98,54.77,202.6z"/>
		<path class="st1" d="M78.47,195.6c1.54-6.49,9.6-14.52,16.11-16.06c0.05,9.24,2.38,18.43,7.01,23.05
			C96.96,197.98,87.74,195.65,78.47,195.6z"/>
		<path class="st1" d="M94.58,178.97c-3.25-0.77-6.9-3.14-9.93-6.16c-3.03-3.02-5.41-6.65-6.18-9.9c9.27-0.05,18.49-2.37,23.12-6.99
			C96.96,160.54,94.62,169.73,94.58,178.97z"/>
		<path class="st1" d="M370.92,144.22c4.63-4.62,6.97-13.81,7.01-23.05c3.25,0.77,6.9,3.14,9.93,6.16c3.03,3.02,5.41,6.65,6.18,9.9
			C384.78,137.27,375.56,139.6,370.92,144.22z"/>
		<path class="st1" d="M394.62,137.23c1.54-6.49,9.6-14.52,16.11-16.06c0.05,9.24,2.38,18.43,7.01,23.05
			C413.11,139.6,403.89,137.27,394.62,137.23z"/>
		<path class="st1" d="M410.73,120.59c-3.25-0.77-6.9-3.14-9.93-6.16c-3.03-3.02-5.41-6.65-6.18-9.9
			c9.27-0.05,18.49-2.37,23.12-6.99C413.11,102.16,410.78,111.35,410.73,120.59z"/>
		<polygon class="st1" points="145.94,162.05 145.94,162.05 145.12,162.87 		"/>
		<path class="st2" d="M184.91,201.41c-28.17-28.33-28.17-74.35,0-102.69c28.33-28.17,74.35-28.17,102.69,0
			c28.17,28.33,28.17,74.35,0,102.69C259.27,229.58,213.25,229.58,184.91,201.41z M227.3,138.65h-28.83l23.32,16.9l-8.91,27.34
			l23.32-16.9l23.32,16.9l-8.91-27.34l23.32-16.9h-28.83l-8.91-27.34L227.3,138.65z"/>
		<linearGradient id="SVGID_1_" gradientUnits="userSpaceOnUse" x1="344.6679" y1="220.978" x2="215.8004" y2="92.1105">
			<stop  offset="0" style="stop-color:#00325F"/>
			<stop  offset="1" style="stop-color:#8099AF"/>
		</linearGradient>
		<path class="st3" d="M417.74,97.54c-4.63,4.62-6.97,13.81-7.01,23.05c0,0.19,0,0.38,0,0.57c0.05,9.24,2.38,18.43,7.01,23.05
			c-4.63-4.62-13.85-6.95-23.12-6.99c-0.19,0-0.38,0-0.58,0c-9.27,0.05-18.49,2.37-23.12,6.99l-70.27,70.06
			c-35.57,35.46-93.23,35.46-128.8,0c-14.73-14.68-23.35-33.14-25.88-52.26l-29.51,29.42c6.07,17.55,16.11,34.03,30.14,48.01
			c25.25,25.17,58.59,37.48,91.75,36.94c31.77-0.52,63.38-12.83,87.56-36.94l93.44-93.17l8.42-58.75L417.74,97.54z"/>
		<linearGradient id="SVGID_2_" gradientUnits="userSpaceOnUse" x1="332.1086" y1="183.2008" x2="228.4528" y2="79.545">
			<stop  offset="0" style="stop-color:#8099AF"/>
			<stop  offset="1" style="stop-color:#00325F"/>
		</linearGradient>
		<path class="st4" d="M368.85,95.93L275.4,189.1c-21.58,21.52-56.71,21.52-78.29,0s-21.58-56.54,0-78.06l-51.14,50.99
			c2.53,19.11,11.15,37.57,25.88,52.26c35.57,35.46,93.23,35.46,128.8,0l70.27-70.06c4.63-4.62,6.97-13.81,7.01-23.05
			c0-0.19,0-0.38,0-0.57c-0.05-9.24-2.38-18.43-7.01-23.05c4.63,4.62,13.85,6.95,23.12,6.99c0.19,0,0.38,0,0.58,0
			c9.27-0.05,18.49-2.37,23.12-6.99l10.03-10L368.85,95.93z"/>
		<path class="st5" d="M400.8,114.43c-3.03-3.02-5.41-6.65-6.18-9.9c-0.19,0-0.38,0-0.58,0c-1.54,6.49-9.6,14.52-16.11,16.06
			c0,0.19,0,0.38,0,0.57c3.25,0.77,6.9,3.14,9.93,6.16c3.03,3.02,5.41,6.65,6.18,9.9c0.19,0,0.38,0,0.58,0
			c1.54-6.49,9.6-14.52,16.11-16.06c0-0.19,0-0.38,0-0.57C407.47,119.82,403.83,117.45,400.8,114.43z"/>
		<linearGradient id="SVGID_3_" gradientUnits="userSpaceOnUse" x1="256.712" y1="208.0248" x2="127.8446" y2="79.1573">
			<stop  offset="0" style="stop-color:#00325F"/>
			<stop  offset="1" style="stop-color:#8099AF"/>
		</linearGradient>
		<path class="st6" d="M325.91,60.68c-25.25-25.17-58.59-37.48-91.75-36.94c-31.77,0.52-63.38,12.83-87.56,36.94l-93.44,93.17
			l-8.42,58.75l10.03-10c4.63-4.62,6.97-13.81,7.01-23.05c0-0.19,0-0.38,0-0.57c-0.05-9.24-2.38-18.43-7.01-23.05
			c4.63,4.62,13.85,6.95,23.12,6.99c0.19,0,0.38,0,0.58,0c9.27-0.05,18.49-2.37,23.12-6.99l12.17-12.13l58.1-57.93
			c35.57-35.46,93.23-35.46,128.8,0c14.73,14.68,23.35,33.14,25.88,52.26l29.51-29.42C349.98,91.14,339.94,74.66,325.91,60.68z"/>
		<linearGradient id="SVGID_4_" gradientUnits="userSpaceOnUse" x1="244.0596" y1="220.5902" x2="140.4039" y2="116.9345">
			<stop  offset="0" style="stop-color:#8099AF"/>
			<stop  offset="1" style="stop-color:#00325F"/>
		</linearGradient>
		<path class="st7" d="M326.54,138.11c-2.53-19.11-11.15-37.57-25.88-52.26c-35.57-35.46-93.23-35.46-128.8,0l-70.27,70.06
			c-4.63,4.62-6.97,13.81-7.01,23.05c0,0.19,0,0.38,0,0.57c0.05,9.24,2.38,18.43,7.01,23.05c-4.63-4.62-13.85-6.95-23.12-6.99
			c-0.19,0-0.38,0-0.58,0c-9.27,0.05-18.49,2.37-23.12,6.99l-10.03,10l58.93-8.39l93.44-93.17c21.58-21.52,56.71-21.52,78.29,0
			s21.58,56.54,0,78.06L326.54,138.11z"/>
		<path class="st5" d="M84.65,172.81c-3.03-3.02-5.41-6.65-6.18-9.9c-0.19,0-0.38,0-0.58,0c-1.54,6.49-9.6,14.53-16.11,16.06
			c0,0.19,0,0.38,0,0.57c3.25,0.77,6.9,3.14,9.93,6.16c3.03,3.02,5.41,6.65,6.18,9.9c0.19,0,0.38,0,0.58,0
			c1.54-6.49,9.6-14.52,16.11-16.06c0-0.19,0-0.38,0-0.57C91.32,178.2,87.68,175.83,84.65,172.81z"/>
	</g>
	<g>
		<g>
			<path class="st1" d="M1040.32,41.81c-13.52,0-27.53,8-34.91,18.24V41.81h-29.1v127.06h29.1V127.6c0-33.93,9.14-56.78,34.91-56.78
				V41.81z"/>
			<path class="st1" d="M789.3,139.85c-0.28-0.34-0.71-1.08-0.71-2.52v-0.1V89.61v-6.03c0-22.22-17.45-40.41-39.4-41.78h-37.56
				v29.02l37.56,0.14c5.87,1.22,10.3,6.41,10.3,12.62l-0.55,1.59h-28.89c-13.83,0-28.75,12.05-28.75,31.53v20.63
				c0,19.48,14.92,31.53,28.75,31.53h29.8c4.83,0,9.78-1.5,14.2-4.25c4.42,2.75,9.37,4.25,14.2,4.25h11.56v-29.02H789.3z
				 M759.49,137.24v0.1c0,1.43-0.42,2.18-0.71,2.52h-27.68c-0.28-0.34-0.71-1.08-0.71-2.52v-20.63c0-1.43,0.42-2.18,0.71-2.52h28.38
				V137.24z"/>
			<path class="st1" d="M937.91,23.78h-29.1v18.03h-13.71v29.02h13.71v66.51c0,19.48,14.92,31.53,28.75,31.53h24.98v-29.02h-23.92
				c-0.28-0.34-0.71-1.08-0.71-2.52V70.82h24.63V41.81h-24.63V23.78z"/>
			<path class="st1" d="M853.23,85.17l-15.54,0.14c-4.01,0-7.27-3.25-7.27-7.25c0-4,3.26-7.25,7.27-7.25h43.63V41.81h-43.63
				c-20.06,0-36.37,16.26-36.37,36.26s16.31,36.26,36.37,36.26l15.54,0c5.87,1.22,10.3,6.41,10.3,12.62c0,7.11-5.8,12.9-12.93,12.9
				h-37.02v29.02h37.02c23.18,0,42.04-18.81,42.04-41.92C892.63,104.72,875.18,86.54,853.23,85.17z"/>
			<polygon class="st1" points="699.2,41.81 663.47,41.81 645.17,73.96 626.86,41.81 591.13,41.81 627.3,105.34 591.13,168.87 
				626.86,168.87 645.17,136.71 663.47,168.87 699.2,168.87 663.03,105.34 			"/>
			<polygon class="st1" points="578.49,52.8 578.49,23.78 483.45,23.78 483.45,168.87 578.49,168.87 578.49,139.85 517.5,139.85 
				517.5,110.83 569.19,110.83 569.19,81.81 517.5,81.81 517.5,52.8 			"/>
			<path class="st1" d="M1105.74,41.81c-35.19,0-63.72,28.44-63.72,63.53c0,35.09,28.53,63.53,63.72,63.53
				c35.19,0,63.72-28.44,63.72-63.53C1169.46,70.25,1140.93,41.81,1105.74,41.81z M1123.79,113.56l11.15,34.22l-29.2-21.15
				l-29.2,21.15l11.15-34.22l-29.2-21.15h36.09l11.15-34.22l11.15,34.22h36.09L1123.79,113.56z"/>
		</g>
		<g>
			<path class="st1" d="M483.45,201.46h18.87v82.87h-18.87V201.46z"/>
			<path class="st1" d="M565.19,217.97h-18.98v66.36h-18.87v-66.36h-18.76v-16.51h56.61V217.97z"/>
			<path class="st1" d="M657.7,284.33h-19.51l-4.83-19.3h-19.08l-4.5,19.3H590.7l21.87-82.87h23.91L657.7,284.33z M631.12,250.78
				l-3.65-16.62c-1.07-4.93-2.47-12.33-3.54-17.37h-0.21c-1.07,5.04-2.47,12.65-3.43,17.37l-3.75,16.62H631.12z"/>
			<path class="st1" d="M715.75,264.93c0,7.4,0.32,14.04,0.54,19.4H700l-0.86-7.5h-0.32c-2.57,3.86-8.04,8.68-16.83,8.68
				c-12.22,0-19.08-8.26-19.08-25.62v-35.92h18.87v33.23c0,8.15,2.25,12.87,7.51,12.87c3.86,0,7.61-3,7.61-9.11v-36.99h18.87V264.93
				z"/>
			<path class="st1" d="M729.7,212.93l18.65-5.25v16.3h12.54v13.61h-12.54v22.73c0,7.08,2.25,9.65,6.75,9.65
				c2.14,0,3.32-0.11,4.93-0.54l0.11,14.58c-2.36,0.75-6.54,1.39-11.58,1.39c-18.55,0-18.87-15.87-18.87-22.73v-25.09h-7.4v-13.61
				h7.4V212.93z"/>
			<path class="st1" d="M821.13,253.78c0,23.48-15.12,31.73-28.3,31.73c-16.72,0-28.2-11.58-28.2-30.98
				c0-20.26,12.22-31.73,28.84-31.73C810.73,222.79,821.13,235.66,821.13,253.78z M793.04,236.52c-7.08,0-9.33,9.22-9.33,17.58
				c0,10.08,2.89,17.69,9.33,17.69c6.11,0,9.01-8.04,9.01-17.69C802.04,245.2,799.47,236.52,793.04,236.52z"/>
			<path class="st1" d="M913.95,284.33H895.4v-33.66c0-7.61-1.72-12.54-6.86-12.54c-4.39,0-7.5,3.75-7.5,9.86v36.34h-18.55v-35.17
				c0-5.9-1.5-11.04-6.75-11.04c-2.79,0-7.61,2.25-7.61,9.97v36.24h-18.55v-41.06c0-7.18-0.21-13.61-0.43-19.3h16.08l0.86,7.5h0.32
				c2.79-3.75,8.04-8.68,16.62-8.68c7.4,0,12.76,3.54,15.12,9.22h0.21c2.36-3.43,7.83-9.22,17.15-9.22
				c11.79,0,18.44,8.79,18.44,24.87V284.33z"/>
			<path class="st1" d="M972.5,270.07c0,5.36,0.21,10.61,0.96,14.26h-16.94l-1.07-5.79h-0.32c-3.64,4.82-9.33,6.97-15.55,6.97
				c-10.94,0-18.12-8.36-18.12-18.55c0-15.97,14.26-22.84,32.05-22.94c0-4.61-2.04-7.93-9.65-7.93c-5.68,0-11.04,1.72-14.9,4.07
				l-3.43-12.22c3.86-2.14,11.69-5.15,22.08-5.15c19.94,0,24.87,12.65,24.87,26.05V270.07z M954.17,255.81
				c-7.83,0-14.47,2.25-14.47,9.22c0,4.93,3,7.08,6.32,7.08c3.86,0,8.15-2.79,8.15-8.47V255.81z"/>
			<path class="st1" d="M985.35,212.93l18.65-5.25v16.3h12.54v13.61h-12.54v22.73c0,7.08,2.25,9.65,6.75,9.65
				c2.14,0,3.32-0.11,4.93-0.54l0.11,14.58c-2.36,0.75-6.54,1.39-11.58,1.39c-18.55,0-18.87-15.87-18.87-22.73v-25.09h-7.4v-13.61
				h7.4V212.93z"/>
			<path class="st1" d="M1034.03,217.22c-5.68,0-9.65-4.07-9.65-9.54c0-5.68,4.07-9.65,9.65-9.65c5.68,0,9.65,3.97,9.65,9.65
				C1043.68,213.36,1039.49,217.22,1034.03,217.22z M1043.46,284.33h-18.87v-60.36h18.87V284.33z"/>
			<path class="st1" d="M1107.84,253.78c0,23.48-15.12,31.73-28.3,31.73c-16.72,0-28.2-11.58-28.2-30.98
				c0-20.26,12.22-31.73,28.84-31.73C1097.44,222.79,1107.84,235.66,1107.84,253.78z M1079.75,236.52c-7.08,0-9.33,9.22-9.33,17.58
				c0,10.08,2.89,17.69,9.33,17.69c6.11,0,9.01-8.04,9.01-17.69C1088.75,245.2,1086.18,236.52,1079.75,236.52z"/>
			<path class="st1" d="M1169.46,284.33h-18.87v-35.06c0-6.33-1.93-10.94-7.29-10.94c-3.97,0-8.15,2.89-8.15,10.61v35.38h-18.87
				v-41.06c0-7.18-0.21-13.61-0.43-19.3h16.19l0.96,7.61h0.32c2.68-4.07,8.36-8.79,16.72-8.79c12.65,0,19.4,9.11,19.4,24.77V284.33z
				"/>
		</g>
	</g>
</g>
</svg>
