<?xml version="1.0" encoding="utf-8"?>
<!-- Generator: Adobe Illustrator 23.1.0, SVG Export Plug-In . SVG Version: 6.00 Build 0)  -->
<svg version="1.1" id="レイヤー_1" xmlns="http://www.w3.org/2000/svg" xmlns:xlink="http://www.w3.org/1999/xlink" x="0px"
	 y="0px" width="764px" height="300px" viewBox="0 0 764 300" style="enable-background:new 0 0 764 300;" xml:space="preserve">
<style type="text/css">
	.st0{fill:none;}
	.st1{fill:#00325F;}
</style>
<rect class="st0" width="764" height="300"/>
<g>
	<g>
		<path class="st1" d="M595.87,41.81c-13.52,0-27.53,8-34.91,18.24V41.81h-29.1v127.06h29.1V127.6c0-33.93,9.14-56.78,34.91-56.78
			V41.81z"/>
		<path class="st1" d="M344.85,139.85c-0.28-0.34-0.71-1.08-0.71-2.52v-0.1V89.61v-6.03c0-22.22-17.45-40.41-39.4-41.78h-37.56
			v29.02l37.56,0.14c5.87,1.22,10.3,6.41,10.3,12.62l-0.55,1.59h-28.89c-13.83,0-28.75,12.05-28.75,31.53v20.63
			c0,19.48,14.92,31.53,28.75,31.53h29.8c4.83,0,9.78-1.5,14.2-4.25c4.42,2.75,9.37,4.25,14.2,4.25h11.56v-29.02H344.85z
			 M315.04,137.24v0.1c0,1.43-0.42,2.18-0.71,2.52h-27.68c-0.28-0.34-0.71-1.08-0.71-2.52v-20.63c0-1.43,0.42-2.18,0.71-2.52h28.38
			V137.24z"/>
		<path class="st1" d="M493.45,23.78h-29.1v18.03h-13.71v29.02h13.71v66.51c0,19.48,14.92,31.53,28.75,31.53h24.98v-29.02h-23.92
			c-0.28-0.34-0.71-1.08-0.71-2.52V70.82h24.63V41.81h-24.63V23.78z"/>
		<path class="st1" d="M408.78,85.17l-15.54,0.14c-4.01,0-7.27-3.25-7.27-7.25c0-4,3.26-7.25,7.27-7.25h43.63V41.81h-43.63
			c-20.06,0-36.37,16.26-36.37,36.26s16.31,36.26,36.37,36.26l15.54,0c5.87,1.22,10.3,6.41,10.3,12.62c0,7.11-5.8,12.9-12.93,12.9
			h-37.02v29.02h37.02c23.18,0,42.04-18.81,42.04-41.92C448.18,104.72,430.73,86.54,408.78,85.17z"/>
		<polygon class="st1" points="254.74,41.81 219.02,41.81 200.71,73.96 182.41,41.81 146.68,41.81 182.85,105.34 146.68,168.87 
			182.41,168.87 200.71,136.71 219.02,168.87 254.74,168.87 218.57,105.34 		"/>
		<polygon class="st1" points="134.03,52.8 134.03,23.78 39,23.78 39,168.87 134.03,168.87 134.03,139.85 73.05,139.85 
			73.05,110.83 124.73,110.83 124.73,81.81 73.05,81.81 73.05,52.8 		"/>
		<path class="st1" d="M661.29,41.81c-35.19,0-63.72,28.44-63.72,63.53c0,35.09,28.53,63.53,63.72,63.53S725,140.42,725,105.34
			C725,70.25,696.48,41.81,661.29,41.81z M679.33,113.56l11.15,34.22l-29.2-21.15l-29.2,21.15l11.15-34.22l-29.2-21.15h36.09
			l11.15-34.22l11.15,34.22h36.09L679.33,113.56z"/>
	</g>
	<g>
		<path class="st1" d="M39,201.46h18.87v82.87H39V201.46z"/>
		<path class="st1" d="M120.73,217.97h-18.98v66.36H82.89v-66.36H64.12v-16.51h56.61V217.97z"/>
		<path class="st1" d="M213.25,284.33h-19.51l-4.83-19.3h-19.08l-4.5,19.3h-19.08l21.87-82.87h23.91L213.25,284.33z M186.66,250.78
			l-3.65-16.62c-1.07-4.93-2.47-12.33-3.54-17.37h-0.21c-1.07,5.04-2.47,12.65-3.43,17.37l-3.75,16.62H186.66z"/>
		<path class="st1" d="M271.3,264.93c0,7.4,0.32,14.04,0.54,19.4h-16.29l-0.86-7.5h-0.32c-2.57,3.86-8.04,8.68-16.83,8.68
			c-12.22,0-19.08-8.26-19.08-25.62v-35.92h18.87v33.23c0,8.15,2.25,12.87,7.5,12.87c3.86,0,7.61-3,7.61-9.11v-36.99h18.87V264.93z"
			/>
		<path class="st1" d="M285.25,212.93l18.65-5.25v16.3h12.54v13.61H303.9v22.73c0,7.08,2.25,9.65,6.75,9.65
			c2.14,0,3.32-0.11,4.93-0.54l0.11,14.58c-2.36,0.75-6.54,1.39-11.58,1.39c-18.55,0-18.87-15.87-18.87-22.73v-25.09h-7.4v-13.61
			h7.4V212.93z"/>
		<path class="st1" d="M376.67,253.78c0,23.48-15.12,31.73-28.3,31.73c-16.72,0-28.2-11.58-28.2-30.98
			c0-20.26,12.22-31.73,28.84-31.73C366.27,222.79,376.67,235.66,376.67,253.78z M348.58,236.52c-7.08,0-9.33,9.22-9.33,17.58
			c0,10.08,2.89,17.69,9.33,17.69c6.11,0,9.01-8.04,9.01-17.69C357.59,245.2,355.02,236.52,348.58,236.52z"/>
		<path class="st1" d="M469.49,284.33h-18.55v-33.66c0-7.61-1.72-12.54-6.86-12.54c-4.39,0-7.5,3.75-7.5,9.86v36.34h-18.55v-35.17
			c0-5.9-1.5-11.04-6.75-11.04c-2.79,0-7.61,2.25-7.61,9.97v36.24h-18.55v-41.06c0-7.18-0.21-13.61-0.43-19.3h16.08l0.86,7.5h0.32
			c2.79-3.75,8.04-8.68,16.62-8.68c7.4,0,12.76,3.54,15.12,9.22h0.21c2.36-3.43,7.83-9.22,17.15-9.22
			c11.79,0,18.44,8.79,18.44,24.87V284.33z"/>
		<path class="st1" d="M528.05,270.07c0,5.36,0.21,10.61,0.96,14.26h-16.94l-1.07-5.79h-0.32c-3.64,4.82-9.33,6.97-15.55,6.97
			c-10.94,0-18.12-8.36-18.12-18.55c0-15.97,14.26-22.84,32.05-22.94c0-4.61-2.04-7.93-9.65-7.93c-5.68,0-11.04,1.72-14.9,4.07
			l-3.43-12.22c3.86-2.14,11.69-5.15,22.08-5.15c19.94,0,24.87,12.65,24.87,26.05V270.07z M509.71,255.81
			c-7.83,0-14.47,2.25-14.47,9.22c0,4.93,3,7.08,6.32,7.08c3.86,0,8.15-2.79,8.15-8.47V255.81z"/>
		<path class="st1" d="M540.9,212.93l18.65-5.25v16.3h12.54v13.61h-12.54v22.73c0,7.08,2.25,9.65,6.75,9.65
			c2.14,0,3.32-0.11,4.93-0.54l0.11,14.58c-2.36,0.75-6.54,1.39-11.58,1.39c-18.55,0-18.87-15.87-18.87-22.73v-25.09h-7.4v-13.61
			h7.4V212.93z"/>
		<path class="st1" d="M589.57,217.22c-5.68,0-9.65-4.07-9.65-9.54c0-5.68,4.07-9.65,9.65-9.65c5.68,0,9.65,3.97,9.65,9.65
			C599.22,213.36,595.04,217.22,589.57,217.22z M599.01,284.33h-18.87v-60.36h18.87V284.33z"/>
		<path class="st1" d="M663.38,253.78c0,23.48-15.12,31.73-28.3,31.73c-16.72,0-28.2-11.58-28.2-30.98
			c0-20.26,12.22-31.73,28.84-31.73C652.98,222.79,663.38,235.66,663.38,253.78z M635.29,236.52c-7.08,0-9.33,9.22-9.33,17.58
			c0,10.08,2.89,17.69,9.33,17.69c6.11,0,9.01-8.04,9.01-17.69C644.3,245.2,641.73,236.52,635.29,236.52z"/>
		<path class="st1" d="M725,284.33h-18.87v-35.06c0-6.33-1.93-10.94-7.29-10.94c-3.97,0-8.15,2.89-8.15,10.61v35.38h-18.87v-41.06
			c0-7.18-0.21-13.61-0.43-19.3h16.19l0.96,7.61h0.32c2.68-4.07,8.36-8.79,16.72-8.79c12.65,0,19.4,9.11,19.4,24.77V284.33z"/>
	</g>
</g>
</svg>
