<?xml version="1.0" encoding="utf-8"?>
<!-- Generator: Adobe Illustrator 24.0.0, SVG Export Plug-In . SVG Version: 6.00 Build 0)  -->
<svg version="1.1" id="レイヤー_1" xmlns="http://www.w3.org/2000/svg" xmlns:xlink="http://www.w3.org/1999/xlink" x="0px"
	 y="0px" width="720px" height="115px" viewBox="0 0 720 115" style="enable-background:new 0 0 720 115;" xml:space="preserve">
<style type="text/css">
	.st0{fill:none;}
	.st1{fill:#FFFFFF;}
</style>
<rect x="0" class="st0" width="720" height="115"/>
<g>
	<path class="st1" d="M17,17.19h18.87v82.87H17V17.19z"/>
	<path class="st1" d="M98.73,33.7H79.75v66.36H60.89V33.7H42.12V17.19h56.61V33.7z"/>
	<path class="st1" d="M191.25,100.06h-19.51l-4.83-19.3h-19.08l-4.5,19.3h-19.08l21.87-82.87h23.91L191.25,100.06z M164.66,66.51
		l-3.65-16.62c-1.07-4.93-2.47-12.33-3.54-17.37h-0.21c-1.07,5.04-2.47,12.65-3.43,17.37l-3.75,16.62H164.66z"/>
	<path class="st1" d="M249.3,80.66c0,7.4,0.32,14.04,0.54,19.4h-16.29l-0.86-7.5h-0.32c-2.57,3.86-8.04,8.68-16.83,8.68
		c-12.22,0-19.08-8.26-19.08-25.62V39.7h18.87v33.23c0,8.15,2.25,12.87,7.5,12.87c3.86,0,7.61-3,7.61-9.11V39.7h18.87V80.66z"/>
	<path class="st1" d="M263.25,28.66l18.65-5.25v16.3h12.54v13.61H281.9v22.73c0,7.08,2.25,9.65,6.75,9.65
		c2.14,0,3.32-0.11,4.93-0.54l0.11,14.58c-2.36,0.75-6.54,1.39-11.58,1.39c-18.55,0-18.87-15.87-18.87-22.73V53.32h-7.4V39.7h7.4
		V28.66z"/>
	<path class="st1" d="M354.67,69.51c0,23.48-15.12,31.73-28.3,31.73c-16.72,0-28.2-11.58-28.2-30.98
		c0-20.26,12.22-31.73,28.84-31.73C344.27,38.52,354.67,51.39,354.67,69.51z M326.58,52.25c-7.08,0-9.33,9.22-9.33,17.58
		c0,10.08,2.89,17.69,9.33,17.69c6.11,0,9.01-8.04,9.01-17.69C335.59,60.93,333.02,52.25,326.58,52.25z"/>
	<path class="st1" d="M447.49,100.06h-18.55V66.4c0-7.61-1.72-12.54-6.86-12.54c-4.39,0-7.5,3.75-7.5,9.86v36.34h-18.55V64.9
		c0-5.9-1.5-11.04-6.75-11.04c-2.79,0-7.61,2.25-7.61,9.97v36.24h-18.55V59c0-7.18-0.21-13.61-0.43-19.3h16.08l0.86,7.5h0.32
		c2.79-3.75,8.04-8.68,16.62-8.68c7.4,0,12.76,3.54,15.12,9.22h0.21c2.36-3.43,7.83-9.22,17.15-9.22c11.79,0,18.44,8.79,18.44,24.87
		V100.06z"/>
	<path class="st1" d="M506.05,85.8c0,5.36,0.21,10.61,0.96,14.26h-16.94L489,94.27h-0.32c-3.64,4.82-9.33,6.97-15.55,6.97
		c-10.94,0-18.12-8.36-18.12-18.55c0-15.97,14.26-22.84,32.05-22.94c0-4.61-2.04-7.93-9.65-7.93c-5.68,0-11.04,1.72-14.9,4.07
		l-3.43-12.22c3.86-2.14,11.69-5.15,22.08-5.15c19.94,0,24.87,12.65,24.87,26.05V85.8z M487.71,71.54c-7.83,0-14.47,2.25-14.47,9.22
		c0,4.93,3,7.08,6.32,7.08c3.86,0,8.15-2.79,8.15-8.47V71.54z"/>
	<path class="st1" d="M518.9,28.66l18.65-5.25v16.3h12.54v13.61h-12.54v22.73c0,7.08,2.25,9.65,6.75,9.65
		c2.14,0,3.32-0.11,4.93-0.54l0.11,14.58c-2.36,0.75-6.54,1.39-11.58,1.39c-18.55,0-18.87-15.87-18.87-22.73V53.32h-7.4V39.7h7.4
		V28.66z"/>
	<path class="st1" d="M567.57,32.95c-5.68,0-9.65-4.07-9.65-9.54c0-5.68,4.07-9.65,9.65-9.65c5.68,0,9.65,3.97,9.65,9.65
		S573.04,32.95,567.57,32.95z M577.01,100.06h-18.87V39.7h18.87V100.06z"/>
	<path class="st1" d="M641.38,69.51c0,23.48-15.12,31.73-28.3,31.73c-16.72,0-28.2-11.58-28.2-30.98
		c0-20.26,12.22-31.73,28.84-31.73C630.98,38.52,641.38,51.39,641.38,69.51z M613.29,52.25c-7.08,0-9.33,9.22-9.33,17.58
		c0,10.08,2.89,17.69,9.33,17.69c6.11,0,9.01-8.04,9.01-17.69C622.3,60.93,619.73,52.25,613.29,52.25z"/>
	<path class="st1" d="M703,100.06h-18.87V65c0-6.33-1.93-10.94-7.29-10.94c-3.97,0-8.15,2.89-8.15,10.61v35.38h-18.87V59
		c0-7.18-0.21-13.61-0.43-19.3h16.19l0.96,7.61h0.32c2.68-4.07,8.36-8.79,16.72-8.79c12.65,0,19.4,9.11,19.4,24.77V100.06z"/>
</g>
</svg>
