<?xml version="1.0" encoding="utf-8"?>
<!-- Generator: Adobe Illustrator 25.2.1, SVG Export Plug-In . SVG Version: 6.00 Build 0)  -->
<svg version="1.1" id="レイヤー_1" xmlns="http://www.w3.org/2000/svg" xmlns:xlink="http://www.w3.org/1999/xlink" x="0px"
	 y="0px" viewBox="0 0 1210 300" style="enable-background:new 0 0 1210 300;" xml:space="preserve">
<style type="text/css">
	.st0{fill:none;}
	.st1{fill:#00325F;}
</style>
<rect class="st0" width="1210" height="300"/>
<g>
	<g>
		<path class="st1" d="M1038.22,41.81c-13.52,0-27.53,8-34.91,18.24V41.81h-29.1v127.06h29.1V127.6c0-33.93,9.14-56.78,34.91-56.78
			V41.81z"/>
		<path class="st1" d="M787.2,139.85c-0.28-0.34-0.71-1.08-0.71-2.52v-0.1V89.61v-6.03c0-22.22-17.45-40.41-39.4-41.78h-37.56v29.02
			l37.56,0.14c5.87,1.22,10.3,6.41,10.3,12.62l-0.55,1.59h-28.89c-13.83,0-28.75,12.05-28.75,31.53v20.63
			c0,19.48,14.92,31.53,28.75,31.53h29.8c4.83,0,9.78-1.5,14.2-4.25c4.42,2.75,9.37,4.25,14.2,4.25h11.56v-29.02H787.2z
			 M757.39,137.24v0.1c0,1.43-0.42,2.18-0.71,2.52h-27.68c-0.28-0.34-0.71-1.08-0.71-2.52v-20.63c0-1.43,0.42-2.18,0.71-2.52h28.38
			V137.24z"/>
		<path class="st1" d="M935.81,23.78h-29.1v18.03h-13.71v29.02h13.71v66.51c0,19.48,14.92,31.53,28.75,31.53h24.98v-29.02h-23.92
			c-0.28-0.34-0.71-1.08-0.71-2.52V70.82h24.63V41.81h-24.63V23.78z"/>
		<path class="st1" d="M851.13,85.17l-15.54,0.14c-4.01,0-7.27-3.25-7.27-7.25c0-4,3.26-7.25,7.27-7.25h43.63V41.81h-43.63
			c-20.06,0-36.37,16.26-36.37,36.26s16.31,36.26,36.37,36.26l15.54,0c5.87,1.22,10.3,6.41,10.3,12.62c0,7.11-5.8,12.9-12.93,12.9
			h-37.02v29.02h37.02c23.18,0,42.04-18.81,42.04-41.92C890.53,104.72,873.08,86.54,851.13,85.17z"/>
		<polygon class="st1" points="697.1,41.81 661.37,41.81 643.07,73.96 624.76,41.81 589.03,41.81 625.2,105.34 589.03,168.87 
			624.76,168.87 643.07,136.71 661.37,168.87 697.1,168.87 660.93,105.34 		"/>
		<polygon class="st1" points="576.39,52.8 576.39,23.78 481.35,23.78 481.35,168.87 576.39,168.87 576.39,139.85 515.4,139.85 
			515.4,110.83 567.09,110.83 567.09,81.81 515.4,81.81 515.4,52.8 		"/>
		<path class="st1" d="M1103.64,41.81c-35.19,0-63.72,28.44-63.72,63.53c0,35.09,28.53,63.53,63.72,63.53s63.72-28.44,63.72-63.53
			C1167.36,70.25,1138.83,41.81,1103.64,41.81z M1121.69,113.56l11.15,34.22l-29.2-21.15l-29.2,21.15l11.15-34.22l-29.2-21.15h36.09
			l11.15-34.22l11.15,34.22h36.09L1121.69,113.56z"/>
	</g>
	<g>
		<path class="st1" d="M537.28,247.7h-34.19v19.59h40.38v15.2h-62.12v-81.98h62.25v15.26h-40.51v17.29h34.19V247.7z"/>
		<path class="st1" d="M576.17,254.68v27.81h-21.74v-81.98h35.98c6.9,0,13,1.15,18.3,3.46c5.31,2.31,9.41,5.59,12.33,9.85
			c2.91,4.26,4.37,9.09,4.37,14.5c0,8-3.15,14.39-9.45,19.17c-6.3,4.79-14.94,7.18-25.92,7.18H576.17z M576.17,239.42h14.25
			c4.21,0,7.42-0.96,9.63-2.87c2.21-1.91,3.31-4.62,3.31-8.11c0-3.83-1.14-6.89-3.41-9.18c-2.27-2.29-5.37-3.45-9.29-3.49h-14.49
			V239.42z"/>
		<path class="st1" d="M711.98,243.19c0,8-1.63,15.07-4.89,21.23c-3.26,6.16-7.9,10.9-13.91,14.22c-6.01,3.32-12.85,4.98-20.53,4.98
			s-14.49-1.6-20.44-4.81c-5.95-3.21-10.58-7.8-13.9-13.77c-3.32-5.97-5.07-12.82-5.23-20.55v-4.62c0-8.03,1.62-15.12,4.86-21.25
			c3.24-6.14,7.89-10.88,13.94-14.22c6.05-3.34,12.93-5.01,20.66-5.01c7.64,0,14.45,1.65,20.44,4.96c5.99,3.3,10.64,8,13.97,14.1
			c3.32,6.1,5.01,13.09,5.05,20.97V243.19z M689.87,239.76c0-8.15-1.5-14.33-4.49-18.55c-2.99-4.22-7.28-6.33-12.85-6.33
			c-10.9,0-16.66,7.43-17.28,22.3l-0.06,6.03c0,8.03,1.46,14.21,4.4,18.52c2.93,4.32,7.29,6.47,13.07,6.47
			c5.49,0,9.72-2.12,12.7-6.36c2.97-4.24,4.48-10.34,4.52-18.3V239.76z"/>
		<path class="st1" d="M795.62,254.74c-0.29,5.71-1.98,10.75-5.08,15.12c-3.1,4.37-7.44,7.76-13.04,10.16
			c-5.6,2.4-11.98,3.6-19.17,3.6c-11.85,0-21.18-3.51-28-10.53c-6.81-7.02-10.22-16.93-10.22-29.73v-4.05
			c0-8.03,1.54-15.06,4.61-21.09c3.08-6.02,7.5-10.68,13.29-13.96c5.78-3.28,12.47-4.93,20.07-4.93c10.94,0,19.74,2.62,26.38,7.85
			c6.65,5.24,10.43,12.45,11.33,21.65h-21.68c-0.17-4.99-1.55-8.58-4.15-10.75c-2.6-2.18-6.57-3.27-11.89-3.27
			c-5.41,0-9.37,1.84-11.89,5.52c-2.52,3.68-3.84,9.55-3.96,17.62v5.8c0,8.75,1.21,15,3.62,18.75c2.42,3.75,6.58,5.63,12.48,5.63
			c5,0,8.81-1.07,11.46-3.21c2.64-2.14,4.05-5.54,4.21-10.19H795.62z"/>
		<path class="st1" d="M881.48,282.5h-21.62v-34.23h-32.02v34.23H806.1v-81.98h21.74v32.54h32.02v-32.54h21.62V282.5z"/>
	</g>
</g>
<g>
	<polygon class="st1" points="242.99,138.82 234.1,111.44 225.2,138.82 196.41,138.82 219.7,155.74 210.81,183.12 234.1,166.2 
		257.39,183.12 248.49,155.74 271.79,138.82 	"/>
	<path class="st1" d="M409.71,109.29c-0.85,3.58-1.31,7.49-1.33,11.44c-3.25-0.77-6.89-3.15-9.91-6.17
		c-3.03-3.03-5.4-6.66-6.17-9.91c3.94-0.02,7.86-0.48,11.43-1.33l14.69-14.69l-51.87,7.41l-93.32,93.32
		c-2.04,2.04-4.23,3.82-6.49,5.47c-21.61,15.82-52.18,14.04-71.69-5.47c-13.96-13.96-18.82-33.57-14.7-51.52l-30.94,30.94
		c3.51,16.23,11.51,30.91,23.41,42.81c16.38,16.38,38.16,25.4,61.32,25.4c23.17,0,44.94-9.02,61.32-25.4l78.83-78.83
		c0.85-3.58,1.31-7.49,1.33-11.44c3.25,0.77,6.89,3.15,9.91,6.17c3.03,3.03,5.4,6.66,6.17,9.91c-3.95,0.02-7.86,0.48-11.44,1.33
		l-78.83,78.83c-17.98,17.98-41.88,27.88-67.3,27.88s-49.33-9.9-67.3-27.88c-11.79-11.79-19.99-26.12-24.31-41.91l-24.63,24.64
		c6.15,14.35,15.03,27.79,26.73,39.49c25.21,25.21,58.51,37.54,91.62,37c31.72-0.52,63.29-12.85,87.44-37L417,146.46l7.41-51.87
		L409.71,109.29z M375.63,120.73c-0.03-6.14-1.09-12.23-3.14-17c-1.04-2.42-2.31-4.53-3.87-6.09c2.32,2.32,5.8,4.06,9.85,5.23
		c4.03,1.16,8.63,1.75,13.24,1.77C390.18,111.14,382.13,119.19,375.63,120.73z M392.29,137.39c1.54-6.5,9.59-14.55,16.09-16.09
		c0.05,9.25,2.38,18.46,7,23.09C410.76,139.76,401.55,137.44,392.29,137.39z"/>
	<path class="st1" d="M195.05,111.16c0,0,4.24-3.83,6.49-5.48c21.61-15.82,52.18-14.04,71.7,5.47
		c13.96,13.96,18.82,33.57,14.7,51.52l30.94-30.94c-3.51-16.23-11.51-30.91-23.41-42.81c-16.38-16.38-38.16-25.4-61.32-25.4
		c-23.17,0-44.94,9.02-61.32,25.4l-78.84,78.84c-0.85,3.58-1.31,7.49-1.33,11.44c-3.25-0.77-6.89-3.15-9.91-6.17
		c-3.03-3.03-5.4-6.66-6.17-9.91c3.95-0.02,7.86-0.48,11.44-1.33l78.83-78.83c17.98-17.98,41.88-27.88,67.3-27.88
		s49.33,9.9,67.3,27.88c11.79,11.79,19.99,26.12,24.31,41.91l24.65-24.65c-6.15-14.35-15.03-27.79-26.73-39.49
		c-25.21-25.21-58.51-37.54-91.62-37c-31.72,0.52-63.29,12.85-87.44,37L51.3,154.05l-7.41,51.85l14.69-14.69
		c0.85-3.58,1.31-7.49,1.33-11.44c3.25,0.77,6.89,3.15,9.91,6.17c3.03,3.03,5.4,6.66,6.17,9.91c-3.94,0.02-7.86,0.48-11.43,1.33
		l-14.69,14.69l51.87-7.41C101.74,204.47,195.05,111.16,195.05,111.16z M59.92,179.2c-0.05-9.25-2.38-18.46-7-23.09
		c4.63,4.63,13.84,6.96,23.09,7C74.46,169.61,66.41,177.66,59.92,179.2z M89.81,197.63c-4.03-1.16-8.63-1.75-13.24-1.77
		c1.54-6.5,9.59-14.55,16.09-16.09c0.03,6.14,1.09,12.23,3.14,17c1.04,2.42,2.31,4.53,3.87,6.09
		C97.34,200.54,93.87,198.8,89.81,197.63z"/>
</g>
</svg>
