<?xml version="1.0" encoding="utf-8"?>
<!-- Generator: Adobe Illustrator 25.2.1, SVG Export Plug-In . SVG Version: 6.00 Build 0)  -->
<svg version="1.1" id="レイヤー_1" xmlns="http://www.w3.org/2000/svg" xmlns:xlink="http://www.w3.org/1999/xlink" x="0px"
	 y="0px" viewBox="0 0 441 123" style="enable-background:new 0 0 441 123;" xml:space="preserve">
<style type="text/css">
	.st0{fill:none;}
	.st1{fill:#FFFFFF;}
</style>
<rect class="st0" width="441" height="123"/>
<g>
	<path class="st1" d="M76.36,67.72H42.18v19.59h40.38v15.2H20.44V20.54h62.25V35.8H42.18v17.29h34.19V67.72z"/>
	<path class="st1" d="M115.26,74.7v27.81H93.52V20.54h35.98c6.9,0,13,1.15,18.3,3.46c5.31,2.31,9.41,5.59,12.33,9.85
		c2.91,4.26,4.37,9.09,4.37,14.5c0,8-3.15,14.39-9.45,19.17c-6.3,4.79-14.94,7.18-25.92,7.18H115.26z M115.26,59.45h14.25
		c4.21,0,7.42-0.96,9.63-2.87c2.21-1.91,3.31-4.62,3.31-8.11c0-3.83-1.14-6.89-3.41-9.18c-2.27-2.29-5.37-3.45-9.29-3.49h-14.49
		V59.45z"/>
	<path class="st1" d="M251.07,63.22c0,8-1.63,15.07-4.89,21.23c-3.26,6.16-7.9,10.9-13.91,14.22c-6.01,3.32-12.85,4.98-20.53,4.98
		s-14.49-1.6-20.44-4.81c-5.95-3.21-10.58-7.8-13.9-13.77c-3.32-5.97-5.07-12.82-5.23-20.55V59.9c0-8.03,1.62-15.12,4.86-21.25
		c3.24-6.14,7.89-10.88,13.94-14.22c6.05-3.34,12.93-5.01,20.66-5.01c7.64,0,14.45,1.65,20.44,4.96c5.99,3.3,10.64,8,13.97,14.1
		c3.32,6.1,5.01,13.09,5.05,20.97V63.22z M228.95,59.78c0-8.15-1.5-14.33-4.49-18.55c-2.99-4.22-7.28-6.33-12.85-6.33
		c-10.9,0-16.66,7.43-17.28,22.3l-0.06,6.03c0,8.03,1.46,14.21,4.4,18.52c2.93,4.32,7.29,6.47,13.07,6.47
		c5.49,0,9.72-2.12,12.7-6.36c2.97-4.24,4.48-10.34,4.52-18.3V59.78z"/>
	<path class="st1" d="M334.7,74.76c-0.29,5.71-1.98,10.75-5.08,15.12c-3.1,4.37-7.44,7.76-13.04,10.16c-5.6,2.4-11.98,3.6-19.17,3.6
		c-11.85,0-21.18-3.51-28-10.53c-6.81-7.02-10.22-16.93-10.22-29.73v-4.05c0-8.03,1.54-15.06,4.61-21.09
		c3.08-6.02,7.5-10.68,13.29-13.96c5.78-3.28,12.47-4.93,20.07-4.93c10.94,0,19.74,2.62,26.38,7.85
		c6.65,5.24,10.43,12.45,11.33,21.65h-21.68c-0.17-4.99-1.55-8.58-4.15-10.75c-2.6-2.18-6.57-3.27-11.89-3.27
		c-5.41,0-9.37,1.84-11.89,5.52c-2.52,3.68-3.84,9.55-3.96,17.62v5.8c0,8.75,1.21,15,3.62,18.75c2.42,3.75,6.58,5.63,12.48,5.63
		c5,0,8.81-1.07,11.46-3.21c2.64-2.14,4.05-5.54,4.21-10.19H334.7z"/>
	<path class="st1" d="M420.56,102.52h-21.62V68.29h-32.02v34.23h-21.74V20.54h21.74v32.54h32.02V20.54h21.62V102.52z"/>
</g>
</svg>
