<?xml version="1.0" encoding="utf-8"?>
<!-- Generator: Adobe Illustrator 25.2.1, SVG Export Plug-In . SVG Version: 6.00 Build 0)  -->
<svg version="1.1" id="レイヤー_1" xmlns="http://www.w3.org/2000/svg" xmlns:xlink="http://www.w3.org/1999/xlink" x="0px"
	 y="0px" viewBox="0 0 1210 300" style="enable-background:new 0 0 1210 300;" xml:space="preserve">
<style type="text/css">
	.st0{fill:none;}
	.st1{fill:#00325F;}
	.st2{fill:#FFFFFF;}
	.st3{fill:url(#SVGID_1_);}
	.st4{fill:url(#SVGID_2_);}
	.st5{fill:#8099AF;}
	.st6{fill:url(#SVGID_3_);}
	.st7{fill:url(#SVGID_4_);}
</style>
<rect class="st0" width="1210" height="300"/>
<g>
	<g>
		<path class="st1" d="M1038.22,41.81c-13.52,0-27.53,8-34.91,18.24V41.81h-29.1v127.06h29.1V127.6c0-33.93,9.14-56.78,34.91-56.78
			V41.81z"/>
		<path class="st1" d="M787.2,139.85c-0.28-0.34-0.71-1.08-0.71-2.52v-0.1V89.61v-6.03c0-22.22-17.45-40.41-39.4-41.78h-37.56v29.02
			l37.56,0.14c5.87,1.22,10.3,6.41,10.3,12.62l-0.55,1.59h-28.89c-13.83,0-28.75,12.05-28.75,31.53v20.63
			c0,19.48,14.92,31.53,28.75,31.53h29.8c4.83,0,9.78-1.5,14.2-4.25c4.42,2.75,9.37,4.25,14.2,4.25h11.56v-29.02H787.2z
			 M757.39,137.24v0.1c0,1.43-0.42,2.18-0.71,2.52h-27.68c-0.28-0.34-0.71-1.08-0.71-2.52v-20.63c0-1.43,0.42-2.18,0.71-2.52h28.38
			V137.24z"/>
		<path class="st1" d="M935.81,23.78h-29.1v18.03h-13.71v29.02h13.71v66.51c0,19.48,14.92,31.53,28.75,31.53h24.98v-29.02h-23.92
			c-0.28-0.34-0.71-1.08-0.71-2.52V70.82h24.63V41.81h-24.63V23.78z"/>
		<path class="st1" d="M851.13,85.17l-15.54,0.14c-4.01,0-7.27-3.25-7.27-7.25c0-4,3.26-7.25,7.27-7.25h43.63V41.81h-43.63
			c-20.06,0-36.37,16.26-36.37,36.26s16.31,36.26,36.37,36.26l15.54,0c5.87,1.22,10.3,6.41,10.3,12.62c0,7.11-5.8,12.9-12.93,12.9
			h-37.02v29.02h37.02c23.18,0,42.04-18.81,42.04-41.92C890.53,104.72,873.08,86.54,851.13,85.17z"/>
		<polygon class="st1" points="697.1,41.81 661.37,41.81 643.07,73.96 624.76,41.81 589.03,41.81 625.2,105.34 589.03,168.87 
			624.76,168.87 643.07,136.71 661.37,168.87 697.1,168.87 660.93,105.34 		"/>
		<polygon class="st1" points="576.39,52.8 576.39,23.78 481.35,23.78 481.35,168.87 576.39,168.87 576.39,139.85 515.4,139.85 
			515.4,110.83 567.09,110.83 567.09,81.81 515.4,81.81 515.4,52.8 		"/>
		<path class="st1" d="M1103.64,41.81c-35.19,0-63.72,28.44-63.72,63.53c0,35.09,28.53,63.53,63.72,63.53s63.72-28.44,63.72-63.53
			C1167.36,70.25,1138.83,41.81,1103.64,41.81z M1121.69,113.56l11.15,34.22l-29.2-21.15l-29.2,21.15l11.15-34.22l-29.2-21.15h36.09
			l11.15-34.22l11.15,34.22h36.09L1121.69,113.56z"/>
	</g>
	<g>
		<path class="st2" d="M391.95,104.53c-1.54,6.49-9.6,14.52-16.11,16.06c-0.05-9.24-2.38-18.43-7.01-23.05
			C373.46,102.16,382.68,104.48,391.95,104.53z"/>
		<polygon class="st2" points="257.43,182.89 234.11,165.99 210.78,182.89 219.69,155.55 196.37,138.65 225.2,138.65 234.11,111.31 
			243.02,138.65 271.85,138.65 248.52,155.55 		"/>
		<path class="st2" d="M75.79,162.91c-1.54,6.49-9.6,14.53-16.11,16.06c-0.05-9.24-2.38-18.43-7.01-23.05
			C57.31,160.54,66.53,162.86,75.79,162.91z"/>
		<path class="st2" d="M52.67,202.6c4.63-4.62,6.97-13.81,7.01-23.05c3.25,0.77,6.9,3.14,9.93,6.16c3.03,3.02,5.41,6.65,6.18,9.9
			C66.53,195.65,57.31,197.98,52.67,202.6z"/>
		<path class="st2" d="M76.37,195.6c1.54-6.49,9.6-14.52,16.11-16.06c0.05,9.24,2.38,18.43,7.01,23.05
			C94.86,197.98,85.64,195.65,76.37,195.6z"/>
		<path class="st2" d="M92.48,178.97c-3.25-0.77-6.9-3.14-9.93-6.16c-3.03-3.02-5.41-6.65-6.18-9.9c9.27-0.05,18.49-2.37,23.12-6.99
			C94.86,160.54,92.52,169.73,92.48,178.97z"/>
		<path class="st2" d="M368.82,144.22c4.63-4.62,6.97-13.81,7.01-23.05c3.25,0.77,6.9,3.14,9.93,6.16c3.03,3.02,5.41,6.65,6.18,9.9
			C382.68,137.27,373.46,139.6,368.82,144.22z"/>
		<path class="st2" d="M392.52,137.23c1.54-6.49,9.6-14.52,16.11-16.06c0.05,9.24,2.38,18.43,7.01,23.05
			C411.01,139.6,401.79,137.27,392.52,137.23z"/>
		<path class="st2" d="M408.63,120.59c-3.25-0.77-6.9-3.14-9.93-6.16c-3.03-3.02-5.41-6.65-6.18-9.9
			c9.27-0.05,18.49-2.37,23.12-6.99C411.01,102.16,408.68,111.35,408.63,120.59z"/>
		<polygon class="st2" points="143.84,162.05 143.84,162.05 143.03,162.87 		"/>
		<path class="st1" d="M182.81,201.41c-28.17-28.33-28.17-74.35,0-102.69c28.33-28.17,74.35-28.17,102.69,0
			c28.17,28.33,28.17,74.35,0,102.69C257.17,229.58,211.15,229.58,182.81,201.41z M225.2,138.65h-28.83l23.32,16.9l-8.91,27.34
			l23.32-16.9l23.32,16.9l-8.91-27.34l23.32-16.9h-28.83l-8.91-27.34L225.2,138.65z"/>
		<linearGradient id="SVGID_1_" gradientUnits="userSpaceOnUse" x1="342.5688" y1="220.978" x2="213.7012" y2="92.1105">
			<stop  offset="0" style="stop-color:#00325F"/>
			<stop  offset="1" style="stop-color:#8099AF"/>
		</linearGradient>
		<path class="st3" d="M415.64,97.54c-4.63,4.62-6.97,13.81-7.01,23.05c0,0.19,0,0.38,0,0.57c0.05,9.24,2.38,18.43,7.01,23.05
			c-4.63-4.62-13.85-6.95-23.12-6.99c-0.19,0-0.38,0-0.58,0c-9.27,0.05-18.49,2.37-23.12,6.99l-70.27,70.06
			c-35.57,35.46-93.23,35.46-128.8,0c-14.73-14.68-23.35-33.14-25.88-52.26l-29.51,29.42c6.07,17.55,16.11,34.03,30.14,48.01
			c25.25,25.17,58.59,37.48,91.75,36.94c31.77-0.52,63.38-12.83,87.56-36.94l93.44-93.17l8.42-58.75L415.64,97.54z"/>
		<linearGradient id="SVGID_2_" gradientUnits="userSpaceOnUse" x1="330.0095" y1="183.2008" x2="226.3537" y2="79.545">
			<stop  offset="0" style="stop-color:#8099AF"/>
			<stop  offset="1" style="stop-color:#00325F"/>
		</linearGradient>
		<path class="st4" d="M366.75,95.93L273.3,189.1c-21.58,21.52-56.71,21.52-78.29,0s-21.58-56.54,0-78.06l-51.14,50.99
			c2.53,19.11,11.15,37.57,25.88,52.26c35.57,35.46,93.23,35.46,128.8,0l70.27-70.06c4.63-4.62,6.97-13.81,7.01-23.05
			c0-0.19,0-0.38,0-0.57c-0.05-9.24-2.38-18.43-7.01-23.05c4.63,4.62,13.85,6.95,23.12,6.99c0.19,0,0.38,0,0.58,0
			c9.27-0.05,18.49-2.37,23.12-6.99l10.03-10L366.75,95.93z"/>
		<path class="st5" d="M398.7,114.43c-3.03-3.02-5.41-6.65-6.18-9.9c-0.19,0-0.38,0-0.58,0c-1.54,6.49-9.6,14.52-16.11,16.06
			c0,0.19,0,0.38,0,0.57c3.25,0.77,6.9,3.14,9.93,6.16c3.03,3.02,5.41,6.65,6.18,9.9c0.19,0,0.38,0,0.58,0
			c1.54-6.49,9.6-14.52,16.11-16.06c0-0.19,0-0.38,0-0.57C405.37,119.82,401.73,117.45,398.7,114.43z"/>
		<linearGradient id="SVGID_3_" gradientUnits="userSpaceOnUse" x1="254.6129" y1="208.0248" x2="125.7455" y2="79.1573">
			<stop  offset="0" style="stop-color:#00325F"/>
			<stop  offset="1" style="stop-color:#8099AF"/>
		</linearGradient>
		<path class="st6" d="M323.81,60.68c-25.25-25.17-58.59-37.48-91.75-36.94c-31.77,0.52-63.38,12.83-87.56,36.94l-93.44,93.17
			l-8.42,58.75l10.03-10c4.63-4.62,6.97-13.81,7.01-23.05c0-0.19,0-0.38,0-0.57c-0.05-9.24-2.38-18.43-7.01-23.05
			c4.63,4.62,13.85,6.95,23.12,6.99c0.19,0,0.38,0,0.58,0c9.27-0.05,18.49-2.37,23.12-6.99l12.17-12.13l58.1-57.93
			c35.57-35.46,93.23-35.46,128.8,0c14.73,14.68,23.35,33.14,25.88,52.26l29.51-29.42C347.88,91.14,337.84,74.66,323.81,60.68z"/>
		<linearGradient id="SVGID_4_" gradientUnits="userSpaceOnUse" x1="241.9605" y1="220.5902" x2="138.3048" y2="116.9345">
			<stop  offset="0" style="stop-color:#8099AF"/>
			<stop  offset="1" style="stop-color:#00325F"/>
		</linearGradient>
		<path class="st7" d="M324.44,138.11c-2.53-19.11-11.15-37.57-25.88-52.26c-35.57-35.46-93.23-35.46-128.8,0l-70.27,70.06
			c-4.63,4.62-6.97,13.81-7.01,23.05c0,0.19,0,0.38,0,0.57c0.05,9.24,2.38,18.43,7.01,23.05c-4.63-4.62-13.85-6.95-23.12-6.99
			c-0.19,0-0.38,0-0.58,0c-9.27,0.05-18.49,2.37-23.12,6.99l-10.03,10l58.93-8.39l93.44-93.17c21.58-21.52,56.71-21.52,78.29,0
			s21.58,56.54,0,78.06L324.44,138.11z"/>
		<path class="st5" d="M82.55,172.81c-3.03-3.02-5.41-6.65-6.18-9.9c-0.19,0-0.38,0-0.58,0c-1.54,6.49-9.6,14.53-16.11,16.06
			c0,0.19,0,0.38,0,0.57c3.25,0.77,6.9,3.14,9.93,6.16c3.03,3.02,5.41,6.65,6.18,9.9c0.19,0,0.38,0,0.58,0
			c1.54-6.49,9.6-14.52,16.11-16.06c0-0.19,0-0.38,0-0.57C89.22,178.2,85.58,175.83,82.55,172.81z"/>
	</g>
	<g>
		<path class="st1" d="M537.28,247.7h-34.19v19.59h40.38v15.2h-62.12v-81.98h62.25v15.26h-40.51v17.29h34.19V247.7z"/>
		<path class="st1" d="M576.17,254.68v27.81h-21.74v-81.98h35.98c6.9,0,13,1.15,18.3,3.46c5.31,2.31,9.41,5.59,12.33,9.85
			c2.91,4.26,4.37,9.09,4.37,14.5c0,8-3.15,14.39-9.45,19.17c-6.3,4.79-14.94,7.18-25.92,7.18H576.17z M576.17,239.42h14.25
			c4.21,0,7.42-0.96,9.63-2.87c2.21-1.91,3.31-4.62,3.31-8.11c0-3.83-1.14-6.89-3.41-9.18c-2.27-2.29-5.37-3.45-9.29-3.49h-14.49
			V239.42z"/>
		<path class="st1" d="M711.98,243.19c0,8-1.63,15.07-4.89,21.23c-3.26,6.16-7.9,10.9-13.91,14.22c-6.01,3.32-12.85,4.98-20.53,4.98
			s-14.49-1.6-20.44-4.81c-5.95-3.21-10.58-7.8-13.9-13.77c-3.32-5.97-5.07-12.82-5.23-20.55v-4.62c0-8.03,1.62-15.12,4.86-21.25
			c3.24-6.14,7.89-10.88,13.94-14.22c6.05-3.34,12.93-5.01,20.66-5.01c7.64,0,14.45,1.65,20.44,4.96c5.99,3.3,10.64,8,13.97,14.1
			c3.32,6.1,5.01,13.09,5.05,20.97V243.19z M689.87,239.76c0-8.15-1.5-14.33-4.49-18.55c-2.99-4.22-7.28-6.33-12.85-6.33
			c-10.9,0-16.66,7.43-17.28,22.3l-0.06,6.03c0,8.03,1.46,14.21,4.4,18.52c2.93,4.32,7.29,6.47,13.07,6.47
			c5.49,0,9.72-2.12,12.7-6.36c2.97-4.24,4.48-10.34,4.52-18.3V239.76z"/>
		<path class="st1" d="M795.62,254.74c-0.29,5.71-1.98,10.75-5.08,15.12c-3.1,4.37-7.44,7.76-13.04,10.16
			c-5.6,2.4-11.98,3.6-19.17,3.6c-11.85,0-21.18-3.51-28-10.53c-6.81-7.02-10.22-16.93-10.22-29.73v-4.05
			c0-8.03,1.54-15.06,4.61-21.09c3.08-6.02,7.5-10.68,13.29-13.96c5.78-3.28,12.47-4.93,20.07-4.93c10.94,0,19.74,2.62,26.38,7.85
			c6.65,5.24,10.43,12.45,11.33,21.65h-21.68c-0.17-4.99-1.55-8.58-4.15-10.75c-2.6-2.18-6.57-3.27-11.89-3.27
			c-5.41,0-9.37,1.84-11.89,5.52c-2.52,3.68-3.84,9.55-3.96,17.62v5.8c0,8.75,1.21,15,3.62,18.75c2.42,3.75,6.58,5.63,12.48,5.63
			c5,0,8.81-1.07,11.46-3.21c2.64-2.14,4.05-5.54,4.21-10.19H795.62z"/>
		<path class="st1" d="M881.48,282.5h-21.62v-34.23h-32.02v34.23H806.1v-81.98h21.74v32.54h32.02v-32.54h21.62V282.5z"/>
	</g>
</g>
</svg>
