<?xml version="1.0" encoding="utf-8"?>
<!-- Generator: Adobe Illustrator 25.2.1, SVG Export Plug-In . SVG Version: 6.00 Build 0)  -->
<svg version="1.1" id="レイヤー_1" xmlns="http://www.w3.org/2000/svg" xmlns:xlink="http://www.w3.org/1999/xlink" x="0px"
	 y="0px" viewBox="0 0 726 300" style="enable-background:new 0 0 726 300;" xml:space="preserve">
<style type="text/css">
	.st0{fill:none;}
	.st1{fill:#00325F;}
</style>
<rect class="st0" width="726" height="300"/>
<g>
	<g>
		<path class="st1" d="M576.87,41.81c-13.52,0-27.53,8-34.91,18.24V41.81h-29.1v127.06h29.1V127.6c0-33.93,9.14-56.78,34.91-56.78
			V41.81z"/>
		<path class="st1" d="M325.85,139.85c-0.28-0.34-0.71-1.08-0.71-2.52v-0.1V89.61v-6.03c0-22.22-17.45-40.41-39.4-41.78h-37.56
			v29.02l37.56,0.14c5.87,1.22,10.3,6.41,10.3,12.62l-0.55,1.59h-28.89c-13.83,0-28.75,12.05-28.75,31.53v20.63
			c0,19.48,14.92,31.53,28.75,31.53h29.8c4.83,0,9.78-1.5,14.2-4.25c4.42,2.75,9.37,4.25,14.2,4.25h11.56v-29.02H325.85z
			 M296.04,137.24v0.1c0,1.43-0.42,2.18-0.71,2.52h-27.68c-0.28-0.34-0.71-1.08-0.71-2.52v-20.63c0-1.43,0.42-2.18,0.71-2.52h28.38
			V137.24z"/>
		<path class="st1" d="M474.45,23.78h-29.1v18.03h-13.71v29.02h13.71v66.51c0,19.48,14.92,31.53,28.75,31.53h24.98v-29.02h-23.92
			c-0.28-0.34-0.71-1.08-0.71-2.52V70.82h24.63V41.81h-24.63V23.78z"/>
		<path class="st1" d="M389.78,85.17l-15.54,0.14c-4.01,0-7.27-3.25-7.27-7.25c0-4,3.26-7.25,7.27-7.25h43.63V41.81h-43.63
			c-20.06,0-36.37,16.26-36.37,36.26s16.31,36.26,36.37,36.26l15.54,0c5.87,1.22,10.3,6.41,10.3,12.62c0,7.11-5.8,12.9-12.93,12.9
			h-37.02v29.02h37.02c23.18,0,42.04-18.81,42.04-41.92C429.18,104.72,411.73,86.54,389.78,85.17z"/>
		<polygon class="st1" points="235.74,41.81 200.02,41.81 181.71,73.96 163.41,41.81 127.68,41.81 163.85,105.34 127.68,168.87 
			163.41,168.87 181.71,136.71 200.02,168.87 235.74,168.87 199.57,105.34 		"/>
		<polygon class="st1" points="115.03,52.8 115.03,23.78 20,23.78 20,168.87 115.03,168.87 115.03,139.85 54.05,139.85 
			54.05,110.83 105.73,110.83 105.73,81.81 54.05,81.81 54.05,52.8 		"/>
		<path class="st1" d="M642.29,41.81c-35.19,0-63.72,28.44-63.72,63.53c0,35.09,28.53,63.53,63.72,63.53S706,140.42,706,105.34
			C706,70.25,677.48,41.81,642.29,41.81z M660.33,113.56l11.15,34.22l-29.2-21.15l-29.2,21.15l11.15-34.22l-29.2-21.15h36.09
			l11.15-34.22l11.15,34.22h36.09L660.33,113.56z"/>
	</g>
	<g>
		<path class="st1" d="M75.92,247.7H41.73v19.59h40.38v15.2H20v-81.98h62.25v15.26H41.73v17.29h34.19V247.7z"/>
		<path class="st1" d="M114.82,254.68v27.81H93.08v-81.98h35.98c6.9,0,13,1.15,18.3,3.46c5.31,2.31,9.41,5.59,12.33,9.85
			c2.91,4.26,4.37,9.09,4.37,14.5c0,8-3.15,14.39-9.45,19.17c-6.3,4.79-14.94,7.18-25.92,7.18H114.82z M114.82,239.42h14.25
			c4.21,0,7.42-0.96,9.63-2.87c2.21-1.91,3.31-4.62,3.31-8.11c0-3.83-1.14-6.89-3.41-9.18c-2.27-2.29-5.37-3.45-9.29-3.49h-14.49
			V239.42z"/>
		<path class="st1" d="M250.62,243.19c0,8-1.63,15.07-4.89,21.23c-3.26,6.16-7.9,10.9-13.91,14.22c-6.01,3.32-12.85,4.98-20.53,4.98
			s-14.49-1.6-20.44-4.81c-5.95-3.21-10.58-7.8-13.9-13.77c-3.32-5.97-5.07-12.82-5.23-20.55v-4.62c0-8.03,1.62-15.12,4.86-21.25
			c3.24-6.14,7.89-10.88,13.94-14.22c6.05-3.34,12.93-5.01,20.66-5.01c7.64,0,14.45,1.65,20.44,4.96c5.99,3.3,10.64,8,13.97,14.1
			c3.32,6.1,5.01,13.09,5.05,20.97V243.19z M228.51,239.76c0-8.15-1.5-14.33-4.49-18.55c-2.99-4.22-7.28-6.33-12.85-6.33
			c-10.9,0-16.66,7.43-17.28,22.3l-0.06,6.03c0,8.03,1.46,14.21,4.4,18.52c2.93,4.32,7.29,6.47,13.07,6.47
			c5.49,0,9.72-2.12,12.7-6.36c2.97-4.24,4.48-10.34,4.52-18.3V239.76z"/>
		<path class="st1" d="M334.26,254.74c-0.29,5.71-1.98,10.75-5.08,15.12c-3.1,4.37-7.44,7.76-13.04,10.16
			c-5.6,2.4-11.98,3.6-19.17,3.6c-11.85,0-21.18-3.51-28-10.53c-6.81-7.02-10.22-16.93-10.22-29.73v-4.05
			c0-8.03,1.54-15.06,4.61-21.09c3.08-6.02,7.5-10.68,13.29-13.96c5.78-3.28,12.47-4.93,20.07-4.93c10.94,0,19.74,2.62,26.38,7.85
			c6.65,5.24,10.43,12.45,11.33,21.65h-21.68c-0.17-4.99-1.55-8.58-4.15-10.75c-2.6-2.18-6.57-3.27-11.89-3.27
			c-5.41,0-9.37,1.84-11.89,5.52c-2.52,3.68-3.84,9.55-3.96,17.62v5.8c0,8.75,1.21,15,3.62,18.75c2.42,3.75,6.58,5.63,12.48,5.63
			c5,0,8.81-1.07,11.46-3.21c2.64-2.14,4.05-5.54,4.21-10.19H334.26z"/>
		<path class="st1" d="M420.12,282.5h-21.62v-34.23h-32.02v34.23h-21.74v-81.98h21.74v32.54h32.02v-32.54h21.62V282.5z"/>
	</g>
</g>
</svg>
